<svg width="114" height="177" viewBox="0 0 114 177" fill="none" xmlns="http://www.w3.org/2000/svg">
<path d="M113.183 136.644L113.235 138.269L110.29 141.721L107.903 143.854L106.786 144.26L105.618 144.108L105.567 143.651L105.974 142.788L106.176 141.62L105.109 142.585L104.348 143.701L103.485 144.564L102.012 144.717L102.165 144.209L102.419 142.533L98.0519 146.849L96.7824 148.829L95.513 149.134L94.2436 148.829L93.6343 148.016L93.5835 146.949L93.3296 145.68L92.9742 144.512L92.3649 143.852L92.8218 149.996L92.3649 151.317L90.639 153.907L90.284 155.024V158.07L90.0809 158.883L88.6592 161.371L80.0784 170.663L76.3214 173.456L74.493 175.182L73.5287 175.842L72.3604 176.248L70.9899 176.35L67.0801 175.842L66.1158 175.537L65.7604 174.775L65.4024 168.481L65.8589 167.922L66.6206 167.567L67.2294 166.653L67.5345 165.536L67.3319 164.469L68.804 163.098L69.8195 161.22L70.3786 159.138L70.6837 157.005L70.6324 155.634L70.3273 154.619L69.4133 152.588L69.2609 151.42L69.5148 150.658L69.9211 149.846L70.2262 148.627H69.8708L69.363 149.236L68.804 149.795L68.2962 150.455L68.1439 151.268L68.3978 152.284L69.2609 154.213L69.4133 155.483L69.2609 158.327L69.0071 159.14L67.1786 161.526L66.2641 164.319L64.9434 166.044L63.5217 166.552L62.76 164.928L63.1662 163.557L64.1818 161.881L64.9947 160.003L64.7921 157.87L62.761 161.323L61.847 163.354L61.4403 165.538L61.847 170.261L61.1367 171.784L58.7502 172.343L57.0243 171.632L55.8559 169.804L55.2471 167.367L55.1958 164.929L56.5668 157.719L56.059 155.636L54.7383 159.14L54.129 156.499L54.8906 153.808L56.5668 151.726L58.7502 150.863L60.8325 150.965L61.4413 150.863L61.9491 150.457L61.7465 150.203L61.1377 150.05L60.4268 149.999L59.9703 149.847L59.6652 149.237L59.3605 149.085L59.0553 149.187L58.1408 149.491L57.6331 149.542L57.2269 149.695L56.8714 149.492L56.4652 148.629H56.059L55.602 149.696L53.9264 152.134L52.5046 153.351L52.3015 155.028L52.657 158.277L52.6057 160.003L51.5389 167.975L51.0311 169.498L50.2694 170.565L49.6606 170.768L48.7974 170.97L48.0358 171.224L47.7306 171.681L47.6296 172.137L47.3244 172.645L47.0192 173.052L46.7141 173.204L45.1395 173.305L44.3778 173.204L42.296 172.341L39.554 172.036L38.8437 171.528L39.554 170.36L40.2146 169.953L40.925 169.598L41.4841 169.191L41.8903 168.43V167.871L41.6364 167.312L41.3312 166.805L41.0266 166.602L39.9095 168.125L39.2494 168.328L38.9442 166.856L39.0453 164.825L38.9442 164.012L38.1826 162.183L38.1313 161.371L38.4364 160.557L39.0453 159.542L39.8069 158.628L40.4162 158.273L41.4318 158.171L42.5488 157.715L43.3613 156.953L43.5644 155.633L41.4318 157.003L41.1266 155.835L40.8727 152.992L39.8572 150.909V149.945L40.1623 149.031L41.2794 147.202L42.0919 146.339L43.1587 145.832L44.5809 145.629L45.6975 145.274L46.6618 144.41L47.3726 143.243L47.7276 142.075L47.4737 142.481L46.6607 143.293L46.4581 143.649L46.153 144.004L44.681 144.258L43.6141 144.766L42.2437 144.715L41.6846 144.968L40.1613 147L40.009 147.305L39.2981 147.863L38.9935 149.184L38.9422 151.925L39.0945 152.636L39.6536 153.957L39.7551 154.566L39.9074 154.972L40.11 155.226L40.2116 155.48L39.4499 156.952L39.3484 157.206L38.7893 158.12L35.1842 160.557L34.4225 161.726L32.6454 165.737L32.036 166.55L31.1728 167.311L30.1065 167.819L28.9382 167.92L27.3636 167.412L26.805 166.55L26.5511 165.331L25.9418 164.011L25.7895 165.179L25.1802 165.078L24.4185 164.214L23.9107 163.148L25.5356 162.031L27.8205 160.813L30.1055 159.238L31.8827 157.005L32.4412 153.805L32.8982 153.297L33.4568 152.79L33.9138 152.181L34.1676 151.572L34.2687 151.013L34.32 149.744L34.5739 149.49L35.0816 149.184L35.5381 148.677L35.5894 147.762L34.4723 148.423L33.9138 149.184L33.1003 151.267L31.476 154.06L31.0195 155.278L30.2065 156.801L29.2423 157.664L28.1755 158.324L24.7222 161.726L23.1989 162.487L21.7771 162.234L21.5232 160.558L23.1481 158.375L26.3973 155.277L27.6667 152.992L28.6309 150.351L29.0879 147.559L28.9351 144.715L27.9709 142.735L27.7678 141.618L28.2755 140.551L28.9864 139.434L30.2045 135.525L30.5594 135.068L31.1688 134.967L31.8796 135.068V134.612L31.219 133.901L30.2594 127.859V127.149L30.5645 126.336L30.9707 125.929L31.4328 125.829L31.8395 125.473L31.8908 124.559L29.7582 125.626L28.9453 125.423L28.4888 124.103L28.0826 125.525L28.9453 131.11V134.817L28.5903 135.832L27.1681 137.457L26.8629 138.371L26.4567 139.996L25.5427 141.468L24.222 142.585L22.851 142.991L22.6987 142.535L23.3588 141.519L24.7298 139.844L25.9479 137.253L25.6427 136.085L24.9324 136.238L24.222 137.253L23.7655 139.335L23.3588 139.995L22.8003 140.554L22.2412 140.757L21.4796 140.605L21.0231 140.249L20.6164 139.793L20.1599 139.437L18.992 139.235L18.6868 139.743L18.8392 142.281L18.7879 143.805L18.534 145.023L18.1278 145.987L15.0299 151.37L13.3543 153.401L11.4248 154.365L10.1553 154.518L9.24034 154.975L8.6818 155.939L8.47869 157.665L7.97093 158.376L6.85486 158.782H5.58544L4.72223 158.274L3.45281 159.696L2.58962 160.153L1.82796 159.645L0.304663 157.157L0.0507798 156.295L0 155.279L0.35442 148.017L1.72538 140.655L1.57306 135.831L1.77616 135.069L1.98232 134.715L2.74397 133.851L2.99785 133.344L3.91183 128.266L3.60718 124.357L3.91183 123.696L6.04446 124.357L7.41543 124.305L8.02474 123.036L8.53251 121.157L8.32941 120.243L7.21231 119.736V119.329L8.73561 118.567L9.29518 117.451L9.34596 114.251L9.44751 113.287L10.0066 111.458L10.1076 110.748L10.4133 109.784L11.5299 108.514L11.7838 107.701L11.6827 105.01L11.4288 103.943L10.6154 102.319L10.3615 101.354L10.5646 100.44L11.0724 100.135L11.6817 100.236L12.3418 100.49L13.0521 100.439L13.7625 99.8803L15.591 97.3415H14.3216L14.9304 96.3772L15.1335 95.2601L15.0817 90.8928L15.1832 90.3343L15.3864 89.6737L16.4019 88.2017L16.7568 87.3887L17.0107 86.1706L16.8579 85.1038L15.1325 84.2908L14.8268 83.5292L14.9283 82.6152L15.5884 82.0561L18.3817 83.3256L18.8382 83.123L19.092 82.7675L19.5485 82.5136L20.005 82.1587L20.1578 81.5494L19.8527 81.0417L19.3449 80.7365L18.7858 80.5339L18.4309 80.2287L18.2278 79.4163L18.4309 76.522L18.8874 75.7095L19.7501 75.5568L20.461 75.2018L20.5118 73.6785L21.3247 73.9324L22.1376 74.2371L22.848 74.7448L23.4573 75.4557L22.3905 71.1905L21.8314 64.5387H21.8827L25.9961 67.5335L27.2143 68.093L28.6863 68.2454L29.6505 68.448L30.8189 69.2609L31.7329 70.2252L32.1396 70.5303L32.5961 70.6827L33.2049 70.378L35.236 66.6708L35.9469 64.3859L36.1495 59.5621L36.4546 57.2258L36.4033 55.3471L36.5557 54.231L37.0634 53.1139L40.2116 49.5595L41.0743 47.4269L41.4297 44.0249L42.1914 41.9939L42.2929 40.7762L42.2411 39.7089L40.5655 36.6623L40.0577 35.8498L39.8551 35.4437L39.6013 34.7825L39.5002 33.8685L39.551 32.853L40.5665 30.2126L40.5157 23.6634L41.5821 18.6366L41.481 15.0314L40.8204 12.391L38.2308 7.26258L39.1945 6.44911L41.1246 4.87505L42.7489 3.80825L44.2722 3.40152L46.0494 3.80825L47.5727 4.97658L48.8939 6.34709L50.5183 7.10874H52.0928L53.311 6.04188L53.8187 4.87406L54.3265 3.29943V1.82745L54.8343 0.862683L56.0524 0.101033L57.1695 0H57.5249L58.1337 0.456445L59.098 1.5233L60.2151 2.53884L64.0233 7.46366L64.785 8.53095L65.3943 9.08954L65.699 9.69883L67.1715 10.9683L69.8626 14.0656L70.1678 14.3713L71.1321 15.0314L71.4875 15.3869L71.7922 16.0967L72.2492 17.6718L72.5538 18.2801L72.7569 18.8396L72.7051 20.2614L72.959 20.8707L73.3145 21.4796L75.5994 28.0292L75.8533 30.4158L75.2947 32.9038L76.7663 34.1214L77.8336 35.2385L78.0357 35.6447L78.0875 36.1525L77.9859 36.4064L77.732 37.9814L77.7828 40.5711L77.5289 41.5358L76.4123 42.8052L75.5994 43.5669V44.8871L76.1072 47.6798L77.0212 50.2694L78.1895 52.1995L78.7983 52.86L79.6615 53.5699L80.6771 54.1792L81.7439 54.3823L82.6584 54.8383L83.6221 55.3979L87.7361 56.9212L89.1578 57.8849L90.4272 59.5098L93.6764 64.5875L92.9661 67.4319L91.1889 71.0868L90.8334 72.3563L90.2749 74.9469L90.3257 76.7749L91.2396 80.9386L92.3567 81.751L92.7122 82.208L92.9661 82.7665L93.3215 83.4271L93.88 84.1375L95.1495 85.0515L96.6728 86.5748L97.1805 87.3882L97.7396 88.6576L98.7038 90.3333L99.5168 91.1457L99.9732 92.0607V93.2286L100.025 93.7871L99.9732 94.3461L100.126 94.9052L100.583 95.6669L101.801 96.885L103.07 98.4596L103.273 100.237L101.953 102.724L101.8 102.776V103.029L101.343 104.197V105.721L101.953 107.142L102.968 108.869L103.374 110.646L103.019 113.083L102.156 115.216L101.496 115.927L100.683 116.383L101.343 117.652L101.597 117.855L101.851 118.465L102.003 118.871L101.851 121.511L102.206 122.119L102.257 122.373L102.359 122.781L102.105 123.288L101.648 123.897L99.5157 126.081L99.2106 126.487L98.9059 127.452L99.4645 128.112L100.48 128.671L100.734 129.077L100.886 129.383L100.938 130.297L102.004 131.414L103.274 132.124L103.68 132.276L104.899 132.582H107.996L108.556 132.784L108.91 132.937L109.52 133.597L110.129 133.902L113.183 136.644Z" fill="#1592ED"/>
</svg>
