<svg width="164" height="177" viewBox="0 0 164 177" fill="none" xmlns="http://www.w3.org/2000/svg">
<path d="M30.3717 41.4857C30.3717 41.4857 28.4296 41.9232 27.6852 42.3494C26.9407 42.7696 25.2468 43.7304 24.3945 43.8329C23.5475 43.9403 22.1665 44.5773 21.2116 43.4067C20.2568 42.2415 16.6532 37.8929 16.6532 37.8929L8.69614 35.9832L4.34806 35.6649L0 36.2853L0.215798 36.7918L1.24077 38.1405H2.04996L4.80122 41.8094L5.23278 42.6186L5.8262 44.0212L5.77225 44.9382L5.34068 45.693L4.53149 46.1251L3.45257 46.5022L1.34865 46.7719L0.485529 47.1495L0.32368 47.635L0.37763 48.1745L0.593411 48.4981L0.863142 48.8758L3.7223 51.4652L4.96305 53.5691L4.9091 54.3783L4.58542 55.2414L2.58943 57.1841L1.88812 58.5327L2.04996 59.7734L3.7223 63.2799L3.93808 64.5207L3.7223 65.4918L3.45257 66.4088L3.12889 67.9733V68.6745V69.214L6.04198 74.5008L6.85117 75.5797L7.87076 76.6047H7.87614L8.90112 75.741L10.9511 74.0686L12.6773 72.9352L14.2903 72.4983L15.7469 72.8327L16.1838 72.9347L17.7968 74.176H17.8022L19.2048 75.632L20.9311 76.4412H22.6035L23.8928 75.3083L24.4322 74.0676L24.9717 72.3899V70.8308L25.5111 69.8004L26.8058 68.9912L27.9927 68.8888H27.9981H28.3703L29.0247 69.3726L30.0496 70.5055L31.2359 71.5844L35.2819 76.8172L36.0911 77.9511L36.7384 78.5445L37.0626 79.1919L38.6265 80.5406L41.4857 83.8313L41.8099 84.1555L42.8343 84.8573L43.212 85.2344L43.5362 85.9891L44.0212 87.662L44.3454 88.3088L44.5606 88.9033L44.5061 90.4138L44.7759 91.0611L45.1535 91.7079L47.5811 98.6665L47.8508 101.202L47.2568 103.845L48.8207 105.139L49.9541 106.326L50.1694 106.757L50.2239 107.297L50.116 107.566L49.8463 109.239L49.9007 111.991L49.631 113.016L48.4442 114.364L47.5811 115.173V116.577L48.1205 119.544L49.0916 122.295L50.3323 124.345L50.9797 125.047L51.8968 125.801L52.9757 126.449L54.1086 126.664L55.0801 127.149L56.1046 127.743L60.4747 129.361L61.9852 130.386L63.3339 132.112L66.7859 137.507L68.5667 134L69.8074 132.706L71.264 131.951L73.3673 130.225L74.4462 128.931L76.0646 125.856L76.8738 124.939L80.5956 122.889L81.6745 122.08L82.4292 121.378L83.2929 120.084L84.9657 118.034L85.7749 117.44L86.5297 117.225L87.1236 117.44L87.5007 117.709L87.9862 118.411L89.9817 123.266L101.688 143.712L102.227 144.845L104.493 154.879L104.87 155.85L105.355 156.606L106.272 157.792L107.513 159.735L108.268 161.407L108.807 163.942L108.862 164.859L108.538 167.934L108.7 169.607L111.937 169.931L120.298 169.337L125.963 169.822L129.415 170.523L130.278 170.793L130.818 171.117L131.357 171.549L133.407 173.922L135.78 176.026L136.752 176.35L136.374 176.08L135.458 175.595V175.11L136.321 175.218L137.724 175.542L138.588 175.596L138.103 175.057L137.725 174.517L137.455 173.924L137.24 173.276L139.398 173.762L140.1 173.33L140.585 170.308L141.771 168.205L142.149 167.234L142.094 164.374L141.123 162.001L138.588 157.415L138.156 154.448L139.181 152.56L140.853 151.157L142.148 149.539V147.326L140.475 145.87L138.262 144.467L136.806 142.471L136.374 142.094L136.59 141.824L136.914 141.555L137.291 141.285L137.668 141.123L137.831 141.555L138.316 142.149L138.586 142.473L139.07 141.501L139.61 138.859L140.312 137.834L140.366 130.174L140.851 127.961L141.452 127.686L141.992 127.416L142.531 127.309L142.746 127.254L143.448 127.47L144.311 127.524H144.581L144.797 127.416L144.959 127.254L145.121 127.146L145.336 126.984L145.713 127.039L146.253 127.201L147.169 127.525L147.925 127.687L148.087 127.633L148.356 127.849L148.734 128.172L150.19 130.168L150.405 130.33L150.783 130.546L151.916 131.03L152.617 131.138L152.995 131.3L153.48 131.625L154.397 132.434L154.829 132.974L155.045 133.728V134.429L155.098 134.699L155.153 134.915L155.207 135.022L155.423 135.886L155.638 136.047L155.854 136.155L157.147 135.886L160.87 134.159L161.949 133.405L162.812 132.65L163.081 131.841L161.733 130.87V130.06L161.841 129.683L161.949 129.359L162.002 126.662L159.9 121.159L159.522 119.703L159.414 118.732L159.63 118.3L160.439 117.221L160.601 116.844L160.979 115.549L161.14 114.038L161.033 113.229L160.871 112.69L160.546 112.42L160.114 112.258L159.791 111.988L159.466 111.449L159.521 110.856L159.466 110.316L159.304 109.831L156.499 103.95L156.337 103.249V102.764L156.661 101.955L156.931 101.578L157.146 101.253L157.74 100.714L157.955 100.444L158.171 100.067L158.441 99.2577L158.656 98.9335L158.926 98.6099L159.196 98.2322L159.95 96.5059L160.112 95.9665L160.22 94.3481L160.275 94.0244L160.437 93.5928L160.976 92.6207L161.246 91.7047V91.0574L161.084 90.5719L160.814 90.1942L160.49 89.9245L158.008 88.0914L156.983 86.9046V85.8257L157.091 85.0165V83.2363L156.821 81.9955L156.282 80.2692L155.85 79.6219L155.365 79.3522L154.933 79.4066L154.609 79.6763L154.285 80.0005L154.123 80.3243L153.907 80.9716L153.638 81.2413L153.206 81.2953L152.613 81.0255L152.288 80.649L152.073 80.2163L152.018 79.8398L152.126 78.8677L152.072 78.2743L151.856 77.8967L150.885 76.9796L150.561 76.6559L150.129 76.4401L149.05 76.0086L148.349 75.577L147.864 75.0375L147.324 74.3362L146.407 72.6628L146.083 71.7997L146.029 71.0984L146.407 70.2341L146.568 69.8026L146.676 69.371L146.73 68.7237L146.676 68.346L146.73 67.9145L147.27 65.6487L147.216 64.3L146.838 62.6817L146.784 62.1973L146.838 61.6578L146.784 60.9559L146.514 60.2541L146.244 59.8226L145.867 59.4449L145.112 58.8515L145.004 58.4739L144.897 57.9344L144.681 57.5028L144.357 57.2331L143.98 57.0713H143.386L140.257 58.0423L137.075 59.8765L136.373 60.1462L135.833 60.2001L134.754 59.8226L133.73 59.6607L133.083 59.4989L132.544 59.2831L131.734 58.7436L131.14 58.5284H130.708L130.277 58.6907L129.899 59.0144L129.468 59.3921L128.658 59.8236H128.227L127.849 59.5539L127.634 59.1763L127.364 58.2603L127.149 57.8276L126.016 56.534L125.583 55.5624L124.774 53.2422L123.049 50.1133L123.103 48.9265L124.829 46.9845L124.667 46.0134L123.803 44.7721L123.102 43.6387L122.994 42.7216L123.264 42.0203L123.803 41.4263L124.612 40.7795L127.148 39.1067L127.472 38.2975L127.364 37.9732L127.149 37.6496L126.502 37.1101L126.286 36.7325L125.909 35.8154L125.64 35.4378L125.37 35.1141L123.427 33.3339L121.377 31.8228L118.841 29.3953L117.493 27.5071L117.115 26.8054L116.9 26.1585L116.792 25.6736L116.631 25.0262L116.469 24.7025L115.929 24.4867L115.604 23.4628L115.712 23.2999L115.982 23.0302L116.791 22.4907L118.032 21.1971V20.7116L117.87 20.3339L117.493 20.1721L117.115 20.0103L116.738 19.6327L116.414 19.0393L116.037 17.4209L115.767 16.719L115.552 16.234L115.336 16.0182L115.012 15.5867L114.688 15.0472L114.256 13.9683L113.932 13.267L113.555 12.7815L113.123 12.3499L113.015 11.9723L113.285 10.7315L113.339 9.54469L113.177 8.89789L112.962 8.35843L112.637 8.03424L111.936 7.60264L111.505 7.17052L111.072 6.68558L110.587 5.76846L110.426 5.28352L110.48 4.79852L110.587 4.31359L110.695 3.66619L110.587 3.18126L110.263 2.69625L109.994 2.37206L109.023 1.02341L104.707 0.645747L103.034 0.700273L102.063 0.862599L101.577 0.916597L101.2 0.862599L100.823 0.700273L99.7438 0.430542L96.0754 0.323137L95.4815 0.215271L95.0499 0H94.8341L94.6723 0.107405L94.5644 0.323137L94.457 0.862599L94.3491 1.07787L94.1873 1.50999L94.0249 2.31918L93.9176 2.58892L93.7023 2.85865L92.6234 3.34306L92.4076 3.45099L91.7608 4.15225L91.1669 4.58437L90.7892 4.69171H90.4656L89.7103 4.47703L89.5485 4.3691L89.2243 4.04491L89.0624 3.88252L88.6848 3.66784L88.3077 3.39811L87.9835 3.07332L87.8756 2.91153L87.7138 2.74966L87.3361 2.58727L84.6388 2.26308L83.9375 1.99335L83.3436 1.72362L82.8041 1.29202L82.5889 1.18416L81.6718 0.860491L81.51 0.752559L80.8081 0.482829L80.1068 0.267624H79.6752L79.2976 0.322083L78.92 0.429423L77.5713 0.591814L77.1398 0.807085L76.9779 0.914424L76.8156 1.07682L76.6537 1.29202L76.5992 1.45389L76.5448 1.99335L76.275 2.31754L75.6811 2.64179L74.1172 2.80359L73.6856 2.74966L73.2535 2.53386L72.8764 2.31918L72.714 2.15679L72.0672 1.8326L70.2336 1.45494V2.2102L70.8804 3.50439L71.3654 5.55483L71.4733 6.68776L71.5812 7.28168L71.743 7.7138L73.2535 9.81659L73.6856 10.5184L73.793 11.1652L73.9553 12.2992V14.1323L73.6311 16.6678L73.5232 16.992L73.3614 17.2073L72.4977 17.9085L72.228 18.2333L72.1206 18.448L72.0661 18.7728L72.0117 19.2043V20.8227V21.0924L71.9038 21.3621L71.7419 21.524L71.634 21.6319L71.2025 21.9016L69.5296 20.8227L68.9901 20.7148L68.0736 20.6069H66.131L57.5541 21.8488L53.7234 21.7409L52.3747 21.9027L48.4361 23.0895L46.4406 24.114L43.0415 28.3223L38.2942 29.1855L37.2153 30.642V33.3932L37.1074 33.9327L36.8922 34.4721L36.4606 35.3364L35.5969 36.1456L32.2523 38.1956L30.6339 39.706L30.4186 40.2455L30.3641 40.5697V41.4863" fill="#1592ED"/>
</svg>
