<svg width="79" height="177" viewBox="0 0 79 177" fill="none" xmlns="http://www.w3.org/2000/svg">
<path d="M7.20727 147.194L4.78825 143.27L3.4091 142.652L3.33076 142.122L1.6101 136.901L1.09582 134.332L0.98039 133.029L0.31789 120.81L1.21817 112.956L1.10414 111.408L0.430943 108.309L0.79785 108.189L1.16522 107.988L1.49237 107.705L1.77884 107.421L2.35205 106.732L2.96356 106.532L3.53345 106.494L4.10474 106.213L4.47555 105.482L4.47951 104.79L4.36164 104.056L4.36583 103.324L4.65649 102.307L4.77809 102.389L5.022 102.431L5.22615 102.311L5.27068 101.781L5.11632 100.314L5.24235 99.6227L5.73272 99.2595L6.91086 99.592L9.99024 101.89L13.1473 104.84L13.996 105.985L14.3943 107.494L14.6301 108.961L15.1562 109.453L15.7287 108.967L16.1847 107.504L16.5574 106.366L17.2912 106.125L18.1025 106.578L18.7074 107.518L18.9508 107.805L19.2756 107.929L19.5604 107.93L19.8871 107.729L20.0096 107.648L20.0917 107.526L20.1345 107.16L20.1366 106.794L20.0577 106.428L19.8942 106.059L19.6131 105.406L19.4543 104.713L19.5394 104.061L20.4444 102.356L20.9348 101.993L21.5045 101.834L22.4016 101.513L22.2821 101.064L22.3426 97.6032L22.2641 97.2367L22.388 96.9117L22.9581 96.7114L23.4067 96.6728L24.7481 96.9252L25.6011 97.1744L26.2898 97.7081L27.0204 98.038L28.1209 97.7186L27.1941 96.1252L27.2385 95.474L27.2805 95.3928L27.5244 95.4353L28.5859 94.9527L29.0739 94.8745L29.4412 94.673L29.6891 94.0225L29.7337 93.493L29.361 87.5056L28.7628 85.3848L27.0234 83.5836L26.6214 82.7258L26.1011 81.0529L26.0674 79.8312L26.6078 77.8395L26.6957 76.6998L26.4165 75.7214L25.3288 73.8014L24.9275 72.8222L24.7716 71.7622L25.2428 67.6519L26.8376 66.277L27.0406 66.3596L27.4949 65.1818L29.2566 63.1559L29.954 62.1008L30.041 61.1245L29.762 60.1049L28.7967 58.267L28.3961 57.1653L28.1593 55.7388L28.2484 54.3956L28.8641 53.4621L30.0874 53.0208L31.0218 53.2709L31.791 53.9675L32.4362 54.9892L33.4488 55.8094L34.7513 55.7354L36.0166 55.1318L36.9576 54.3229L37.7352 53.3908L39.7519 49.4114L39.796 48.8009L39.6775 48.1894L39.6821 47.3751L40.0681 43.9162L39.877 41.757L39.9627 40.8617L40.294 40.0081L41.2373 38.7109L41.4018 38.2635L41.4459 37.8154L41.3273 37.204L41.0595 34.2299L41.1083 32.8051L42.7118 22.8792L42.638 21.2089L42.4378 20.6381L41.7512 19.7384L41.4694 19.2074L39.929 18.1806L39.1901 12.1907L39.2421 10.3587L39.084 9.54337L38.8827 9.17616L38.5992 8.92981L38.1544 8.43863L37.1468 6.7634L36.7448 5.90559L36.5049 5.00839L36.4303 3.90857L36.518 2.64638L36.8511 1.46785L37.4661 0.656989L38.77 0.216131L39.7036 0.750816L41.0744 2.83574L41.5592 3.4493L43.1777 5.04619L43.4585 5.74002L43.6167 6.39284L43.9804 6.84322L44.8749 6.97052L45.8926 6.8949L47.4435 6.0894L48.2589 5.80943L48.5837 5.93346L48.8266 6.30091L49.1089 6.58756L49.5979 6.46819L49.8842 6.22512L50.1304 5.86045L50.2952 5.49494L50.4196 5.08846L51.6038 4.3623L53.9643 4.29437L56.4448 4.5936L57.9888 5.13178L59.9274 7.66746L60.9419 8.16187L64.8507 7.73595L66.2323 8.0696L67.6121 8.56613L69.2789 8.98286L70.417 9.19297L73.216 10.7152L73.9848 11.3304L74.6712 12.2712L75.3585 13.0484L76.2127 13.0944L76.7859 12.4869L77.0677 13.0179L77.3326 16.3584L77.6121 17.2965L78.4958 19.2964L78.7729 20.6421L78.095 25.4838L77.8028 26.9073L77.3742 30.6917L77.3335 30.7729L77.2096 31.0979L77.0045 31.3818L76.6769 31.7459L76.432 31.8671L75.9847 31.8234L75.2534 31.6156L73.6721 30.6298L73.6314 30.6295L73.3471 30.5465L73.0213 30.5857L72.8581 30.6658L72.5707 31.1125L72.5621 32.619L72.9213 33.8427L73.0392 34.5763L72.7729 38.443L72.5256 38.8488L72.1175 39.0501L70.8973 38.9617L70.3665 39.2848L70.8849 41.1201L70.9213 42.0153L70.2972 44.4142L70.2533 44.984L70.4004 47.713L71.2269 52.604L71.2628 53.581L71.0475 55.6569L69.9256 59.7224L69.8814 60.3329L70.1619 60.9453L70.3616 61.5979L70.6838 62.3331L70.9083 65.7544L70.4912 67.5432L70.2445 67.9901L69.9098 69.4541L70.501 72.796L70.892 75.5676L71.412 77.2803L71.4875 78.1766L71.2733 80.0488L71.8534 85.3456L71.7686 86.0781L71.2318 87.2966L71.3526 87.6633L71.9623 87.7894L72.4089 87.9544L72.5693 88.3625L72.4024 89.0945L71.2927 90.8802L71.127 91.5307L71.1217 92.4676L72.4647 99.3975L72.4589 100.415L72.2899 101.636L71.2594 103.951L71.0496 105.049L72.1277 108.516L72.4883 109.495L72.5685 109.699L72.5666 110.025L72.4018 110.391L71.5856 110.793L71.0953 111.157L70.7674 111.562L70.3107 113.147L70.0886 116.403L70.2396 118.318L70.9628 120.073L72.8544 123.586L75.0709 127.344L75.9575 128.856L76.1987 129.509L76.1936 130.405L75.9445 131.259L73.5138 136.498L72.5845 142.438L71.1443 145.239L72.3168 146.426L74.2639 147.618L74.9117 148.191L75.2335 148.845L75.4314 149.823L75.5341 153.203L75.4048 154.465L75.0732 155.522L71.9488 161.083L71.5707 163.158L71.69 163.647L73.2578 166.995L73.6165 168.177L74.0108 170.378L74.2909 171.194L74.6939 171.888L76.0671 173.687L76.2274 173.973L76.3071 174.258L76.3463 174.666L75.9364 175.193L74.8746 175.717L70.7182 176.752L69.336 176.663L68.4814 176.535L64.9557 174.153L64.4306 173.336L63.2169 172.107L62.4873 171.615L61.6749 171.366L60.2927 171.276L59.9678 171.03L59.7271 170.418L59.5688 169.643L59.2092 168.623L59.0081 168.215L58.8877 167.93L58.1619 166.623L57.4358 165.519L56.7071 164.863L56.2207 164.534L54.4722 164.321L53.4105 164.967L53.0807 165.576L52.8326 166.266L52.5714 169.238L52.6081 169.93L52.6877 170.256L52.8081 170.542L53.0099 170.827L53.1706 171.195L53.3346 171.401L53.9785 172.789L54.1372 173.36L53.9722 173.888L53.5632 174.252L52.5024 174.613L51.8897 175.017L50.786 175.906L50.1749 176.025L49.4033 175.898L48.3891 175.363L47.4951 175.154L46.4776 175.189L45.2137 175.63L43.9125 175.46L40.9094 174.059L33.6532 169.253L32.8018 168.556L32.3575 167.984L32.1564 167.575L31.7595 165.822L29.4486 164.343L29.0454 163.689L28.6434 162.831L28.1036 157.615L27.824 156.84L27.3385 156.349L18.8034 154.59L17.9486 154.504L17.3378 154.581L16.8067 154.945L15.6205 156.159L15.0485 156.563L14.4784 156.641L13.7894 156.312L12.8175 155.492L12.173 154.348L11.7297 153.45L11.3291 152.348L10.1604 150.509L7.20727 147.194Z" fill="#1592ED"/>
</svg>
