<svg width="100" height="177" viewBox="0 0 100 177" fill="none" xmlns="http://www.w3.org/2000/svg">
<path d="M39.4502 55.3323L39.879 54.8462L41.8229 52.101L42.0799 52.0152L42.423 51.958L42.8807 52.1296L43.1377 52.3586L43.4235 52.4727L43.8523 52.3012L43.9953 52.0724L44.3383 51.1285L44.3952 50.8425L44.2237 50.4708L43.9089 50.242L43.5942 50.0701L43.3652 49.8131L43.2795 49.4982L43.2506 48.8405L43.0508 48.5546L42.1071 47.6109L36.5326 40.7194L35.705 39.4331L35.5621 38.7468L36.0198 37.6888L35.9626 37.1741L35.8197 36.8595L35.7056 36.1732L35.6767 35.8301L35.5627 35.5155L35.191 34.9436L35.0481 34.6005V33.857L35.334 33.1421L35.7916 32.513L36.3345 32.0269L37.7067 31.1404L38.3073 30.6543L39.4797 29.2531L39.9085 28.996L41.5094 28.5382H41.7383L41.8524 28.3952L41.9096 27.9377L42.0236 27.5373L42.2523 27.3658L42.9384 27.137L43.1382 26.9368L43.4241 26.4221L43.6242 26.2791L43.9959 26.1647L44.3106 26.0218L46.0258 24.5634L46.5687 23.9626L47.0264 23.3907L47.4263 23.0189L48.0552 22.733L48.7127 22.59L49.2556 22.6472L49.6555 23.1047L49.6844 23.5625L49.8273 23.8196L50.5709 23.5625L51.2287 23.2194L51.3716 22.962L51.3144 22.5331L51.2856 21.7324L51.4574 21.1319L52.0291 20.1022L52.2009 19.5875L51.9719 18.5866L50.2856 16.8997L49.8279 15.9847L50.028 14.7551L51.0574 12.5532L50.8856 11.581L51.2287 10.9233L52.4579 10.2656L52.7438 9.92241L52.9725 9.15032L53.4302 9.00735L54.0877 9.09313H54.7455L55.1454 8.69308L55.2883 7.94931V6.60531L55.23 6.26216L55.1157 5.94761L55.0588 5.60475L55.2306 5.28991L55.7452 4.74688L55.9453 4.46092L56.0593 4.06058L56.517 3.48867L57.0316 2.20187L57.4032 1.57276L57.8892 0.343147L58.5181 0L59.2614 0.486125L60.0049 1.57276L60.8337 2.03058L61.7773 1.45866L62.7779 1.00085L63.7784 1.83012L65.1506 5.63334L66.0371 6.71998L67.1234 7.00593L69.2674 6.06228L70.5538 6.6056L72.1833 8.63589L73.3557 9.29359L73.8414 9.72252L73.8702 10.3233L73.5555 11.3242L73.7831 11.6953L75.1552 11.8955L75.7559 12.2101L78.1569 14.3261L78.4427 14.9266L78.4716 15.6129L78.2998 18.8443L78.1569 19.5877L77.757 20.3884L77.9856 20.7888L79.1863 21.4179L79.758 21.9326L80.158 22.5331V23.0764L79.4722 23.391L78.9004 23.7913L79.0722 24.4204L79.644 25.0781L80.8163 25.793L80.9593 26.1361L80.9021 26.5937L80.8732 27.3086L81.0162 27.6517L81.2451 27.8233L81.3309 28.0523L81.0162 28.9102L81.1022 29.2248L82.2457 30.9405L82.8174 32.0843L83.5321 34.8867L84.1896 36.1163L85.362 36.6024L86.5624 36.2593L87.2484 35.4014L87.5629 34.2865L87.7347 33.1138L87.7058 31.7701L87.8202 31.0838L88.1629 30.7978L88.5629 30.9122L90.3641 31.7701L90.9648 32.2559L91.9939 31.7984L92.7374 32.2845L93.4521 33.6854L93.9098 34.1143L94.8243 34.0857L95.2245 33.8856L95.5673 33.6285L95.882 33.4283L96.282 33.3994L96.5967 33.5713L96.9114 33.9144L97.2262 34.3145L97.398 34.6293L97.4549 35.4011L97.1121 36.8309L96.9978 38.3179L97.2268 41.5206L97.3125 41.8923L97.5412 41.9781H97.7985L97.9983 42.15L98.3703 43.2938L98.2559 44.4948L97.4272 46.8966L97.1985 47.9546L97.1413 49.0985L97.5132 51.4719L97.7991 52.101L98.199 52.3012L98.6567 52.4727L99.1713 52.9589L99.4002 53.6738L99.1713 54.3315L98.7996 54.9323L98.5426 55.6183L99.3142 58.7924L99.3431 59.1072L99.229 59.479L98.743 60.0223L98.6001 60.4223L98.7142 61.1086L99.5432 62.281L99.829 62.9388L99.8002 63.6825L99.2853 65.0265L99.1996 65.77L99.6852 66.9424L99.7141 67.2284V67.5432V67.8578L99.8282 68.2009L100 68.9447L99.7713 69.6307L99.0566 70.8317L98.8276 72.0613L98.6847 76.751L98.5706 77.437L98.342 78.095L98.0272 78.7238L96.655 80.2397L96.3692 81.0115L96.1973 81.6978L96.1116 82.2983L96.3114 82.6414L96.9972 82.5273L97.312 82.8419L98.1407 84.5862L98.2836 85.1581L98.1118 85.5013L97.826 85.7015L97.6261 85.9302V86.674L97.426 86.96L96.1968 87.9319L95.7108 87.9891L95.511 87.5602L95.5398 86.2734L95.3397 86.2162L94.7391 86.4164L93.3958 86.7309L92.967 87.1312L92.7952 87.6746L92.8521 88.3034L93.0811 88.9042L93.7386 90.191L93.8815 90.8487L93.8246 91.6494L94.0533 92.1072L94.4249 92.1641L94.8252 92.1072L95.2251 92.2213L95.5398 92.5644L96.6544 94.1658L96.9692 94.8807L97.1407 94.995L97.5695 95.1666L97.7413 95.3668L97.8271 95.8246L97.7702 96.3104L97.5701 96.7683L97.3414 97.1114L95.569 98.4551L94.9973 98.6553L94.6802 98.6261L94.3658 98.4543L93.3652 98.0825L92.5934 97.4534L92.1646 97.2818L91.5639 97.3104L91.164 97.5678L90.3636 98.4543L89.9059 98.8546L89.62 99.4837L89.1623 100.713L88.9053 100.971L88.6483 101.171L88.4482 101.4L88.3625 101.829V102.287L88.2481 102.573L86.9617 104.117L86.7619 104.545L86.3331 106.147L85.99 106.69L85.5043 107.062L84.7896 107.405L84.0178 107.662L83.589 107.605L82.5596 106.633L82.045 106.376L79.2432 105.404L78.9004 105.461L78.8433 105.919L78.8721 107.663L78.7003 108.235L78.3001 108.692L77.6712 109.235L77.4997 109.492V109.722L77.6712 110.665L77.8141 110.98L77.9285 111.352L77.8713 112.725L77.9285 113.21L77.8141 113.496L77.1566 113.611L76.6706 113.954L76.2132 114.726L75.6126 116.27L75.241 116.641L73.8116 117.327L73.2688 117.699L71.6965 119.615L71.0104 120.015L70.2668 120.101L69.9241 119.815L69.6951 119.3L69.2952 118.7L68.0376 118.071L67.2658 118.928L66.437 121.788L65.6655 123.418L65.0937 124.247L64.5506 124.647L63.9219 124.847L63.779 125.162L63.9788 126.449L63.9205 128.938L64.092 130.11L64.6069 131.197L65.8933 132.169L66.2932 132.741L66.0362 133.456L65.4645 133.742L64.7209 133.77L63.3205 133.513L62.5486 133.627L61.805 134.113L60.49 135.2L58.1745 136.687L58.0604 137.459L58.2602 142.005L57.4026 146.896L57.3738 147.725L57.6027 148.011L60.3757 147.61H61.2047L61.7193 147.696L61.9763 147.954L62.1481 148.296L62.2622 148.697L62.3193 149.04L62.5194 149.469L63.1481 149.926L63.4051 150.269L63.4339 151.041L62.9194 151.241L62.2047 151.327L61.6618 151.699L61.8905 152.643L64.4345 153.53L64.6063 154.817L64.4345 155.103L64.1775 155.302L63.9491 155.531L63.863 155.932L63.9491 156.36L64.4348 156.989L64.5777 157.361L64.4919 158.219L64.0631 159.02L57.4881 165.597L58.0598 166.283L59.432 166.855L60.6896 167.742L60.8897 168.027L61.0326 168.371L61.2044 169.057L61.6332 168.456L62.0049 168.256L62.0909 168.885L61.7762 169.542L61.5761 169.8L60.9755 170.114L59.918 170.515L56.4304 171.144L55.9727 171.287L54.2006 172.545L53.4287 172.631L52.9999 172.573L52.857 172.545H52.7429L52.4282 172.745L51.5706 173.603L51.2558 173.46H51.1421L50.9419 173.488L50.7421 173.66L50.6281 173.803L50.542 173.946L50.5131 174.06L50.3991 174.146L50.2561 174.203L49.7133 174.06H49.5126L48.9697 174.146L48.7124 174.232L48.4837 174.318L48.2264 174.547L47.7974 174.948L47.6833 175.034L47.5692 175.091L47.3971 175.12L47.1401 175.148L46.1107 175.12L45.7391 175.205L43.1374 176.32L41.9081 176.291L41.222 176.349L40.9362 176.32L40.4788 176.262L40.2498 176.177L40.1357 176.063L40.0217 175.891L39.9076 175.519L39.8787 175.291L39.9356 174.49L39.907 174.347L39.5923 174.061L38.3916 173.689L36.7908 173.374L36.219 173.403L35.7902 173.575H35.6184L32.3878 172.545L32.3589 172.516L32.1874 172.287L32.1302 172.059L32.1591 171.887L32.2448 171.744L32.4738 171.601L35.3325 170.543L35.7613 170.257L36.133 169.914L36.5329 169.228L36.9328 168.113V166.969L36.7899 166.14L36.504 165.339L36.3325 164.481L36.1035 164.081L35.8748 163.909H35.6193L35.2473 164.052L34.9046 164.338L34.7045 164.624L34.4475 164.767L34.0756 164.796L33.6756 164.654L33.047 164.31L30.5307 162.537L29.7875 161.651L29.473 161.022L29.3587 159.306L28.5871 158.419L27.8724 157.047L27.3296 156.618L26.7578 156.017L26.4148 155.359L26.3007 154.53L26.3296 150.727L26.4436 150.384L26.7295 150.012L27.7012 149.24L28.0159 148.496L26.8436 147.81L26.4436 147.696L25.7853 147.582L25.0706 147.41L20.0679 145.494L19.0104 145.437L17.2092 145.923L15.0651 146.238L14.6935 146.381L14.4648 146.581L14.2075 146.838L13.8931 147.038L13.55 147.009L13.207 146.638L12.95 146.266L12.6352 145.923L11.2347 144.78L10.2914 143.779L10.1484 143.55L9.06212 140.576L8.29026 140.204L5.08851 139.489L4.48789 139.26L4.05909 139.032L3.68746 138.688L3.34441 137.945L1.57229 132.454L0 128.766L0.743554 128.308L1.9728 127.822L3.11628 127.507L4.43158 127.107L5.06049 126.764L5.43213 126.478L5.718 126.163L5.9181 125.82L6.06104 125.592L6.23256 125.477L6.40437 125.506L6.54731 125.649L6.63336 125.821L6.66194 126.05L6.60505 126.336L6.34805 127.194L6.17625 127.565L5.97613 128.109L5.94727 128.509L6.03331 128.823L6.23314 129.024L6.51901 129.081L6.83375 129.052L7.20566 128.88L7.43437 128.651L7.63447 128.451L7.8343 128.022L8.12017 126.535L8.14904 125.878L8.00611 124.705L7.5773 123.675L6.83375 122.417L5.08965 120.301L4.71802 118.814L4.23204 112.066L4.40384 108.92L4.77576 107.49L5.1474 107.061L5.40439 107.004L5.63337 107.09L5.97613 107.376L6.23314 107.633L6.43324 107.919L6.69025 108.148L6.97612 108.262H7.31916L7.57616 108.09L7.77626 107.833L8.06214 107.462L8.51953 106.918L10.5206 105.432L11.2067 104.746L11.6067 104.031L11.7207 103.316L11.3488 102.229L9.51951 100.113L9.23364 99.5126L8.8337 97.8826L8.1762 96.51L8.14733 96.0525L8.23309 95.4806L9.94832 91.4772L9.97719 91.4483L10.0632 91.3914L10.2631 91.2485L10.5489 91.0483L10.8637 90.7334L11.1207 90.3617L11.2925 89.1321L10.8065 86.3583L10.0349 85.2434L9.80595 84.7L9.57726 83.8136L9.06269 82.9843L8.54783 82.4124L8.37574 82.0406L8.31885 81.1256L8.17591 80.5537L7.804 79.9246L5.9747 77.4939L5.8029 77.1508L5.71713 76.7507V76.4359L6.17482 75.7782L8.06186 75.3207L9.00523 74.9775L9.86284 74.5486L10.4635 73.9767L10.6353 73.6335L10.6922 73.4905L10.4063 71.7176L10.2345 71.2029L10.0058 70.631L9.63415 70.1163L9.09099 69.5443L8.40518 69.0296L7.37576 67.9999L7.11876 67.4852L7.2617 66.999L7.89062 66.456L12.2927 63.8824L12.4357 63.6534L12.4929 63.3963L12.5214 61.7946L12.7504 61.5087L13.1792 61.2799L14.1226 61.0798L14.6086 60.9082L14.8945 60.565L14.9513 59.9073L15.0657 59.3926L15.3516 58.9065L15.5231 58.4775L15.3516 58.1916L14.1509 57.5053L13.6932 57.1907V56.9334L14.1792 56.7335L17.2377 56.7621L19.182 57.2196L19.6965 57.3915L20.2971 57.5056L20.8978 57.5345L26.901 56.7052H28.7303L29.5591 56.5622L31.7031 55.8762L35.5055 55.6188L38.1352 55.819L38.5929 55.7618L39.0217 55.6188L39.3076 55.4759L39.4502 55.3323Z" fill="#1592ED"/>
</svg>