<svg width="110" height="115" viewBox="0 0 110 115" fill="none" xmlns="http://www.w3.org/2000/svg">
<path d="M88.1774 29.5701L88.2865 30.5494L89 33.3733L87.629 33.6032L87.0252 34.4678L86.9698 35.7942L87.1349 37.2352L87.3537 38.158L87.5725 38.5044L87.6279 38.9073L87.1892 40.002L86.6408 40.7519L84.4473 42.7693L82.2537 45.9396L82.3085 46.4577L82.8021 47.8405L82.9112 48.5905L83.2951 50.3197L84.2268 51.7025L84.8306 52.9135L84.2822 54.3546L83.6784 54.6428L82.9112 54.5845L82.3074 54.6992L82.0332 55.4491L82.4171 56.1402L84.1714 57.6395L84.7752 58.2741L85.2682 59.6569L85.4332 60.9833L85.1037 66.632L84.7198 67.6696L83.7327 68.8224L79.6751 72.1079L78.9617 73.4913L78.523 76.2581L78.03 77.4109L77.0977 78.4484L75.7267 79.486L75.0692 80.1776L75.3434 81.0422L76.8235 82.5986L78.4133 83.8667L79.1267 84.616L79.4009 85.5383L79.1267 87.441L79.1821 88.0756L80.0047 90.7271L80.1692 92.0534L80.2246 93.6679L80.5542 96.3765L81.3214 99.2585L81.7601 102.199L81.2671 105.138L80.8284 105.945L80.6633 106.118L80.3343 106.003L77.2085 106.926L73.6993 106.811L72.4375 107.272L67.8858 110.443L65.3084 111.768L62.2374 111.654L60.5922 112L59.8788 111.885L59.1659 111.424L58.8917 110.905L58.7266 110.271L57.3556 108.08L56.8072 107.677L56.3142 107.619L55.4916 105.083L54.7244 102.143L54.6147 101.913L54.3959 101.509L53.7922 100.76L53.518 100.126L53.1889 99.0873L52.8051 98.4533L52.5863 98.2227L52.2567 98.0497L51.5986 97.8769L45.7857 97.9921L43.4824 97.7615L41.3985 97.3005H41.1249L40.3577 97.4733H40.1383L39.8641 97.4157L39.3157 96.6087L35.5324 88.8855L35.3136 87.3862L33.8329 84.9653L33.1754 84.2742L32.956 84.2159L32.7372 84.1007L32.5727 83.9277L32.463 83.6978L32.4076 83.3513L32.5727 82.545L32.7915 81.9686L32.7361 81.6804L32.627 81.2775L31.749 80.2393L31.3098 79.7776L30.706 79.0865L30.213 78.0484L29.6646 76.6074L29.5001 75.8016L29.4447 74.5334L29.5001 74.0724L29.0608 72.6313L28.842 70.8433L29.0071 70.0939L28.9517 69.8057L28.7866 69.4599L28.3479 68.8247L28.1291 68.4224L27.964 68.0189L27.6898 67.1543L27.3065 66.2896L26.2097 64.618L25.6613 64.0416L25.1683 63.6958H24.8387L24.6199 63.5805L24.4011 63.5229L23.8527 63.0606L23.6877 62.9465L22.9748 62.5995L22.8097 62.2537L22.6452 61.5619L22.4264 60.0633L21.878 58.507L21.7129 58.1605L21.1645 56.7778L21 55.9132L21.2742 53.7804L22.864 52.1665L25.2221 49.0539L26.9769 45.366V43.1751L26.4839 41.7341L25.3871 40.0049L25.1129 39.3702L24.8941 38.7938V38.5056L24.9495 38.1597L25.114 37.4093L26.1011 34.9895L27.6915 32.3369L29.9942 29.5136L33.5587 26.401L40.6878 21.9627L41.1271 19.657L41.2916 11.9343L41.8954 11.1844L42.1142 10.7815L42.718 6.74666L42.4438 4.3822L42.8271 3H44.1432L44.7464 3.17288L46.1174 3.6911L46.6658 4.20925L46.94 4.61278L47.1051 5.36207L47.1599 5.76559V6.28374L47.1051 6.74546V7.20662L47.1599 7.6677L47.325 8.53231L47.5438 8.93584L47.818 9.22405L48.696 9.80046L49.1347 9.97334L49.6277 10.0887L50.2858 10.1463L52.6981 9.6287H53.1374H53.5207L53.8503 9.68633L54.1799 9.51338L54.4541 9.22517L54.8374 8.41819L55.1116 7.26537L55.9896 6.11255L57.5794 5.59497L57.689 6.51721L61.1982 10.7826L62.1305 10.8968L62.8434 10.8391L63.2826 10.7238L63.7213 10.5509L64.0509 10.2627L64.3805 9.9169L64.6547 9.68633L64.8735 9.51338L65.2031 9.39812L65.5864 9.3405L65.9703 9.51338L66.3536 10.0316L67.2859 12.279L68.273 13.5471L68.7666 13.9506L69.2053 14.18L69.809 14.2953L70.0832 14.4105L70.3574 14.7564V15.3916L70.2478 15.9092L69.0956 18.7913L68.8214 19.7147L68.6569 20.5793V20.9251L68.8214 21.271L69.2053 21.6745L69.9725 22.1932L70.5208 22.5961L71.0144 23.2307L71.7816 24.6136L72.0558 24.96L72.9338 25.5364L74.579 25.7664L79.6236 27.1492H80.2274L80.6661 26.861L80.9957 26.5151L81.3253 26.2846L81.7086 26.1693L82.257 26.2846L82.915 26.5728L84.2306 27.4374L84.9984 27.6103L85.6559 27.6691L86.0952 27.5538L86.4785 27.6115L86.9715 27.842L87.5199 28.2455L87.8495 28.7066L88.1774 29.5701Z" fill="#1592ED"/>
</svg>
