<svg width="110" height="115" viewBox="0 0 110 115" fill="none" xmlns="http://www.w3.org/2000/svg">
<path d="M49.0911 27.3931L49.3378 28.3396L49.6024 29.1559L49.1437 29.0819L49.2849 29.3602L49.7258 29.8054L49.9725 30.2322L50.0607 30.5846L50.5545 31.661L51.0836 32.5517L51.1541 33.0528L51.1717 33.5907L51.2952 34.1661L51.5775 34.6857L52.0006 35.1496L52.4593 35.502L52.8824 35.7618L53.094 35.5948L53.1822 35.428L53.57 34.2958L53.6053 34.2402L53.852 34.1845L54.9279 34.6484L55.1924 34.8152L55.3335 35.1676L55.3157 35.5944L55.1572 35.947L54.8397 36.0954L54.7866 36.3181L55.0161 36.8006L56.1093 38.3968L56.1975 38.5634L56.2153 38.6933V38.8976L56.2684 39.176L56.4624 39.603L56.4976 39.8624L56.4798 39.9923L56.3916 40.2149L56.3738 40.3263L56.3916 40.5306L56.4798 40.5493L56.568 40.5306L56.6562 40.5865L56.956 40.7349L56.9911 40.8277L57.0614 41.106L57.3612 41.9039L57.4494 42.0338L57.5198 42.1454L57.6258 42.4237L57.6787 42.7021L57.5905 42.8318L57.5376 42.8876L56.9556 43.2957L56.356 44.4091L56.2149 44.7616L56.4973 45.875L56.0211 45.949L56.1797 46.2643L56.4442 46.487L56.6558 46.7653L56.7618 47.0808L56.8851 47.3591L57.3965 47.823L57.5729 48.0643L57.6258 48.287V48.5653L57.6436 48.8622L57.7847 49.1964L57.9788 49.4747L61.471 52.9266L61.7886 53.1491L62.2824 53.3905L62.5118 53.539L62.6882 53.7616L62.7942 54.114L63.2702 54.8932L63.4818 55.5614L63.6229 55.8769L63.9052 56.1922L64.1875 56.359L64.505 56.4705L64.7517 56.6373L64.8751 56.9715L64.8573 57.2499L64.787 57.7507L64.8399 58.0478L64.9986 58.2892L66.815 60.1077L67.1499 60.312L67.5557 60.6644L68.2962 61.8149L68.7724 62.1673L68.596 62.3716L68.5079 62.6312L68.543 62.8355H69.1073L69.1251 63.0211L69.0191 63.2252L68.9309 63.318L69.2133 63.8377L69.5129 64.1348L69.8656 64.2645L70.9059 64.2833L71.3292 64.4132L71.717 64.6726L72.105 65.0808L72.3342 65.4334L72.6869 66.2126L72.9164 66.5097L73.0396 66.8251V67.2148L73.1278 67.5488L73.4629 67.7158L73.6569 67.8643L73.7981 68.1797L73.9745 68.8478L73.71 68.6436L73.4631 68.5694L73.3045 68.6811L73.2516 69.0152L73.3398 69.3121L73.5339 69.4237L73.7281 69.5165L73.8867 69.7021L73.8336 69.9615L73.569 70.2588L73.2342 70.4811L72.9167 70.5739L72.67 70.9639L72.4936 71.4089L72.5287 71.8361L73.1638 72.3557L73.2698 72.6153L73.4283 73.246L73.7107 73.6913L74.4512 74.2291L74.751 74.6745L74.8391 74.8971L74.8921 75.1196L74.8744 75.3239L74.8039 75.5835L74.8217 75.825L74.9451 76.0662L76.2325 77.9031L76.4089 78.3301L76.3736 78.5713L76.1622 79.0723L76.1973 79.3135L76.4618 80.0001L76.7794 81.6888L76.9027 82.0413L77.3085 82.3382L77.6612 82.0786L78.2784 81.058L79.5658 79.9816L79.8481 79.4249L80.0245 78.4601L80.2008 78.089L80.6417 77.6992L80.7299 78.4973L81.1179 78.9053L81.6117 79.2395L81.9822 79.8149L82 80.2417L81.7884 81.2623L81.6824 82.32L81.5766 82.6912L80.977 83.4334L80.7124 83.8602L80.5892 84.3241L80.5361 84.8068L80.5539 85.3635L80.4479 85.5678L79.9541 86.1614L79.7778 86.2913L79.4429 86.347L79.3016 86.2354L79.1783 86.0686L78.9314 85.9571L77.6266 85.7715L77.2561 85.7903L76.8152 86.0129L76.6388 86.4028L76.4978 86.8667L76.2154 87.3306L75.9687 87.5531L75.8102 87.6459L75.6338 87.6647H75.3693L75.1398 87.5904L74.8931 87.4791L74.6464 87.442L74.4522 87.6275L74.5226 87.943L75.0869 88.8151L75.228 89.279L75.1576 89.6869L74.9109 90.5962L74.9287 91.1714L75.0698 92.1553L75.0347 92.5631L74.3644 94.9198L74.3115 95.4765L74.4175 96.7198L74.3822 98.0558L74.876 101.544L74.9113 102.713L74.7171 103.808L74.1704 104.495L74.0999 103.994L73.7824 103.623L73.3594 103.363L72.9185 103.159L72.5127 103.382L72.1778 103.53L71.4195 103.697L71.2782 103.808L71.2606 103.994L71.3487 104.384L71.3135 104.588L71.2075 104.718L71.0133 104.829L70.9955 104.866L70.9426 104.94L70.8897 105.07L70.8544 105.181L70.9073 105.256L71.0486 105.33L71.1719 105.441L71.225 105.571V105.923L71.1719 106.072L71.0308 106.128L70.7133 105.998L69.9901 105.515L69.6021 105.367L69.1262 105.274L68.8616 105.33L68.1209 106.48L67.8035 106.814L67.433 107H67.273L67.2552 106.777L67.3081 106.295L67.2552 105.998L67.0436 105.385L66.9025 105.07L66.7965 104.958L66.3735 104.661L66.3031 104.624L66.1618 104.495L65.9855 104.29L65.5799 103.715L65.4035 103.344L65.2272 102.935L64.9097 102.36L64.8037 102.249L64.5743 102.082L64.4861 101.952L63.7807 100.375L63.7278 100.282L63.3929 99.9478L63.1987 99.688L63.0753 99.4656L62.8989 99.0016L62.846 98.9089L62.7929 98.8348L62.74 98.779L62.5284 98.5747L62.2991 98.4079L61.9286 98.0555L61.8583 97.9439L61.823 97.8324L61.8408 97.5171L61.823 97.3503L61.7701 97.2388L61.7348 97.1648L61.6819 97.1276L61.629 97.072L61.4526 97.0161L61.3645 96.9974L60.8705 96.5335L60.2711 96.3479L60.1476 96.1438L60.1125 95.9582V95.8283V95.7356L60.1829 95.5871L60.2007 95.4015L60.2358 95.3273L60.2711 95.2716L60.3945 95.1601L60.4474 95.1043L60.4827 94.9745V94.8818L60.4474 94.789L60.2889 94.5294L60.2536 94.3626L60.2358 94.1583L60.2182 94.0098L60.1651 93.8981L60.024 93.6198V93.49L60.0418 93.3414L60.024 93.2486L59.9887 93.1189L59.7066 92.4694L59.5302 92.1353L59.4771 91.9127L59.389 91.1518V90.725L59.442 90.6507L59.4771 90.5394L59.4949 90.3538L59.4597 89.5928V89.5001L59.4949 89.426L59.5302 89.3518L59.5653 89.2961L59.6006 89.2221L59.6357 89.1293L59.6535 89.0178V88.7023V88.6285L59.6888 88.5542L59.7239 88.4802L59.7591 88.4243L59.812 88.3687L59.8824 88.2945L59.9355 88.1649L59.9884 87.9422V87.8124V87.701L59.9355 87.6082L59.7413 87.3485L59.6884 86.9033L59.6179 86.7177L59.1948 85.9942L59.1066 85.8087L59.1419 85.6043L60.0415 85.4557H61.2229L61.3814 85.4371L61.4874 85.3815L62.1224 85.1959L63.0042 85.1588L63.1628 85.1959L63.5685 85.511L63.6389 85.5481L63.7271 85.5852L63.8856 85.6223L63.956 85.6594L64.1502 85.7522L64.3618 85.8261L64.4676 85.845L64.5558 85.8079L64.644 85.678L64.697 85.5296L64.7499 85.4739L64.8203 85.4178L64.9085 85.3622L65.0497 85.3251L65.1557 85.2694L65.4203 85.0653L65.667 84.9354L65.7552 84.8239L65.7903 84.7311L65.7373 84.2859V84.2302L65.7021 84.156L65.667 84.1003L65.3846 83.8777L65.0672 83.5622L65.0141 83.5066L64.979 83.4325L64.9259 83.2839L64.8908 83.2098L64.8378 83.1729L64.7849 83.1171L64.7145 83.0801L64.6614 83.0243L64.6438 82.9315L64.6789 82.7647L64.6967 82.6531L64.6789 82.5416L64.6438 82.3748L64.626 82.3008L64.5907 82.2267L64.5378 82.1709L64.5025 82.1152L64.4496 82.0595L64.3083 81.9853L64.2554 81.9484L64.2024 81.8925L63.9202 81.4473L63.726 81.2247L63.6557 81.1877L63.444 81.0762L63.2855 81.0393L63.2151 81.0022L63.1448 80.9651L63.0917 80.9281L63.0388 80.8723L62.9857 80.8166L62.9679 80.7426L62.915 80.5757L62.8268 79.7407L62.7033 79.2581L62.6683 78.9797L62.6152 78.8311L62.5801 78.7754L62.527 78.7383L62.4566 78.757L62.2625 78.8498L62.1743 78.8686L62.1039 78.8873L61.5398 78.8502L61.3812 78.8133L61.2931 78.7762L61.24 78.7391L61.1696 78.7021L61.1343 78.6463L61.0992 78.5722L61.0462 78.4982L60.9403 78.0899L60.9051 78.0343L60.8169 77.9044L60.764 77.8487L60.658 77.7372L60.5346 77.6632L60.4642 77.626L60.0937 77.4963L60.0233 77.4594L59.9529 77.4223L59.9177 77.3666L59.8824 77.2924L59.8473 77.1256L59.7942 77.014L59.706 76.7544L59.7942 76.2165L59.6002 76.1606L58.7536 76.5689L58.5068 76.6246H58.3483L58.2952 76.5689L57.6076 75.8454L57.3784 75.6598L57.2902 75.4928L57.1489 75.3631L56.9904 75.2516L56.7962 75.1959L56.6022 75.3256L56.5491 74.806L56.4962 74.732L56.4259 74.6578H56.3728L56.3377 74.6765L56.1261 74.7322L56.0201 74.7509H55.9143L55.7026 74.714L55.5966 74.6399L55.5085 74.5472L55.191 74.1202V74.0645L55.2439 73.9346V73.8231L55.2088 73.6563L55.1558 73.5635L55.0854 73.4895L54.7149 73.3408L54.3093 72.8583L53.6217 71.9305L53.5157 71.7262L53.4804 71.5594L53.4453 71.1883L53.3922 70.8541L53.4275 70.5757L53.4097 70.2417L53.057 69.7778L53.0217 69.685V69.5364L53.0395 69.4251L53.0573 69.2395L53.0221 69.1278L52.987 69.0539L52.7401 68.8684L52.6168 68.7385L52.5108 68.5158L52.4226 68.3673L52.2641 68.163L52.211 68.0333V67.9406L52.2641 67.7735V67.6808L52.2288 67.2169L52.2819 66.9385L52.2997 66.7529L52.2819 66.6602L52.2641 66.5861L51.8232 66.0294L51.7701 65.9179L51.735 65.8251L51.629 65.0272L51.6468 64.8416L51.6819 64.7117H51.7701H51.8407H51.9288L51.9817 64.6932L52.0521 64.6373L52.0874 64.5446L52.1403 64.4518L52.1756 64.2662L52.1403 64.1365L52.1052 64.0066L52.017 63.8582L51.9992 63.7466L52.017 63.6538L52.0699 63.598L52.1934 63.5423L52.2992 63.4681L52.3344 63.4495L52.4048 63.3011L52.4226 63.1712L52.4579 63.0784L52.5108 63.0042L52.5812 62.9673L52.6517 62.9485L52.7399 62.8929L52.9162 62.5774L52.9691 62.4289L52.9513 62.3362L52.9335 62.2619L52.8275 62.0578L52.4926 61.0372L52.7394 60.6474L52.7572 60.4248L52.7043 60.1834L52.5983 59.8863L52.563 59.7936L52.3866 59.2183L52.369 59.0513L52.3866 58.94L52.4397 58.8657L52.563 58.7544L52.6512 58.6616L52.7572 58.4573L52.7394 58.3274L52.7043 58.1606L52.5457 57.7707L52.4926 57.678L52.4397 57.6223L52.4045 57.5664L52.2812 57.4551L52.2281 57.418L52.1577 57.2883L51.9285 56.7685L51.8403 56.6388L51.7872 56.5829L51.7169 56.4532L51.4876 55.6551L51.4172 55.1725L51.3467 54.9129L51.2763 54.7644L51.1703 54.6158L51.1352 54.5043L51.1174 54.3929L51.3998 53.0752L51.382 52.9637L51.3641 52.8897L51.3112 52.8156L51.1527 52.667L51.0114 52.593L50.8 52.5002L50.7469 52.4631L50.5355 52.2406L50.4473 52.1478L50.3591 51.9991L49.9004 50.7561L49.8473 50.5893L49.8295 50.4593L49.8473 50.3666L49.9886 49.8839L50.0768 49.7355L50.5355 49.3831L50.6587 49.1788L50.6765 49.086L50.6587 48.9932L50.6409 48.8633L50.588 48.7893L50.5349 48.7524L50.4646 48.7709L50.4295 48.808L50.3591 48.9565L50.306 48.9936L50.2357 48.9748L50.1653 48.9561L50.1122 48.9192L50.0418 48.8821L49.9537 48.8633H49.8655L49.7773 48.9004L49.707 48.9561L49.6717 49.0303L49.6539 49.1231V49.2159L49.6891 49.4755L49.6713 49.5683L49.6184 49.6052L49.4773 49.7167L49.3714 49.8095L49.2832 49.9023L49.0008 50.459L48.983 50.533L48.9652 50.6258L48.9476 50.7186L48.9652 50.8114L48.9476 50.9229L48.9123 51.0528L48.7181 51.4796L48.63 51.5536L48.5418 51.5724L48.0305 51.3499L47.9424 51.3311H47.8189L47.7307 51.3499L47.4133 51.7579L47.2191 51.8878L47.1131 51.9806L47.0428 52.0546L47.025 52.1287L47.0071 52.2215V52.4258L46.9895 52.5557L46.919 52.6113L46.8486 52.6301L46.6723 52.6113L46.2314 52.2773V51.999L46.2666 51.8691L46.3017 51.7575L46.3195 50.8297L45.6319 48.9372L45.5087 48.4362L45.4734 48.1021L45.5438 47.9535L45.8083 47.5824L45.8614 47.4527L45.9846 47.0073L46.0377 46.4877L46.0025 46.2094L45.9496 46.0238L45.8436 45.9311L45.7023 45.8754L45.5963 45.7826L45.4905 45.597L45.5081 45.3927L45.4905 45.2072L45.4374 45.0403L44.5206 43.0177L44.4675 42.7765V42.6096L44.5735 42.3313L44.6616 42.2014L44.732 42.0899L44.9262 41.9043L44.9965 41.8115L45.0671 41.6818L45.1553 41.4035L45.2256 41.292L45.3138 41.1804L45.402 41.0507L45.6487 40.4569L45.7016 40.2714L45.7369 39.7147L45.7547 39.6031L45.8076 39.4547L45.9839 39.1205L46.0721 38.8052V38.5825L46.0192 38.4157L45.931 38.2858L45.825 38.193L45.0136 37.5625L44.6787 37.1543V36.7831L44.7138 36.5048V35.8924L44.6257 35.4654L44.4493 34.8718L44.3082 34.6492L44.1497 34.5564L44.0084 34.5749L43.9026 34.6677L43.7966 34.7792L43.7437 34.8908L43.6732 35.1134L43.585 35.2062L43.4439 35.2248L43.2497 35.132L43.1438 35.0023L43.0734 34.8536L43.0556 34.7239L43.0909 34.3897L43.073 34.1856L43.0027 34.0557L42.6851 33.7403L42.5793 33.6289L42.438 33.5547L42.0853 33.4063L41.856 33.2578L41.6975 33.0722L41.5211 32.8308L41.2213 32.2554L41.1153 31.9585L41.0977 31.7171L41.221 31.42L41.2741 31.2715L41.3092 31.1231L41.327 30.9004L41.3092 30.7705L41.327 30.6221L41.5033 29.8427L41.4855 29.3788L41.3622 28.8221L41.3444 28.6553L41.3622 28.4697L41.3444 28.2285L41.2563 27.987L41.1681 27.8386L41.0446 27.7087L40.7979 27.5046L40.7626 27.3747L40.7275 27.1891L40.657 27.0407L40.5512 26.9479L40.4277 26.892H40.2336L39.2107 27.2262L38.1704 27.857L37.941 27.9498L37.7646 27.9685L37.4119 27.8386L37.077 27.7829L36.8654 27.7271L36.689 27.653L36.4245 27.4675L36.2305 27.3934H36.0893L35.9482 27.4491L35.8247 27.5606L35.6836 27.6903L35.4191 27.839H35.278L35.1546 27.7462L35.0842 27.6163L34.996 27.301L34.9255 27.1524L34.5551 26.7072L34.4139 26.3732L34.1494 25.5751L33.5852 24.4988L33.6028 24.0906L34.1672 23.4224L34.1143 23.0884L33.8319 22.6616L33.6027 22.2715L33.5674 21.9562L33.6556 21.7148L33.8319 21.5107L34.0965 21.288L34.9253 20.7128L35.0311 20.4344L34.996 20.3229L34.9255 20.2114L34.714 20.0258L34.6437 19.8959L34.5202 19.5806L34.4321 19.4508L34.3439 19.3394L33.7088 18.7269L33.0387 18.2073L32.2098 17.3723L31.7689 16.7228L31.6457 16.4814L31.5753 16.2589L31.54 16.0919L31.4871 15.8694L31.434 15.7579L31.2577 15.6838L31.1517 15.3314L31.187 15.2756L31.2751 15.1828L31.5397 14.9972L31.9453 14.5521V14.3853L31.8924 14.2553L31.7689 14.1997L31.6457 14.1438L31.5222 14.0141L31.4162 13.8098L31.293 13.2531L31.2048 13.0119L31.1344 12.8449L31.0639 12.7708L30.9581 12.6222L30.8521 12.4367L30.7108 12.0655L30.6048 11.8243L30.4815 11.6575L30.3403 11.5088L30.3052 11.3791L30.3934 10.9521L30.4112 10.5441L30.3581 10.3216L30.2877 10.136L30.1818 10.0243L29.9525 9.87587L29.8112 9.72741L29.6702 9.56042L29.5116 9.24513L29.4585 9.07832L29.4763 8.91131L29.5116 8.74469L29.5467 8.522L29.5116 8.35499L29.4056 8.18836L29.3174 8.07664L29 7.61273L31.2395 7.37151L31.6628 7.44574L32.0684 7.63131L32.5622 7.72409L32.9149 7.85361L32.9502 7.90965L32.968 7.9835L32.9502 8.05773L32.8972 8.11338L32.8794 8.20616L32.8972 8.3177L33.0031 8.48451L33.0912 8.52163L33.1618 8.50288L33.3203 8.35426L33.3907 8.31732L33.6199 8.24329L33.9023 8.11338L33.9727 8.07646L34.0257 8.0206L34.0961 7.8909L34.1312 7.81687L34.3254 7.59418L34.5548 7.38988L34.6077 7.3342L34.6608 7.18556L34.8019 7L35.2428 7.6866L35.3838 8.07628L35.4369 8.15051L35.5073 8.20616L35.5777 8.22492L35.86 8.26184L36.0542 8.33607L36.3009 8.48451L37.2179 9.18984L37.8174 9.52386L37.9406 9.63538L38.011 9.76529L38.0641 9.93209L38.0992 10.0061L38.399 10.5257L38.4342 10.5999L38.4519 10.674L38.4697 10.748V10.8408L38.4519 10.9148L38.3637 11.0447L38.3461 11.1188L38.3108 11.5086L38.3286 11.8239L38.2404 12.5105L38.2933 12.7888L38.4697 13.234L38.5228 13.3455L38.6991 13.8466L38.7695 14.329L38.8224 14.5517L38.8755 14.663L39.1047 14.7748L39.1578 14.8115L39.3342 14.9603L39.4045 14.9789L39.4749 15.016H39.5809L39.7394 15.1273L39.9158 15.3129L40.2685 15.851L40.3918 16.1294L40.4799 16.4077L40.533 16.5376L40.6034 16.6671L40.7445 16.8716L40.7976 16.983L40.8154 17.0757L40.7623 17.317L40.8326 17.8926L40.9739 18.3565L40.9561 18.5049L40.9739 18.9132L41.0268 19.1726L41.2032 19.6365L41.3617 19.9709L41.5559 20.1932L41.6971 20.342L41.9795 20.676L42.0146 20.8059L42.0324 20.8987L41.962 21.0843L41.9089 21.3437L41.9267 21.4554L41.962 21.5293L42.0149 21.5851L42.0853 21.6221L42.1558 21.641L42.3673 21.8633L42.8434 22.6427L42.9138 23.1255L44.1305 25.6117L44.3068 25.8714L44.395 25.89H44.4654L44.7123 25.8343H44.8004L45.4706 25.9828L46.2113 26.057L48.0806 26.0199L48.2922 26.0756L48.3982 26.1314L48.4686 26.2055L48.592 26.4098L48.6979 26.744L48.786 26.9481L48.9802 27.1893L49.0506 27.3192L49.0911 27.3931Z" fill="#1592ED"/>
</svg>
