<svg width="76" height="177" viewBox="0 0 76 177" fill="none" xmlns="http://www.w3.org/2000/svg">
<path d="M48.1361 171.752H47.9113L47.2049 171.817L46.4345 172.299L46.1134 172.909V173.841L45.7923 174.838L45.4711 175.578L44.7008 176.253H43.705L42.6777 175.77L41.8425 174.903L40.8791 174.163L39.7552 173.906L38.7919 174.163L37.7643 174.839L36.544 175.835L35.9342 176.35L35.3241 175.739L34.8424 175.096L33.1087 171.946V171.625V171.207L33.3017 170.275L33.4622 169.728L33.5904 169.15L33.4622 168.41L32.4664 166.321L32.3701 165.581L32.7876 164.778L33.9757 163.62L34.1687 163.106L34.2011 162.623L33.4622 161.37L31.7603 159.827L31.5998 159.602L31.4716 159.409L31.4392 159.087L31.5355 158.798L32.0496 158.573L33.3017 158.413L33.9439 158.188L34.4256 157.931L34.6828 157.481L34.7149 156.934L34.3617 156.099L34.1045 155.616L32.4664 153.43H31.9848L31.375 152.627L29.9942 149.348L28.1313 147.291L26.8793 146.584L26.2046 146.487L25.6905 146.327L25.2413 145.684L24.8562 144.655L24.2464 142.341L24.3103 141.409L24.599 140.894L25.0168 140.862L25.2413 140.765L25.3055 140.38L25.1125 139.64L24.1816 137.969L20.6168 132.826L20.2636 132.054L19.4284 127.68L17.9512 120.737L16.3456 117.201L16.2172 116.654L16.1851 116.011L16.4098 114.951L16.7945 113.665L16.923 113.118L16.8588 112.54L16.5704 111.897L15.8954 111.029L14.7394 109.84L14.643 109.776L13.9038 109.165L13.6469 108.522L13.4221 107.879L13.5506 105.34L11.6881 103.09L11.1422 102.093L10.2431 99.3285L9.69717 98.2035L4.71981 89.91L4.55925 89.5561L4.1418 88.8489L3.69223 88.3028L3.08275 87.7882L2.44051 87.4992L0.867021 87.2098L0.385342 86.9852L0 86.3098L0.0327558 81.4237L2.82585 83.2885L3.50084 83.3852L4.59201 83.4492L7.86742 82.6131L8.70298 82.1952L9.0241 81.7773L8.99134 81.4559L8.92712 81.2309L8.79931 81.0059L7.70751 79.5918L7.38639 79.0457L7.1616 78.4028L6.84048 76.6669L6.55212 75.7354L5.29975 73.0994L5.20342 72.7137L5.49243 71.0743L7.93293 66.6704L8.18983 65.834L8.28616 64.8375L8.18983 62.1695L8.02927 61.398L7.77237 60.8837L7.25858 60.4337L5.71657 59.5008L4.78596 58.5689L5.90988 56.3509L6.61634 51.6577L8.5103 47.5107L8.70362 46.8357V46.1285L8.5103 45.6138L7.80384 44.4248L6.03769 41.4674L4.52907 38.7026L3.95041 37.3204L3.8226 35.8096L3.98316 33.238L4.33639 31.9846L4.59329 31.6632L4.97863 31.3742L5.62087 31.0528L5.74932 30.7634V30.5063L5.6851 30.3456L5.39609 29.5744L4.52971 26.8421L4.69027 25.9742L5.49307 24.1422L5.62087 23.1779V22.3742L4.52971 16.9096V16.1693L4.65687 15.655L5.52389 14.2406L5.65234 13.662L5.52389 13.3405L5.17067 13.2123L4.68899 13.1155L4.59233 12.8262L5.01042 11.8618L5.07401 11.2832L4.59233 7.10438L4.75289 5.62538L4.6893 4.91819L4.27153 3.56843L3.95041 1.38223L5.07433 1.22151H5.58876L6.16677 1.12508L6.68089 0.900058L6.93811 0.739332L7.13077 0.514647L7.45189 0H7.67668L8.06202 0.160725L8.31892 0.739332L8.41525 1.09325L8.38314 1.38223L8.31892 1.54296L8.35103 1.70368L8.7688 2.02513L8.83271 2.08943L8.86546 2.21768L8.9618 2.60343L8.99391 2.73168L9.37925 3.37458L9.73281 3.79246L10.375 4.37141L12.0445 6.33225L13.8107 9.51461L14.8707 11.7648L15.0313 12.2791L15.0952 13.0827L14.9346 13.6292L13.4257 16.683L13.1986 17.2943L13.102 17.648L13.0381 18.2587L13.5519 22.9522L13.8409 23.6915L14.1292 24.1416L14.4504 24.527L14.8042 24.6556H15.2538L16.4105 24.3017L17.1491 24.3656L17.7913 25.619L18.0797 25.844L18.5941 26.133L19.043 26.2615L19.332 26.583L19.5568 27.258L19.6846 28.0617L19.7174 29.251L18.9467 35.9372L19.14 36.4519L19.4611 36.7733L20.1669 37.3198L21.1631 37.8984L21.9331 38.1555L22.5757 38.2523L22.961 38.1555L23.1855 38.0273L24.0849 37.1912L24.8553 36.8376L26.8783 36.1304L27.5848 36.0661L28.7087 36.2593L29.4473 36.4843L30.0571 36.5808L30.6354 36.5483L32.1768 36.2268L33.75 36.0986L34.4889 35.9054L36.2226 35.7771L39.1766 36.3876L44.2506 36.5161L45.2778 35.8408L46.4984 35.5836L47.1406 35.7119L48.0716 36.0009L48.4251 36.5155L49.5166 37.737L50.1913 39.1196L50.6087 39.6339L51.251 40.1161L51.5721 40.5018L51.6687 41.0483L51.7009 42.0126L51.7975 42.5588L52.3431 42.9127L53.1459 43.7488L53.8524 44.1667L55.4255 44.6813L55.2011 45.1963L54.8475 47.2214L54.7194 47.575L54.9438 50.5323L54.6227 50.468L54.3016 51.0145L54.0129 51.1109L53.6594 50.9827L53.3058 51.0148L53.0489 51.1756L52.8559 51.3041L52.6954 51.4324L52.599 51.5931L52.0849 52.2685L49.5802 54.3579L48.3278 55.9973L47.6856 56.6402L46.7864 56.8977L45.2139 57.1221L44.8928 57.0581L44.4111 56.7042L44.0576 56.5759L43.0618 56.7367L42.3232 57.3153L41.8415 58.1832L41.681 59.2115L41.2632 59.4365L38.7585 60.2077L36.9599 60.1755L36.8318 60.1431L36.6712 60.1106L36.3825 60.207L36.1895 60.3353L35.8042 60.6892L35.2586 61.075L34.905 61.8143L34.6481 62.7147L34.5197 63.5183L34.5521 65.3188L35.1944 68.694L35.291 70.462L35.098 71.2331L36.029 71.5546L35.9326 72.0043L36.9923 72.9362L38.5016 73.8041L39.4649 74.1577L40.2677 74.2862L42.2266 74.1577H42.2908L44.1533 75.0256L45.1491 75.8935L45.3738 76.215L45.4702 76.4396V76.6971V77.0825L45.342 77.7894L45.1815 78.1437L45.0209 78.3365L44.6674 79.0762L44.5393 79.4941V80.0405L45.0209 82.4839L44.9885 82.9336L44.8922 83.6089L44.6674 84.1876L44.6349 85.1519L44.8597 85.9555L45.8231 87.82L46.1442 88.1739L46.4329 88.3022L46.7216 88.2057L46.9464 88.0771L47.2033 87.467L47.5886 85.763L47.9739 85.3133L49.3865 84.1239L49.9646 83.8025L50.9921 83.5135H51.4738L52.5011 83.5775L53.1112 83.4495L53.4644 83.2245L55.0379 81.9387L55.9046 81.5208L57.7032 81.0386L59.1807 80.4922L59.6624 80.1064L60.4976 79.2385L60.8826 79.0138L61.461 78.9171L61.8142 78.8849L63.2592 78.9171L64.8648 79.1746L65.475 79.432L65.6031 79.5285L65.7636 79.6892L66.1172 80.2038L66.2778 80.5893L66.4059 82.0358L66.6303 83.8038L69.9057 89.6866L70.3232 90.9081L70.6122 92.5797L70.7728 93.2226L71.0297 93.7048L71.415 94.6366L71.3826 94.8617L71.2859 95.1188L70.9972 95.6653L70.7728 95.89L70.6443 96.1147L70.5804 96.2114L70.7734 96.8543L71.1909 98.5584L71.4478 99.008L71.5444 99.1045L71.705 99.2977L71.9294 99.6834L71.9619 99.7474L72.1549 100.648L72.2515 100.905L72.3479 101.066L72.4121 101.162L72.5727 101.548L72.7332 101.805L72.7971 101.902L72.8938 102.095L73.0864 103.316L73.1507 103.51L73.2149 103.638L73.4076 103.831L73.6006 103.992L74.1465 104.249L74.2104 104.378L74.2746 104.538L74.1465 104.988L73.9859 105.277L73.3761 106.113L73.2155 106.563V107.013L73.1513 107.206L73.055 107.366L72.3161 107.945L72.5733 108.974V109.199L72.4766 109.552L72.3161 109.81L72.2197 109.97L71.7056 110.71V110.871L71.7699 111.031L71.9943 111.224L72.3154 111.418L72.4121 111.546L72.669 112.317L72.7332 113.796L72.9901 114.053L73.1831 114.278L73.3112 114.503L73.3437 114.632L73.3761 114.792L73.4082 115.724L73.4406 115.885L73.5049 116.013L73.633 116.271L73.6654 116.399V116.592L73.5688 116.817L73.2804 117.106L73.0871 117.17L72.7987 117.202L72.7021 117.363L72.6382 117.621L72.5415 118.199L72.4134 118.553L71.8033 119.614L71.7393 119.839L71.8033 120.16L71.8999 120.353L71.9638 120.482L72.0605 120.578L72.1244 120.707L72.1571 120.835V121.124L72.0929 121.51L71.836 122.281L71.5788 122.603L71.2252 122.924L71.0647 123.117L70.583 124.081L70.1655 125.656L70.4224 128.613L70.7114 129.802L70.9041 130.156L71.1931 130.542L72.1565 131.249L73.0556 131.57V132.02L73.441 132.792L73.7293 134.013L73.7935 134.688L73.8578 135.042L73.9541 135.299L74.8532 136.553L75.1105 136.971L75.1744 137.356L75.2713 138.031V139.124L75.0783 140.635L75.0141 140.828L74.9178 140.956L74.4037 141.374L74.2431 141.567L74.1789 141.695L74.1468 141.889L74.1143 142.146V143.11V143.271L74.0501 143.432L73.9538 143.528L73.8896 143.593L73.6327 143.753L72.6369 143.11L72.3158 143.046L71.7699 142.982H70.6138L65.508 143.721L63.2281 143.658L62.4253 143.754L60.0808 144.461L58.893 145.071L56.8696 147.579L54.0437 148.094L53.4015 148.961V150.601L53.3373 150.922L53.2091 151.244L52.9523 151.758L52.4381 152.241L50.4472 153.462L49.4839 154.362L49.3557 154.684L49.3233 154.877V155.423" fill="#1592ED"/>
</svg>
