<svg width="84" height="177" viewBox="0 0 84 177" fill="none" xmlns="http://www.w3.org/2000/svg">
<path d="M58.8883 4.18337H59.32L60.5471 5.24539L60.514 5.90936L60.4805 6.07535L60.3813 6.27488L59.8501 6.67327L59.7177 6.83926L59.6517 7.00526L59.7177 7.66923L59.7512 7.80169L59.9835 8.16721L60.017 8.29967L59.9835 8.46566L59.8836 8.59812L59.6182 8.69773L59.2529 8.73125L59.1206 8.76478L58.2248 9.66115L57.893 9.8932L57.7935 9.99314L57.694 10.0927L57.2959 10.6242L57.1963 10.8563L57.13 11.0558L57.1963 11.3214L57.2623 11.4874L57.3287 11.6534L57.2623 11.8194L57.0633 12.0518L56.8974 12.1514L56.7315 12.1849L56.5988 12.1514L56.4664 12.0853L56.3669 12.0189L56.1678 11.8194L56.0355 11.753L55.9031 11.6866H55.7366L55.5707 11.7201L55.4383 11.7865L55.3388 11.8861L55.3053 12.0856V12.3512L55.5046 12.8827L55.6705 13.1151L55.8029 13.2811L55.9024 13.3807L55.936 13.5467L55.9024 13.8126L55.7034 14.3106L55.5375 14.9082L55.5707 15.7717L55.5046 16.7013L55.4711 16.8673V17.0996V17.3981V17.5641L55.4048 17.6637L55.2389 17.8961L54.9735 18.1945L54.874 18.327L54.8408 18.4595L54.7744 18.7915L54.7413 18.9236L54.6417 19.0232L54.2765 19.2556L54.1769 19.3552L54.1106 19.4551L54.0771 19.6211V19.8203L54.1434 20.3847L54.2758 20.6831L54.4752 21.0486L55.4041 21.8786L55.7027 22.277L56.001 22.9074L56.067 23.2394V23.4715L56.001 23.6039L55.9346 23.7367L55.9011 23.8692L56.2329 24.3336L58.1574 25.462L61.5746 25.6944L64.6604 25.1301L65.1912 25.0965L65.3571 25.0633L65.9546 24.8638L66.1205 24.8303L66.8175 24.8638L66.9834 24.8303L67.1493 24.7642L67.2153 24.6643L67.5136 24.2327L67.5799 24.1663L68.044 23.9668L68.2099 23.9007L68.4422 23.9668L68.7739 24.1328L69.3376 24.5647L69.5698 24.8303L69.7357 24.9963L69.8681 25.0962L70.034 25.1623H70.3657L70.5651 25.0962L70.731 24.9963L70.9632 24.8638L71.0628 24.8303L71.1951 24.8638L71.2287 25.0633V25.1958L71.1623 25.3618L71.0963 25.4943V25.6267L71.1298 25.9587L71.0976 26.0945L71.0313 26.227L70.9978 26.3265L70.9646 26.3929V26.4265V26.4597L71.097 26.5925L72.2246 27.2896L72.5564 27.4224L72.8881 27.522L74.1157 27.5556L74.7457 27.6552L75.9404 28.2195L76.1723 28.4187L76.2386 28.5515L76.3047 28.7175L76.3382 29.0495V29.182L76.2722 29.348L76.1398 29.514L75.7417 29.8459L75.6421 30.0119L75.4099 30.3775L74.9123 30.975L74.8459 31.1075L74.5141 31.6055L74.4481 31.7051L74.2822 31.9371L74.1824 32.2031L74.1492 32.3691L74.0832 33.0662L73.9508 33.2322L73.2538 33.863L73.0544 33.9626H72.789L72.5232 33.9961L72.0919 34.2946L71.8925 34.361H71.6931L70.7323 34.0622L69.6707 33.9958L69.4388 34.0293L69.107 34.1289L68.2776 34.6604L67.1825 35.2241L67.0501 35.3569L66.5189 35.4897L64.8936 35.6222L64.5618 35.4227L64.2632 35.1242L64.1634 35.0581L63.9975 35.0246L63.7984 35.0581L63.5002 35.2241L63.0686 35.3901H62.77L62.206 35.7221L62.0401 35.8549L61.7747 35.8884L61.3105 35.9216L59.8511 35.822L59.2871 35.6896L58.8558 35.5236L58.5901 35.5568L58.3907 35.6225L57.4289 36.3529L55.8696 37.3153L56.3672 38.2449L56.4333 38.4773L56.4668 39.1412L56.5003 39.3072L56.7319 39.374L56.8646 39.3404L57.13 39.208L57.2295 39.2412L57.263 39.374L57.2295 40.9011V41.0671L57.2959 41.2995L57.7271 42.1294L58.0257 42.561L59.3528 44.1214L59.4852 44.387L59.5515 44.6193L59.5847 44.9513L59.4852 45.8809L59.5187 46.1797L59.7506 46.5449L59.95 46.6777L60.1159 46.7437H60.2817L60.4476 46.7773L60.5471 46.8769L60.647 46.9768L60.713 47.0764L61.0448 47.8399V48.0723L61.0116 48.3379L60.8122 48.9023L60.7459 49.3339L60.6799 50.4958L60.4141 51.6246L60.58 52.4546L60.6799 52.6206L60.8457 52.7202L61.2107 52.8197L62.77 52.9857L63.3011 52.9197H63.6329L63.7988 52.9857L63.9982 53.1185L64.1976 53.3841L64.5625 53.9156L64.7619 54.1477L64.9613 54.5132L65.0273 54.7127L65.16 56.3727L65.8235 56.8707L66.1885 57.4022L66.8188 58.8961L66.8849 59.0286L66.9184 59.427V60.2234V60.3894L66.786 60.8874V61.0534V61.2193L66.8195 61.3853L67.0189 61.5849L67.4167 61.7844L69.5071 62.4148L70.5356 63.1124L71.1331 63.2119L72.6921 63.6435L74.0191 64.3075L74.7162 64.5399L74.8821 64.5734H75.9437L76.4414 64.673L76.6072 64.7394L77.1049 65.0379L77.4698 65.5358L77.7356 67.4614L78.1334 68.6233L78.1997 68.7893L78.3321 69.0217L79.3609 70.1173L79.5268 70.3497L80.0908 71.5116L80.2232 71.9432L80.2895 72.076L81.4172 73.4371L81.4832 73.5699L81.6491 73.968L81.6826 74.2004V74.4988L81.6166 75.0629L81.6497 75.3617L81.6832 75.5276L81.8156 75.6272L82.2473 75.7932L82.3468 75.8596L82.4463 75.9257L82.5462 76.0585L82.6785 76.3241L82.7121 76.4565V76.6889L82.6785 76.9874V77.1869L82.7449 77.3529L82.8109 77.4525L82.9768 77.652L83.0432 77.7845L83.1095 77.9505L83.1427 78.316V78.98V79.1124L83.0753 79.2452L83.009 79.378L82.7768 79.4441H82.4768L81.5479 79.2446L81.3156 79.1785L81.1833 79.1121L80.9514 78.9461L80.7191 78.6805L80.3539 78.3821L80.2215 78.2821L80.0891 78.3157L79.8234 78.4817L79.691 78.8137L79.1598 79.5112L77.2018 80.3079L76.7041 80.2744L76.6378 80.1419L76.5382 80.0423L76.4387 79.9759L76.2728 79.9424L76.0738 79.9759L75.8415 80.1084L75.4766 80.4404L74.9789 80.8388L74.5808 81.2368L74.3486 81.6023L73.4531 82.6647L73.1874 82.8968L73.0547 82.997L72.9883 83.1298L72.8888 83.3954L72.7893 83.5614L72.6566 83.7606L71.2964 84.7901L71.1965 84.8897L71.1305 84.9893L70.9646 85.1217L70.6988 85.2542L70.1352 85.3873H69.8366H69.6047L69.4388 85.3541L69.0735 85.4537L66.1211 86.9141L65.4576 87.0141L65.2254 86.9477H64.8601L62.77 87.3792L61.5093 87.4456L61.3099 87.5781L61.1443 87.844L60.9121 88.4416L60.8789 88.74L60.9121 88.9724L61.2107 89.4369L60.9449 89.8349L59.2526 90.8644L59.3525 92.0264L59.8166 94.5498V94.9817L59.9161 95.1477L60.016 95.3137L60.082 95.4133L60.1484 95.5458L60.1819 95.7118L60.2479 96.2097L60.4138 96.8077L60.9778 99.6627L61.0438 99.7955L61.2097 100.028L61.3756 100.194L61.6413 100.526L61.9396 101.024L62.1389 101.588L62.3383 101.953L62.4044 102.086L62.4379 102.418L62.5042 102.517L62.6038 102.65L62.6701 102.782L62.6366 102.915L62.5368 103.114L62.4044 103.247L62.2385 103.313L62.0401 103.347L61.4101 103.248H61.1447L60.8789 103.281L60.4144 103.414L59.7844 103.248L59.6185 103.148L59.4862 103.082H59.2539L58.3585 103.282L57.3297 103.813L56.7657 104.311L56.6997 104.477L56.6662 104.709L56.9316 105.838V106.037L56.8656 106.27L56.6662 106.602L56.5338 106.801L56.4011 106.934L56.2687 107.033L56.1692 107.598L56.3686 109.755L57.6956 110.951L58.0609 111.183L58.7905 111.415L59.5203 111.581L60.6815 111.979L62.3403 112.776L62.7381 112.876L63.4352 113.174L63.7009 113.24H63.9L64.0327 113.207L64.464 113.041L64.5963 112.975L64.8946 113.074L66.3875 114.137L66.7193 114.336H66.9187L67.0511 114.303L67.1834 114.236L67.5816 113.871L67.8138 113.672L67.9133 113.605L68.1127 113.705L68.3781 113.971L68.8758 114.635L69.174 114.867L69.4063 115L69.5386 114.933L69.7045 114.9H69.8704L70.0031 114.933L70.1355 114.967L70.2679 115.033L70.3674 115.133L70.8986 115.763L71.0644 116.062L71.1643 116.36L71.2303 116.56L71.1968 116.792L71.1308 116.991L70.9314 117.224L70.6657 117.489L70.5333 117.887L70.5668 118.883L70.4009 119.747L69.1737 119.847L68.5102 119.78H68.1449L67.9455 119.814L67.7133 119.914L67.4814 120.08L67.282 120.478V120.544L67.0497 120.776L65.9549 121.64L66.1868 122.57L65.9549 123.101L65.8551 123.267V123.433L65.9214 123.699L66.0873 124.031L66.2532 124.197L66.6184 124.429L66.718 124.495L66.8178 124.595L66.9174 124.695L67.4814 125.691L67.6473 126.188L67.7468 126.388L67.8467 126.488L67.9462 126.554L68.0785 126.588L68.2109 126.621L68.3433 126.655L68.476 126.787L68.6084 127.086L68.7743 127.185H68.9066L69.3047 127.019H69.4043L69.5041 127.119L69.5373 127.252L69.5708 127.451L69.6043 127.683L69.5045 128.779V129.145L69.6372 129.775V129.974L69.6037 130.14L69.5373 130.306L69.2056 130.506L68.9736 130.572L67.5467 130.638L67.3809 130.97L67.6466 131.601V131.8V132.032L67.5139 132.232L67.4143 132.364L67.1821 132.564L67.0826 132.664L67.0162 132.796L66.9831 132.929L66.8832 133.593L66.7508 134.223L66.7843 134.622L67.1821 136.58L67.4807 137.542L67.6131 137.775L67.6794 137.941L67.7126 138.073L69.106 141.459L69.4043 141.957L69.5041 142.19L69.5702 142.356V142.555L69.5367 142.854L69.2049 143.352L68.1436 144.215L67.8118 144.415L67.6459 144.581L67.5796 144.68L67.2478 145.211L67.1154 145.344L66.8172 145.61L66.0873 146.075L65.9878 146.141L65.8879 146.24L65.8219 146.373L65.7884 146.539L65.8547 146.837L65.9543 147.203L66.0206 147.501L66.0538 147.999L66.0873 148.132L66.1868 148.232L66.4526 148.364L66.5849 148.43L66.6845 148.497L66.7508 148.629L66.8172 148.762L66.8504 148.928L66.7843 149.127L66.652 149.327L66.3202 149.659L66.1208 149.924L65.9549 150.323L65.789 150.555L65.6232 150.754L65.225 151.02L64.9931 151.086H64.8272L64.595 150.92L64.3631 150.754H64.2304L64.0645 150.821L63.8986 150.92L63.6667 151.086L63.5009 151.12L63.3681 151.086L63.2358 151.02L63.0699 150.987H62.9359L62.8035 151.053L62.7036 151.185L62.7371 151.617L62.837 151.883L63.6001 153.377L65.6905 156.099L65.9224 156.829L65.8564 156.962L65.7565 157.26V157.426L65.723 157.592L65.7565 157.758L65.8564 157.924L66.0883 158.057L66.5524 158.256L66.8507 158.29H67.0501L67.78 158.024L68.0782 157.958H68.2776L68.7753 158.057L69.173 158.223L69.3389 158.423L69.5383 158.755L70.0695 159.851L70.3017 160.282L71.927 162.208L72.4582 163.104L72.9893 163.436L73.2547 163.569L73.487 163.735L73.6861 163.901L73.8519 164.1L73.9846 164.366L74.0842 164.664V164.996L73.8848 165.394L73.6194 165.627L73.0882 165.892L72.8888 166.092L72.7229 166.39L72.5906 166.756L72.3912 166.988L72.1589 167.154L71.6948 167.32L71.4629 167.453L71.2307 167.552H70.9652L70.7659 167.586L70.5001 167.652L70.2682 167.785L70.0688 167.951L69.9693 168.15L69.9029 168.382L70.0025 168.681L70.2019 168.947L70.8654 169.378L71.1636 169.511L71.5618 169.611L71.9599 169.81L72.1589 169.844L72.3912 169.81L72.8553 169.876H73.0875L73.3198 169.843L73.618 169.81L73.9163 169.976L74.1817 170.274L74.6793 171.402L74.8117 171.834L74.8452 172.1L74.5798 172.996L74.3141 173.328L74.2145 173.594L74.115 173.693L73.6834 174.059L73.3184 174.457L73.2521 174.59L73.1197 174.822L73.0199 174.922L72.8875 174.988L72.3563 175.22L71.925 175.353L71.7927 175.419L71.4941 175.685L71.3617 175.718L71.1958 175.652L70.9964 175.353L70.9632 175.154L70.9964 174.988L71.0963 174.888L71.1298 174.756L71.0963 174.623L71.0299 174.523L70.3664 174.291L69.4375 174.125L68.6741 173.793L67.8782 173.661L63.6651 174.093L61.011 173.86L59.9822 173.894L59.3846 173.994L59.0864 174.027L58.8545 173.994L58.6222 173.894L57.9587 173.728L55.7027 173.662L55.3374 173.595L55.0717 173.463H54.9393L54.8398 173.529L54.7734 173.662L54.7074 173.994L54.6411 174.126L54.5415 174.392L54.4417 174.89L54.3757 175.056L54.2433 175.222L53.5797 175.52L53.447 175.586L53.0493 176.018L52.684 176.284L52.4517 176.35H52.2527L51.7882 176.218L51.6887 176.151L51.4893 175.952L51.3898 175.852L51.1575 175.72L50.9256 175.554L50.7262 175.354L50.6599 175.254L50.5604 175.155L50.3281 175.055L48.6693 174.855L48.238 174.689L47.8727 174.523L47.541 174.258L47.4086 174.191L46.8446 173.992L46.7451 173.926L46.3134 173.76L45.8821 173.627H45.6164L45.3845 173.661L45.1522 173.727L44.3228 173.827L44.0574 173.959L43.9576 174.025L43.858 174.125L43.7585 174.258L43.725 174.357L43.6915 174.689L43.5256 174.889L43.1603 175.088L42.1985 175.188L41.9331 175.155L41.6674 175.022L41.4355 174.89L41.3356 174.79L40.9378 174.591L39.8102 174.358L38.8809 174.026L37.8856 173.296L37.5873 172.898L37.3879 172.532L37.0897 171.304L36.8243 168.25L37.2556 166.623L37.7532 165.628L37.9191 165.428L38.2844 165.096L38.5498 164.764L38.8155 163.968L38.8816 163.569V163.271L38.848 163.138L38.782 163.006L38.6822 162.906L38.6161 162.774L38.5163 162.574L38.4503 162.242L38.5163 162.01L39.1466 160.914L39.279 160.549L39.3785 159.951L39.4449 159.685L39.5444 159.519L39.8427 159.486L40.0421 159.419L40.3403 159.121L40.4402 158.889V158.689L40.4067 158.557L40.2743 158.291L40.208 158.158L40.1744 157.992L40.1409 157.03L40.1078 156.864L40.0742 156.732L39.9419 156.499L39.7425 156.267L39.4767 156.001L39.4107 154.474L39.145 153.677L39.0454 153.545L38.7137 153.345L38.4814 153.146L38.4154 152.98V152.814L38.9466 152.05L39.0461 151.884L39.212 151.618L39.3115 151.253V151.021L39.0461 149.958L39.8092 149.361L39.909 149.195L39.9751 148.996V148.531L40.1409 148.066L40.7713 147.203L40.9372 146.904L41.0695 146.44L41.0032 146.274L40.9372 146.141L40.3732 145.876L40.1738 145.71L39.9744 145.51L39.908 145.378L39.842 145.178L39.6426 143.917L39.5431 143.717L39.4767 143.617L39.3109 143.352L39.145 142.953L39.0786 142.854L38.9791 142.688L38.8796 142.422L38.6802 141.492L38.6467 141.426L38.4144 141.028L38.2485 140.828L38.149 140.729L37.8836 140.264L37.4523 138.504L37.2526 137.84L37.3189 137.741L37.4516 137.508L37.6835 137.276L37.9818 136.712L38.0813 136.446L38.1152 136.214L37.7171 135.251L37.4516 134.753L37.2858 134.089L36.9872 132.363L36.5559 131.102L33.1765 125.027L32.9446 123.201L32.8122 121.707L32.6464 121.308L32.2811 120.777L32.1152 120.611L31.9828 120.511L31.3528 120.245L29.694 119.98L28.201 119.946L27.8358 119.98L27.2383 120.079L26.8405 120.312L25.9775 121.208L25.4799 121.606L23.9535 122.17L22.0952 122.668L21.1998 123.1L19.5741 124.428L19.2092 124.66L18.5789 124.792L17.5175 124.726H17.0199L15.9582 125.025L15.3611 125.357L13.9016 126.585L13.5035 127.05L13.1054 128.81L12.84 129.44L12.6077 129.572L12.3095 129.672L12.0112 129.54L11.6795 129.174L10.6842 127.249L10.4519 126.419L10.4854 125.423L10.7177 124.825L10.8172 124.128L10.8507 123.663L10.3531 121.14V120.575L10.4854 120.144L10.8507 119.38L11.0166 119.181L11.1825 118.815L11.3149 118.085V117.687V117.421L11.2153 117.189L10.9831 116.857L9.95428 115.96L8.03005 115.064H7.96237L5.9386 115.197L5.10918 115.064L4.11389 114.699L2.5546 113.802L1.45976 112.84L1.5593 112.376L0.597507 112.044L0.796903 111.247L0.697043 109.421L0.0335127 105.935L0 104.077L0.132704 103.247L0.398122 102.317L0.76339 101.554L1.32706 101.155L1.72518 100.79L1.92457 100.657L2.22283 100.558L2.38871 100.591L2.52108 100.625L4.3793 100.658L6.96707 99.8616L7.39869 99.6296L7.56458 98.5672L8.06222 97.6708L8.82529 97.0732L9.85409 96.9073L10.2194 97.0397L10.717 97.4052L11.0488 97.4716L12.6741 97.2392L13.6034 96.9737L14.2669 96.3097L15.5605 94.6162L18.1482 92.4583L18.6794 91.7608L18.7789 91.5948L18.9448 91.4623L19.1442 91.3299L19.4096 91.1639L19.7749 91.1304L20.1401 91.2628L20.4384 91.1632L20.7702 90.5988L21.1019 90.6652L20.87 87.611L21.0024 87.2455L21.3677 85.1539L21.5996 84.6224L21.8653 84.0909L22.1307 83.7254V83.4598L22.6284 82.2643L23.0925 80.5048L23.7225 80.0068L28.7654 78.9445L29.6611 78.9109L30.3247 79.1433L31.6517 80.5048L34.14 83.8582L37.5236 83.4263L38.4529 83.6258L38.6848 83.8914L40.6094 81.6339L41.2394 80.6044L42.5665 75.5585L43.1636 74.4962L43.5618 74.0978L44.3577 74.2638L45.2534 74.2306L45.983 74.0646L46.7129 73.7987L47.5088 73.4006L48.6036 72.5706L49.3998 71.4419L49.7976 70.0807L49.6981 68.5204L48.7688 65.831L48.0721 64.503L47.7742 61.6503L47.2765 59.1939L47.177 56.9364L47.2105 56.4716L47.4099 56.04L47.6093 55.7744L47.8412 55.6084L48.0406 55.3425L48.306 54.7449L48.2728 54.3794L47.3436 53.5159L46.614 52.5864L46.3154 51.8225L46.3818 48.5026L46.5477 47.6726L47.0788 46.9091L47.3771 46.1126L47.1777 45.2491L44.4565 40.5691L43.8594 38.6771L44.1911 37.3156L44.5892 37.1832L45.5182 37.1168L45.9823 36.8844L46.2481 36.4863L46.3804 36.088L46.7782 19.9866L46.48 18.9906L46.0158 17.2311L45.7504 16.5007L45.618 16.2352L45.5517 16.1027L45.4853 15.9702L45.2528 15.4709L44.1576 12.0182L44.1241 11.4207L44.1576 10.5572L44.4234 9.66115L44.7551 8.83118L45.5845 7.53643L48.0728 4.58208L48.4706 3.75211L48.5704 3.2206L49.1676 1.95905L50.0305 0.963094L51.0258 0.099592L51.9548 0L52.2865 0.0660772L52.7507 0.398064L53.1159 1.22803L53.1494 1.75953L53.0499 2.29104L52.8177 2.92148L52.7182 3.41946V3.95097L52.9175 4.34936L53.2825 4.64781L54.6095 5.24539L55.4725 5.51132L56.4678 5.31179L58.259 4.34936L58.8883 4.18337Z" fill="#1592ED"/>
</svg>
