<svg width="60" height="77" viewBox="0 0 60 77" fill="none" xmlns="http://www.w3.org/2000/svg">
<path d="M59.7237 69.8215L59.9068 71.214L56.1968 73.3525L54.5546 73.8498L53.2774 73.8996L48.5943 73.4525L46.7697 73.5519L45.0668 73.8503L44.641 74L44.2755 74.2989L43.91 74.5978L43.3632 74.6968L42.9381 74.6466L42.0866 74.3979L41.6001 74.2989L39.4714 74.3492L37.9509 74.7962L36.7959 75.5925L35.5795 76.8855L33.2075 67.5861V66.0941L34.1198 64.8508L31.2005 64.5519L29.8016 63.6075L28.0981 60.1262L27.794 59.8776L27.2472 59.7279L26.7607 59.3803L26.5776 58.6343V56.4461L26.4566 55.9487L25.7869 55.2027L25.6045 54.5562V53.9594L26.1512 52.3685H25.6045L24.9355 53.7108L24.6922 54.507L24.5712 55.4027L23.8413 54.9556L23.5372 54.2096L23.4758 53.3139L23.5974 52.3695L24.5712 50.6791L24.0244 50.2808L23.3548 50.331L22.5635 50.6791L21.9553 49.4358L22.1986 47.8444L23.1109 44.662L23.0495 43.6674L22.8068 43.1198L21.5904 42.1252L21.1647 41.5776L20.5565 40.7814L20.1307 39.8862L20.0699 39.09L21.2863 37.4489L23.3536 37.8467L25.6039 38.5425L27.6109 37.7965L24.8126 36.6526L23.3536 36.2548L21.8331 36.1051L20.1301 36.4039L19.4003 37.1997L18.9137 38.2938L18.1224 39.5371L16.906 38.2441L15.8727 36.1051L15.5686 34.1158L16.5417 33.0709V32.6731L15.0212 32.3737L14.5347 31.379L14.292 30.0372L13.5622 28.7432L12.1031 28.147L10.2785 27.7486L9.12355 27.102L9.5487 25.7593L1.5807 20.985L0.972506 20.3882L0.547392 19.7919L0.364309 18.6978L0.425114 16.6578L0 15.8621L0.0614359 8.80009L0.608197 6.76059L1.27783 6.51193L1.88603 6.26327L2.49422 6.16432L2.73689 6.11405L3.52753 6.31251L4.50127 6.36271H4.80536L5.04803 6.26327L5.23111 6.11405L5.41356 6.01461L5.65622 5.86539L6.08197 5.91566L6.69017 6.06482L7.72348 6.36374L8.57437 6.5129L8.75742 6.46318L9.06152 6.66164L9.48667 6.96051L11.1288 8.80009L11.3715 8.94979L11.7972 9.14825L13.075 9.5953L13.8657 9.69481L14.2914 9.84397L14.8382 10.1429L15.8721 10.8889L16.3587 11.3862L16.6014 12.0819V12.7285L16.6628 12.9771L16.7242 13.1761L16.785 13.275L17.0283 14.0712L17.271 14.2204L17.5137 14.3199L18.9727 14.0712L23.1686 12.4798L24.385 11.7846L25.3588 11.0883L25.6629 10.3423L26.2711 10.3925L26.5137 10.3423L26.757 10.1931L26.8178 9.845V9.29796L26.8793 9.04929L26.9407 8.85035L27.1834 8.6519L27.5489 8.40324L28.2185 8.05514L29.3133 6.96154L29.6174 6.91127H30.0431L30.3472 6.96154L32.1104 7.55781L32.4145 7.50755L32.7186 7.30915L33.3882 6.16529L33.5098 5.81719L33.5707 5.51826L33.5098 5.2696L33.5707 5.02094L33.6321 4.77228L33.6935 4.57388L34.6672 3.08192L34.9713 2.83325L35.3369 2.58459L35.8234 2.28567L36.0059 2.18671L36.0673 1.93805L35.9456 1.24233V0.993673L36.0071 0.745012L36.1287 0.546071L36.3714 0.39685L36.6755 0.29741H36.9796L37.2837 0.348101L37.5264 0.447116L37.7094 0.546071L37.9521 0.596277L38.1948 0.646543L38.3778 0.547042L38.6205 0.149221L38.7415 0.0497201L38.9842 0L39.1673 0.0989545L39.3497 0.29741L39.4112 0.645511L39.4726 0.894172L39.4112 1.14283L38.986 1.69042L37.4041 2.6348L37.1 3.03268L36.6128 4.32619L36.5514 4.57485L36.6128 4.92301L36.7959 5.37007L38.3778 8.70216L38.6819 9.09999L38.986 9.34865L39.7153 9.94547L39.8983 10.0444L40.6275 10.2931L41.1147 10.4915L41.6615 10.8898L41.8439 11.0883L41.9054 11.2867L41.9668 11.5856L40.9931 15.1171L41.0545 15.416L41.1755 15.7144L41.5411 16.1128L41.7837 16.5106L42.027 17.2064L42.2697 18.4999L43.0603 20.6389L43.303 20.9865L43.4861 21.1362L43.7902 21.4838L44.5808 22.8768L44.8235 23.2244L45.0066 23.3239L45.4317 23.6223L45.5533 23.772L45.7358 23.9212L45.9189 24.1698L46.4656 25.2148L46.5867 25.6618L46.6481 26.01L46.2826 26.5575L45.9785 26.8062L45.5533 27.105L45.3703 27.3035L45.3094 27.6023L45.3703 28.0495L45.9785 29.5916L46.1001 29.8403L46.4656 30.6361L46.6481 31.283L46.5867 31.8794L45.7358 32.9242L46.8908 35.6595L47.2563 36.207L47.3177 36.4055L47.3791 36.6541L47.1967 37.052L46.5885 37.8974L46.2844 38.0467L46.0411 38.0969L45.7984 38.1963L45.616 38.3948L45.4943 38.6434L45.4329 38.9915L45.1902 39.3894L45.0686 39.4396L44.7037 39.6381L44.278 39.7873L44.0955 39.9369L44.0341 40.1856L44.0955 40.4845L44.3996 40.8823L44.5206 41.2305L44.6423 41.5781L44.5206 42.0754L44.3382 42.3241L44.2165 42.5728L43.9739 42.7225L43.7914 42.7727H43.4873H43.2422H42.9381L42.8171 43.1203L42.7556 43.6176L43.1212 45.7566L43.2422 46.0053L43.4253 46.3036L44.9458 47.7956L45.0072 47.9946L45.0686 48.2432L45.0072 48.7405L44.8241 49.4865L44.9458 50.7298V50.9785L44.7627 51.4256V51.6743L44.9458 52.0219L45.4925 52.5694L45.7966 52.9678L46.1622 53.564L46.5873 53.9122L47.4388 54.4095L47.5598 54.6079L47.6814 54.9069L47.62 55.4042L47.5586 55.7026V56.1009L47.6802 56.3496L48.8966 57.5929L48.958 58.488L48.8364 59.234L49.0195 60.1297L49.1405 61.1244L49.2621 61.5715L49.6277 62.119L51.999 64.6056L53.3979 65.8986L54.6757 66.297L54.9184 66.4955L55.1014 66.7441L55.2225 67.1912V67.4901L55.04 67.8382V67.9874L56.1347 69.1317L56.4388 69.3804L56.8044 69.5788L57.5342 69.6778H57.8991L58.2647 69.6281L58.9945 69.4784L59.1155 69.4281H59.2986L59.5413 69.6271L59.7237 69.8215Z" fill="#1592ED"/>
</svg>
