<svg width="169" height="177" viewBox="0 0 169 177" fill="none" xmlns="http://www.w3.org/2000/svg">
<path fill-rule="evenodd" clip-rule="evenodd" d="M77.2545 127.165L76.0484 119.128L75.8805 118.025L75.8271 117.12L75.9378 116.413L76.0484 115.882L76.1286 115.642L76.4415 115.748L76.9072 115.689L77.3346 115.575L77.3613 115.567L77.9682 115.116L78.7811 114.569L79.991 114.931L82.1855 116.16L82.8457 115.975L83.3381 115.84L83.132 114.977L83.0747 114.392L82.9831 113.836L83.1778 113.815L83.4373 113.769L83.5709 113.693L83.4983 113.499L83.4793 113.125L83.3762 112.792L83.3228 112.569L83.1053 112.506L82.8076 112.342L82.6816 112.127L82.5709 111.752L82.3305 111.626L82.0252 111.5L81.7046 111.395L81.7122 111.378L81.7924 111.205L81.9221 110.793L81.9565 110.776L82.2847 110.481L82.4946 110.035L82.6892 109.656L83.1205 109.601L83.6968 109.391L84.0899 109.336L84.586 109.298L84.6853 109.277L84.6509 109.092L84.5517 108.801L84.2807 108.288L84.1281 107.635L84.1548 106.797L84.0174 105.888L83.922 104.793L84.5327 104.772L86.5134 104.638L87.3569 104.629L88.5591 104.536L88.8835 105.698L89.5018 106.721L89.6201 107.201L89.4942 107.871L89.2155 108.456L88.5438 109.163L89.872 109.77L90.5017 110.089L90.9864 110.266L91.3757 110.224L91.4482 110.216L91.9329 110.009L92.223 109.681L92.5283 109.369L92.9634 109.062L94.7648 108.961L94.635 110.266L94.6579 110.393L95.6769 110.624L96.2227 110.683L96.612 110.75L97.1196 110.906L97.8218 111.432L98.2989 111.828L99.2988 112.632L99.795 112.906L100.306 113.028L101.054 113.125L102.051 113.045L102.768 113.041H102.959L103.081 113.028L103.386 112.35L103.856 111.845L104.657 111.251L105.26 110.734L105.776 110.22L106.18 109.664L106.817 108.658L107.272 108.102L107.524 107.719L107.684 107.425L107.718 107.117L107.714 106.772L107.76 106.578L107.817 106.321V106.145L107.718 105.976L107.653 105.77L107.745 105.513L108.073 105.021L108.47 104.532L109.497 104.229L110.161 104.195L111.058 104.149L111.939 103.947L112.516 103.934L113.664 103.838L114.531 103.24L114.569 103.21L114.618 103.181L115.344 102.655L115.382 102.617L115.389 102.604L115.695 102.73L115.916 103.29L115.924 103.328L116.145 103.779L116.405 104.036L116.679 104.288L117.153 104.381H117.202L117.279 104.402H117.355L117.912 104.162L117.958 104.132L117.996 104.09L118.408 103.577L118.42 103.556L118.458 103.518L119.057 102.806L119.095 102.768L119.698 102.272V102.259L119.694 101.846L119.946 101.076L119.977 101.046L120.832 100.263L120.843 100.255L121.358 99.4846L121.378 99.4719L121.847 98.8994L122.481 98.5626L122.992 98.411L123.469 98.3015L124.244 97.8722L125.103 97.5607L125.717 97.5101L126.156 97.4386L126.606 96.8239L127.007 96.0071L127.343 95.3967L127.946 94.8116L128.179 94.3316L128.473 94.159L128.831 94.1211L129.041 93.8728L129.19 93.6159L129.492 93.2707L129.633 92.9633L129.705 92.795H129.736L130.156 92.6014L130.9 92.4835L131.904 92.4792L132.442 92.454H132.9L133.094 92.4245L133.854 92.0835L134.51 91.8267L134.896 91.7383L135.388 91.7257L136.331 91.7299L136.697 91.7341L136.884 91.6625L137.388 91.3384L138.033 91.0394L138.357 90.9721L139.14 90.9973L139.918 90.9216L140.792 90.8921L141.094 91.0268L141.441 91.2331L141.727 91.473L142.159 92.0709L142.521 92.4287L142.956 92.7571L143.464 93.0728L143.811 93.2917L144.678 94.1211L145.246 94.7357L145.536 95.0641L145.99 95.4725L146.349 95.8008L146.601 96.1166L146.765 96.4197L146.826 96.727L146.99 97.127L147.082 97.3964L147.132 97.8259L146.964 98.3985L146.819 98.811L146.67 99.4509L146.647 99.8845L146.651 100.141L146.739 100.381L146.926 100.68L147.326 100.954L147.536 101.181L147.735 101.51L147.887 102.002L148.009 102.667L148.051 103.038L148.151 103.829L148.296 104.179L148.651 104.713L149.215 105.581L149.708 106.153L150.067 106.321L150.773 106.73L151.261 107.02L151.601 107.307L151.807 107.471L152.066 107.9L152.154 108.405L152.227 108.852L152.307 109.104L152.54 109.34L153.017 109.572L153.448 109.908L153.933 110.296L154.337 110.645L154.673 110.978L155.074 111.618L155.505 112.186L155.707 112.615L155.852 113.125L155.894 113.676L155.936 113.891L156.07 114.182L156.173 114.56L156.23 114.977L156.318 115.234L156.475 115.512L156.917 115.924L157.295 116.16L157.65 116.333L157.971 116.413L158.722 116.333L159.669 116.253L160.104 116.291L160.65 116.48L160.951 116.72L161.218 117.002L161.444 117.436L161.543 117.693L161.619 118.173L161.68 118.332L161.699 118.358L162.012 118.753L162.451 119.145L162.844 119.595L163.157 119.983L163.623 120.366L163.787 120.526L164.001 120.745L164.108 121.044L164.169 121.343L164.276 121.679L164.447 121.886L164.795 122.34L164.997 122.702L165.1 123.153L165.153 123.603L165.161 123.725L164.779 123.906L164.287 124.285L164.085 124.589L163.966 124.887L163.749 125.355L163.455 125.881L163.138 126.315L162.863 126.601L162.31 126.9L162.092 126.917L161.844 126.853L161.547 126.803L161.054 126.778L160.707 126.887L160.241 127.064L159.707 127.295L159.234 127.476L158.654 127.708L158.44 127.843L158.314 127.965L157.814 128.407L158.207 129.148L157.425 129.207L155.864 130.007L154.135 130.192L152.711 131.577L151.647 132.752L151.07 133.476L150.54 133.93L150.261 135.101L150.005 135.185L149.631 135.219L149.326 135.29L149.154 135.412L148.902 135.694L148.624 135.909L148.235 136.136L147.803 136.482L147.578 136.671L146.979 137.286L146.719 137.479L146.322 137.707L146.044 137.681L145.658 137.665L145.639 137.724L145.601 137.93L145.582 138.385L145.643 138.696L145.658 138.721L145.826 139.003L146.155 139.218L146.532 139.441L146.643 139.559L146.685 139.723L146.601 139.862L146.231 140.148L146.025 140.351L146.006 140.456V140.485L146.032 140.633L146.055 140.662L146.071 140.692L146.288 140.843L146.62 141.003L146.926 141.1L146.983 141.113L147.063 141.167V141.201L147.044 141.34L147.032 141.369L146.75 141.942L146.67 142.274L146.662 142.304L146.723 142.498L146.739 142.531L146.765 142.569L147.025 142.91L147.044 142.931L147.593 143.386L147.845 143.58L147.941 143.63L148.101 143.626L148.681 143.466L149.063 143.411L149.544 143.449L149.578 143.453L149.952 143.55L150.2 143.761L150.616 144.089L150.899 144.144L151.066 144.135L151.456 143.912L151.734 143.862L152.078 143.891L152.376 144.127L152.498 144.375L152.616 144.657L152.853 144.998L153.234 145.209L153.646 145.356L154.089 145.482L154.429 145.647L154.601 145.706H154.631L154.727 145.651L155.238 145.234L155.406 145.074L155.601 145.019L156.066 145.024L156.356 145.15L156.562 145.251L156.745 145.226H156.787L157.001 145.179L157.085 145.209L157.314 145.449L157.597 145.676L157.868 145.765L158.146 145.781L158.329 145.857L158.627 146.076L158.829 146.207L159.146 146.291L159.345 146.303H159.39L159.551 146.261L159.585 146.223L160.032 145.777L160.31 145.592L160.772 145.263L161.287 145.12L161.715 145.108L162.085 145.167L162.493 145.251L163.276 145.36L163.547 145.445L163.573 145.466L163.722 145.613L164.024 146.186L164.241 146.611L164.264 146.64L164.63 147.301L164.852 147.752L164.94 148.362L164.898 148.796L164.917 149.726L164.943 150.147L164.978 150.29L165.146 150.467H165.176L165.363 150.564L165.405 150.593L165.424 150.61L165.749 150.909L165.917 151.389L165.997 152.033L166.077 152.644L166.165 152.867L166.287 153.069L166.653 153.473L166.943 153.784L167.107 154.062L167.329 154.462L167.478 154.862L167.554 155.22L167.642 155.59L167.772 155.944L168.096 156.348L168.176 156.399L168.333 156.567L168.344 156.601L168.39 156.74L168.371 156.769L168.249 156.9L168.218 156.912L168 156.976L167.504 157.14L167.233 157.338L167.119 157.54V157.569L167.111 157.935L167.123 158.39L167.077 158.58L166.852 158.706L166.833 158.765L166.092 159.27L165.504 159.779L163.978 160.297L164.069 162.689L162.363 163.299L161.486 164.772L161.516 165.551L161.077 168.065L160.665 171.382L159.367 172.662L158.684 173.946L157.318 174.321L155.612 172.136L155.028 171.205L154.246 169.951L153.494 168.894L151.834 168.161L151.876 167.787L151.681 167.294L151.379 166.877L150.574 166.898L149.944 166.751L149.941 166.216L150.364 165.661L150.555 165.303L150.421 164.945L150.051 165.311L149.551 165.913L149.051 165.888L148.689 165.522L148.177 165.661L147.441 165.783L147.017 166.111L146.662 166.275L146.487 166.616L146.361 166.233L146.204 165.61L145.884 165.189L145.338 165.421L144.7 165.568L144.139 165.518L143.567 165.484L143.246 165.816L142.54 166.035L142.052 165.913L141.689 165.387L141.537 164.937L141.239 164.566L140.735 164.09L140.231 163.817L139.754 163.455L139.407 163.303L139.006 162.899L138.815 162.541L138.388 162.718L137.77 162.276L136.594 162.924L135.579 163.615V160.853L134.877 159.906L133.51 158.411L132.591 158.201L131.671 157.704L129.717 156.458L129.144 155.502L128.698 154.887L128.625 154.454L128.747 154.155L129.03 153.688L131.495 153.822L134.159 153.144L135.113 152.088L134.43 150.353L133.339 148.846L131.152 148.244L127.957 147.465L127.545 146.842L127.076 146.358L126.599 146.127L126.24 145.866L125.751 145.487L125.496 145.217L125.225 144.88L124.858 144.779L124.477 144.493L124.152 144.27L123.813 143.857L123.148 143.255L122.446 142.527L121.484 142.237L120.79 142.544L120.336 142.767L120.095 143.053L119.828 143.079L119.672 142.594L119.565 142.392L119.099 141.744L118.927 141.138L118.752 140.713L118.542 140.144L118.099 139.555L117.924 138.852L117.473 138.734L117.172 138.519L116.599 138.174L116.294 138.077L115.886 137.812L115.542 137.5L115.248 137.096L114.874 136.511L114.466 136.002L114.206 135.766L113.954 135.395L113.645 135.046L113.439 134.831L113.138 134.574L112.703 134.406L112.145 134.082L111.676 133.467L111.317 133.257L110.829 133.067L110.665 132.516L110.561 132.171L110.264 131.868L109.878 131.493L109.607 130.945L109.222 130.676L109.119 130.588L106.588 130.815L105.386 130.369L105.195 130.415L104.417 130.668L103.615 131.021L103.062 131.291L102.455 131.543L101.833 131.249L101.314 130.777L100.7 129.901L100.238 129.497L99.9324 130.007L99.9667 130.617L100.352 131.034L100.65 131.396L100.608 131.969L100.18 132.625L99.5164 132.966L99.1424 133.021L98.8867 133.118L98.7989 132.768L98.7035 132.259L98.5546 131.88L98.547 131.19L98.005 128.681L96.3105 127.384L94.7648 127.232L94.0511 127.165L93.6236 126.731L93.2687 126.55L92.6008 126.281L92.2077 126.264L91.5207 126.218L90.6047 126.142L89.5552 126.39L88.353 126.828L87.9179 126.946L87.2424 126.521L86.5058 127.266L85.773 127.397L85.1051 127.514L83.9181 126.925L83.4755 126.201L82.9068 125.595L80.6245 125.919L80.3268 126.613L79.594 126.651L79.3307 127.3L77.6399 127.683L77.4453 127.089L77.4262 127.098L77.2545 127.165Z" fill="#1592ED"/>
<path fill-rule="evenodd" clip-rule="evenodd" d="M75.8462 58.2111L77.3843 57.9122L78.4758 57.8953L79.8498 57.8449L81.7008 57.6723L82.8152 57.5796L83.2045 58.6616L83.6319 59.0068L84.8952 59.3184L85.1472 59.853L86.0135 59.9836L87.2729 60.1182L88.5095 60.1898L89.0858 59.9961L89.8491 60.2192L90.2003 60.636L90.3338 60.6571L90.7766 60.876L91.0933 61.2297L91.6162 61.7517L92.1696 62.3326L92.4902 62.9052L92.6276 63.5956L92.5932 64.2187L92.4596 64.7829L92.2955 65.2333L91.9826 65.667L91.8413 66.2563L91.8643 66.5889L92.0208 66.9005L91.9482 67.2499L92.0169 67.6961L92.0742 68.4876L92.1085 68.7359L92.223 68.8328L92.2268 68.9422L92.1848 69.136L92.1314 69.359L92.0704 69.5737L92.0055 69.6832L91.8795 69.7422L91.8108 69.8601L91.7459 69.9737L91.578 70.0158L91.4139 70.0874L91.3834 70.2937L91.4292 70.5167L91.5513 70.6683L91.6811 70.6936L91.9292 70.5884L92.1543 70.5294L92.2803 70.5547L92.4176 70.6431L92.4902 70.7862L92.4711 70.8536L92.3833 71.1146L92.1887 71.3924L92.1352 71.5819L92.1009 71.763L92.1047 71.8934L92.0131 72.2555L91.9978 72.5333L91.9139 72.7649L91.891 73.0344L91.8795 73.2154L91.7459 73.4385L91.6391 73.6953L91.5399 73.9226L91.3223 74.1795L91.2345 74.5037L91.2269 74.6089L91.2918 74.7604L91.4673 74.9835L91.7497 75.1898L91.9559 75.3288L91.9902 75.4761L91.9444 75.6698L91.7994 75.8002L91.4826 76.2002L91.2994 76.3855L91.2613 76.5581V76.8527L91.2498 77.1433L91.1468 77.3874V77.3958L91.1162 77.6779L91.1429 77.8841L91.265 78.1536L91.5551 78.3431L91.8032 78.423L92.0131 78.5451L92.2078 78.7052L92.2574 78.8693L92.2039 79.164L92.0131 79.3156L91.578 79.5934L91.0895 79.7577L90.9788 79.9007L90.9636 80.065L91.1506 80.1996L91.4406 80.2965L91.6353 80.4775L91.7269 80.8101L91.807 81.109L91.8223 81.1427L91.952 81.2942L92.0894 81.3153L92.2841 81.2563L92.4291 81.29L92.5665 81.5637L92.6734 81.9805L92.6619 82.2626L92.4711 82.8645L92.0666 83.7529L91.6773 84.3886L91.4826 84.7717L91.3223 85.0748L91.0513 85.4369L91.0208 85.462L90.8452 85.6221L90.7498 85.9378L90.7269 86.2494L90.8987 86.5482L91.2956 87.0787L91.7994 87.6007L92.036 88.0175L92.0932 88.367L91.9978 88.5817L91.7345 88.6616H91.7078L91.4215 88.6532L91.0819 88.5311L90.8567 88.3923L90.6964 88.4427L90.559 88.6954L90.6201 88.9521L90.8605 89.0911L91.0322 89.3815L91.1887 89.8657L91.4254 90.5477L91.7001 90.7582L92.1047 91.1623L92.2536 91.5118V91.7938L92.0704 92.0043H91.8948L91.5475 91.777L91.2078 91.4108L90.9559 90.956L90.7346 90.5983L90.5399 90.5057L90.3071 90.6192L90.185 91.0277L90.0171 91.5624L89.9903 91.9959L89.8644 92.1306L89.5056 92.598L88.9141 93.0021L88.5324 93.4231L88.5057 93.8904L88.6851 94.2904L88.9904 94.6146L89.3873 94.9344L89.4789 95.1155L89.5285 95.3681L89.4827 95.6418L89.3606 95.8607L89.1545 95.8354L88.9026 95.6712L88.6775 95.5239L88.4904 95.4817L88.2691 95.6038L88.1012 95.8523L88.0286 96.1301L88.1775 96.4627L88.3874 96.6521L88.6049 96.6985L88.7957 96.6605L88.8377 96.7869L88.8492 97.1026L88.7614 97.5531L88.5591 98.0836L88.3416 98.4161L87.9981 98.6771L87.8073 98.8455L87.792 99.0224L87.9141 99.2118L88.2118 99.2665L88.4637 99.2918L88.624 99.4054L89.021 100.012L89.4331 100.462L90.0819 101.14L90.5513 101.544L91.0055 101.915L91.1887 102.163L91.1849 102.432L91.1238 102.849L90.8224 103.27L90.4636 103.746L90.0972 104.276L89.5705 104.786L89.2919 105.186L89.2461 105.455L89.3606 105.737L89.6278 105.876L90.0209 106.074L90.643 106.318L91.1162 106.482L91.3605 106.621L91.5475 106.937L91.5971 107.421L91.5857 107.771L91.3681 107.905L90.8948 108.036L90.6544 108.128L90.6162 108.427L90.8109 108.718L90.9903 109.143L91.1315 109.442L91.2383 109.665L91.2613 110.006L91.3681 110.217L91.3757 110.225L90.9864 110.267L90.5017 110.09L89.872 109.77L88.5439 109.164L89.2156 108.457L89.4942 107.872L89.6201 107.202L89.5018 106.722L88.8835 105.699L88.5591 104.537L87.3569 104.63L86.5135 104.638L84.5327 104.773L83.922 104.794L84.0174 105.889L84.1549 106.798L84.1281 107.636L84.2808 108.288L84.5517 108.802L84.651 109.093L84.6853 109.278L84.5861 109.299L84.09 109.337L83.6968 109.391L83.1205 109.602L82.6893 109.657L82.4946 110.036L82.2847 110.482L81.9565 110.776L81.9221 110.793L81.7924 111.206L81.7123 111.378L81.7046 111.395L81.6817 111.391H81.4298L80.9298 111.48L78.2506 112.039L78.0064 112.069L77.556 112.187L77.3118 112.191L77.2202 112.187L76.9072 112.153L76.6134 112.086L76.1248 111.981L75.579 111.846L75.5332 111.555L75.3272 110.44L75.0409 108.97L74.9417 108.596L74.9493 108.57L75.0829 108.217L75.2966 107.139L75.3043 106.604L75.3768 106.112L75.5371 105.716L75.5867 104.571L75.9531 103.952L76.4912 103.586L77.4492 102.87L78.2392 102.272L78.3728 102.079L78.6285 101.485L78.8804 100.205L78.972 99.6706L79.0025 98.6813L78.8613 97.7594L78.6552 96.4248L78.4834 95.4186L78.2163 94.5134L78.0025 93.4568L77.8919 92.8842L77.7469 91.8906L77.6247 90.8256L77.598 90.0383L77.4797 89.4615L77.3537 89.0447L77.2698 87.866L77.0751 87.2429L77.056 86.5482L76.8462 85.9883L76.8729 85.3989L77.0484 84.9442L77.1744 84.6327L77.0446 84.4012L76.7927 83.9802L76.6362 83.0498L76.3882 81.4121L76.266 80.8564L76.205 79.926L76.0829 79.1513L75.9989 77.9431L75.8844 76.8991L75.8767 76.2002L75.9722 75.7456L76.2813 75.5435L76.3843 75.5224L76.7278 75.4634L77.4034 75.3666H77.4148L77.7659 75.2656L77.8499 74.9625L77.827 74.773L77.4377 74.3731L77.0484 73.6448L76.6782 72.8701L76.3462 71.8976L76.1935 71.3125L76.2699 70.2052L76.3843 69.6496L76.6019 68.896L76.6286 68.2518L76.5637 68.1297L76.3385 68.0624L76.2966 67.974L76.3805 67.6203L76.537 67.153L76.4034 66.7784L76.2164 66.0163L76.1973 66.0037L75.9683 65.7174L75.8576 65.3175L75.8653 64.9428L76.2279 64.4376L76.4683 63.9619L76.6057 63.5367L76.6134 63.1831L76.4073 62.8968L76.0943 62.6442L75.9874 62.4421L75.9836 62.1769L75.9798 61.7559L75.8653 60.8129L75.8615 60.3456L75.9531 59.6803L76.121 59.0237L75.8462 58.2153V58.2111Z" fill="#1592ED"/>
<path fill-rule="evenodd" clip-rule="evenodd" d="M74.9417 108.596L75.0409 108.97L75.3272 110.44L75.5332 111.555L75.579 111.846L76.1248 111.98L76.6133 112.086L76.9072 112.153L77.2202 112.187L77.3118 112.191L77.556 112.187L78.0063 112.069L78.2506 112.039L80.9298 111.479L81.4298 111.391H81.6817L81.7046 111.395L82.0252 111.5L82.3305 111.627L82.571 111.753L82.6816 112.128L82.8076 112.342L83.1053 112.507L83.3228 112.57L83.3763 112.793L83.4793 113.126L83.4984 113.5L83.5709 113.694L83.4373 113.77L83.1778 113.816L82.9831 113.837L83.0747 114.393L83.132 114.978L83.3381 115.841L82.8457 115.976L82.1855 116.161L79.991 114.932L78.7811 114.57L77.9682 115.117L77.3614 115.567L77.3346 115.576L76.9072 115.689L76.4416 115.748L76.1286 115.643L76.0485 115.883L75.9378 116.413L75.8271 117.121L75.8806 118.026L76.0485 119.129L75.4684 118.961L75.0562 118.796L74.6783 118.636L74.3768 118.337L74.0028 117.963L73.5868 117.521L73.3006 117.306L73.2357 117.268L72.9265 117.163L72.4457 117.138L71.3312 117.112L70.5603 117.171L69.713 117.26L69.7092 117.517L69.2245 117.5L68.9192 117.563L68.3047 117.731L67.3238 117.95L67.1864 117.777L67.072 117.668L66.7437 117.495L66.2896 117.243L66.114 117.133L65.8468 116.637L65.6179 116.186L65.4079 116.14L64.9347 116.056L64.6942 116.102L63.95 116.249L63.6714 116.405L63.6256 116.232L63.4959 115.588L63.4005 115.146L63.263 114.847L63.1104 114.527L63.0722 114.212L63.0837 114.026V113.989L63.3852 113.307L63.6905 112.561L63.5531 112.422L63.4157 112.027L63.2936 111.804L63.0302 111.656L63.015 111.652L62.8432 111.437L62.5379 111.185L62.2135 110.696L62.141 110.44L62.0875 110.267L62.0112 110.107L61.7097 109.791L61.538 109.581L61.4845 109.362L61.4807 109.206L61.4388 109.008L61.1181 108.465L60.9388 108.095L60.7747 107.766L60.6945 107.421L60.6067 106.958L60.6029 106.95L61.0456 106.827L61.412 106.718L61.8586 106.621L62.3242 106.529L62.8012 106.423L63.2668 106.39L63.6714 106.318L64.137 106.293L64.4652 106.28L64.5759 106.31L64.7438 106.221L65.0988 106.137L65.0873 105.935L65.1408 105.729L65.1103 105.518L65.1255 105.337L65.1942 105.253L65.7591 105.051L66.1331 104.925L66.53 104.861L66.6827 104.84L66.7552 104.891L66.8964 105.051L67.1178 105.19L67.1826 105.249L67.2475 105.346L67.4498 105.687L67.507 105.767L67.5872 105.8H68.0375L68.381 105.762L68.5719 105.724L68.9535 105.442L69.0222 105.375L69.4344 105.825L69.7283 106.192L69.9611 106.44L70.1901 106.596L70.7778 106.68L71.7243 106.827L73.4418 107.105L73.7395 107.16L74.1898 107.695L74.6821 108.225L74.9302 108.554L74.9417 108.596Z" fill="#1592ED"/>
<path fill-rule="evenodd" clip-rule="evenodd" d="M75.8462 58.2111V58.2153L76.121 59.0237L75.9531 59.6804L75.8615 60.3456L75.8653 60.8129L75.9798 61.7559L75.9836 62.1769L75.9875 62.4421L76.0943 62.6442L76.4073 62.8968L76.6134 63.1831L76.6057 63.5367L76.4683 63.9619L76.2279 64.4376L75.8653 64.9428L75.8577 65.3175L75.9684 65.7175L76.1973 66.0037L76.2164 66.0164L76.4034 66.7784L76.537 67.153L76.3805 67.6204L76.2966 67.974L76.3385 68.0624L76.5638 68.1298L76.6286 68.2519L76.6019 68.896L76.3843 69.6496L76.2699 70.2052L76.1935 71.3125L76.3462 71.8976L76.6782 72.8702L77.0484 73.6448L77.4377 74.3731L77.827 74.7731L77.8499 74.9625L77.7659 75.2656L77.4148 75.3666H77.4034L76.7278 75.4634L76.3843 75.5224L76.2813 75.5435L75.9722 75.7456L75.8768 76.2002L75.8844 76.8991L75.9989 77.9432L76.0829 79.1514L76.205 79.926L76.2661 80.8564L76.3882 81.4121L76.6362 83.0498L76.7927 83.9803L77.0446 84.4013L77.1744 84.6327L77.0484 84.9442L76.8729 85.399L76.8462 85.9883L77.0561 86.5483L77.0752 87.243L77.2698 87.866L77.3538 89.0447L77.4797 89.4615L77.598 90.0383L77.6247 90.8256L77.7469 91.8907L77.8919 92.8843L78.0026 93.4568L78.2163 94.5134L78.4834 95.4186L78.6552 96.4248L78.8613 97.7594L79.0025 98.6814L78.972 99.6706L78.8804 100.205L78.6285 101.485L78.3728 102.079L78.2392 102.272L77.4492 102.87L76.4912 103.586L75.9531 103.952L75.5867 104.571L75.5371 105.716L75.3768 106.112L75.3043 106.604L75.2966 107.139L75.0829 108.217L74.9493 108.571L74.9417 108.596L74.9303 108.554L74.6822 108.225L74.1898 107.695L73.7395 107.16L73.4418 107.105L71.7244 106.828L70.7779 106.68L70.1901 106.596L69.9611 106.44L69.7283 106.192L69.4344 105.826L69.0223 105.375L68.9535 105.443L68.5719 105.725L68.3811 105.763L68.0376 105.8H67.5872L67.5071 105.767L67.4498 105.687L67.2476 105.346L67.1827 105.249L67.1178 105.19L66.8964 105.051L66.7552 104.891L66.6827 104.84L66.53 104.862L66.1331 104.925L65.7591 105.051L65.1942 105.253L65.1255 105.337L65.1103 105.518L65.1408 105.729L65.0874 105.935L65.0988 106.137L64.7439 106.221L64.576 106.31L64.4653 106.28L64.1371 106.293L63.6715 106.318L63.2669 106.39L62.8013 106.423L62.3242 106.529L61.8586 106.621L61.412 106.718L61.0457 106.828L60.6029 106.95L60.5877 106.954L60.2442 107L59.8129 107.24L59.771 107.257L59.145 107.56L58.5534 107.838L58.0535 108.07L57.7443 108.272L57.4581 108.596L57.149 108.89L57.1452 108.907L56.8284 109.16L56.8017 109.181L56.4849 109.358L56.4696 109.362L56.0956 109.37L55.172 109.269L54.8514 109.215L54.7178 109.177L54.5461 109.151L54.5194 109.135L54.2789 109.139L54.0461 109.177H54.0232L53.6874 109.185L53.4393 109.189L53.4011 109.181L53.2408 109.139H53.2179L53.05 109.118H53.0156L52.8668 109.143H52.8516L52.6111 109.168H52.5996L52.3707 109.185H52.3516L52.0959 109.164L51.8821 109.13L51.7142 109.118L51.6989 109.109L51.489 109.105L51.3326 109.135L51.199 109.24L51.157 109.252L50.9967 109.328L50.8173 109.354H50.7982L50.5502 109.341L50.3441 109.232L50.0693 109.189L49.7945 109.194H49.783L49.8021 106.84L49.7258 102.462L49.6227 102.028L47.3137 100.05L45.8787 99.0897L44.4246 97.772L43.9743 97.2541L43.5888 97.1573L43.5354 96.4922L43.1041 95.9533L42.6995 95.3513L42.6347 94.8418L42.7415 94.2398L42.5583 93.7347L42.2377 93.4147L41.795 93.0695L41.0393 93.019L40.6958 92.5769L40.3905 92.0465L40.5241 91.335L39.8638 91.1455L39.2265 91.2129L38.4593 91.2802L37.7838 91.0319L37.3335 90.413L37.0777 89.6637L36.3984 89.171L36.3106 88.4343L36.2839 87.7524L36.0473 87.2135L35.4557 86.9146L34.8336 86.7503L34.4863 86.3083L34.5169 85.4831L34.3413 84.8811L34.5169 84.0349L34.0283 83.6477L33.7574 83.0919L33.3833 82.4731L33.3986 81.5974L33.3872 80.848L33.5894 79.8923L33.1772 79.3493L32.7116 78.663L31.5323 79.0798L30.9674 79.1682L30.8988 78.1789L30.353 77.4969L29.2271 76.1961L27.5898 75.3162L27.1929 75.9856L26.4945 76.3054L25.5518 75.855L23.8687 76.217L23.0252 76.5581L22.4986 76.9622L21.6703 77.7242H21.3268L20.1552 77.0381L19.1247 77.1138L18.6324 75.9139L17.9607 75.6488L17.3195 75.7287L16.9722 76.0318L16.0257 75.9603L15.4379 75.8171L15.0295 75.4256L14.6555 75.3288L14.6746 75.0846L14.5678 74.5246L14.4723 73.8974L13.8999 73.4048L13.2167 72.9123L13.1557 72.6217L13.2053 71.7882L13.2243 70.5968L12.587 70.34L12.0679 70.441L11.6825 70.1379L11.3352 69.7043L10.1062 68.7992L9.49555 67.7425L9.4574 67.2331L10.1444 66.9383L10.568 66.6394L11.2588 65.4144L12.3313 63.9324L13.0984 62.9599L12.9457 62.1559L12.3694 61.6507L12.7167 61.1833L13.3274 61.0992L13.4877 60.3751L13.8083 60.215L13.8388 60.1224L13.9762 59.6678L14.2014 59.2973L14.0029 58.8594L13.3999 58.5816L13.5564 58.148L13.2587 57.3817L12.9114 56.3377L12.0565 56.043L11.8199 55.2978L11.2245 54.4221H12.0183V54.4012L13.8922 54.4054L18.0637 54.2959L23.3344 54.1022L23.9374 53.5928L24.2275 53.2981L24.2465 53.2855L24.2733 53.2771L24.3114 53.2644L24.9144 53.2308H24.9373L25.4945 53.3403L25.5213 53.3445L26.254 53.517L26.8723 53.7613L27.0555 53.8581L27.4104 53.8875L28.3111 53.8623L29.0096 53.8665L30.0515 54.0138L30.0629 54.018L30.6812 54.119L33.1581 54.1064L34.3795 53.6307L34.9061 54.9064L35.7572 56.3588L37.1388 55.7483L37.9021 55.2179H38.9364L39.4478 54.5443L42.1843 54.119L43.8559 53.3445L43.9132 52.8561L43.9361 52.6582L45.9932 54.0728L46.684 55.4452L48.6228 55.7483L52.7332 54.6032L52.6836 55.5083L55.4201 55.5252L56.8818 55.5126L56.9543 55.5463L57.7367 55.8872L58.5153 56.3967L58.8359 56.986L59.3244 57.0997L59.9541 57.0913L59.9694 57.0744L60.7441 56.7209L62.5227 56.746L63.057 56.7966L63.1295 56.7587L63.9424 56.5988L63.9615 56.5777L64.553 56.5524L64.8851 56.5146L65.6293 56.6198L66.4461 56.9019L66.7628 57.3229L67.0987 57.6049L67.1369 57.626L67.488 57.8911L67.7132 58.1943L68.236 58.6111L68.8849 58.8763L68.9192 58.8721L69.4955 58.9647H69.5489L70.5679 58.8426L71.9343 58.809L72.8388 58.6489L74.1326 58.4848L74.2051 58.4469L74.3158 58.4258L75.4646 58.3416L75.8462 58.2111Z" fill="#1592ED"/>
<path fill-rule="evenodd" clip-rule="evenodd" d="M60.6029 106.949L60.6068 106.958L60.6945 107.421L60.7747 107.766L60.9388 108.094L61.1182 108.465L61.4388 109.008L61.4808 109.206L61.4846 109.362L61.538 109.58L61.7098 109.791L62.0113 110.107L62.0876 110.267L62.141 110.439L62.2135 110.696L62.538 111.184L62.8433 111.437L63.015 111.652L63.0303 111.656L63.2936 111.803L63.4157 112.026L63.5531 112.422L63.6905 112.561L63.3852 113.306L63.0837 113.988V114.026L63.0722 114.211L63.1104 114.527L63.2631 114.847L63.4005 115.146L63.4959 115.588L63.6257 116.232L63.6715 116.405L63.9501 116.249L64.6943 116.102L64.9347 116.055L65.408 116.14L65.6179 116.186L65.8469 116.636L66.1141 117.133L66.2896 117.243L66.7438 117.495L67.072 117.668L67.1865 117.777L67.3239 117.95L68.3048 117.731L68.9192 117.562L69.2245 117.499L69.7092 117.516L69.713 117.259L70.5603 117.171L71.3313 117.112L72.4457 117.137L72.9266 117.163L73.2357 117.268L73.3006 117.306L73.5868 117.52L74.0028 117.963L74.3769 118.337L74.6784 118.636L75.0562 118.796L75.4684 118.96L76.0485 119.129L77.2545 127.165L76.9989 127.266L76.2508 127.637L75.2318 128.121L74.8349 129.043L74.1555 131.228L72.0106 131.527L70.8771 131.3L71.0565 130.975L70.152 130.756L69.6367 130.883L68.6941 130.937L67.8773 130.971L66.9766 131.022L65.2401 130.689L64.1371 130.609L62.2746 130.432L61.5304 130.222L60.9694 130.07L60.3435 129.957L60.0648 129.94L59.7977 130.39L59.561 130.508L59.1412 130.453L58.8664 130.171L58.7061 129.851L58.3894 130.083L57.5307 130.693L57.023 130.765L56.2979 130.011L55.8018 129.86L55.6758 129.691L55.3934 128.799L55.2446 128.462L54.9316 128.26L54.1644 128.395L53.8286 128.155L53.3134 127.258L53.3935 126.589L53.4469 125.368L53.1836 124.703L52.5577 124.345L52.1989 123.583L51.3746 122.741L50.3937 121.701L49.7296 121.221L49.7449 113.908L49.7831 109.193H49.7945L50.0693 109.189L50.3441 109.231L50.5502 109.341L50.7983 109.353H50.8173L50.9967 109.328L51.157 109.252L51.199 109.24L51.3326 109.134L51.489 109.105L51.699 109.109L51.7142 109.117L51.8822 109.13L52.0959 109.164L52.3516 109.185H52.3707L52.5997 109.168H52.6111L52.8516 109.143H52.8668L53.0157 109.117H53.05L53.2179 109.138H53.2409L53.4011 109.181L53.4393 109.189L53.6874 109.185L54.0232 109.176H54.0462L54.279 109.138L54.5194 109.134L54.5461 109.151L54.7179 109.176L54.8514 109.214L55.172 109.269L56.0956 109.37L56.4696 109.362L56.4849 109.357L56.8017 109.181L56.8284 109.159L57.1452 108.907L57.149 108.89L57.4581 108.595L57.7444 108.271L58.0535 108.069L58.5535 107.838L59.145 107.56L59.771 107.257L59.8129 107.24L60.2442 107L60.5877 106.953L60.6029 106.949Z" fill="#1592ED"/>
<path fill-rule="evenodd" clip-rule="evenodd" d="M90.7765 60.8751L92.1504 60.7404L93.7381 60.6562L95.9555 60.732L97.4936 60.6899L98.2416 60.6393L100.287 60.7152L101.52 60.7362H101.551L102.402 60.7446L103.367 60.7825H103.413L104.47 60.7909H104.512L105.348 60.7404L105.409 60.7068L105.482 60.6941L105.524 60.6773L106.314 60.4288L106.417 60.412L107.02 60.3026L107.695 60.311L108.714 60.3026L109.565 60.2226L110.34 60.1089L110.897 60.1805L110.974 60.2099L111.737 60.4668L111.752 60.4794L112.603 60.5215L113 60.6983L113.836 61.254L113.825 61.3551L114.412 62.2897L115.34 63.7506L115.374 63.7799L115.408 63.8137L115.431 63.8347L115.519 64.3947L115.702 64.7104L116.027 65.0682L116.229 65.3587L116.282 65.5945L116.302 66.0954L116.279 66.5123L116.34 66.7606L116.424 67.0259L116.679 67.3543L116.989 67.6321L117.343 67.851L117.607 68.011L117.836 68.3436L118.004 68.6635L118.156 68.9919L118.53 69.3918L118.683 69.6992L118.817 69.9307L118.927 70.3475L118.931 70.3812L118.985 70.7096L119.111 70.9285L119.637 71.4084L120.431 71.9557L120.855 72.3135L121.068 72.5367L121.542 73.0166L122.08 73.526L122.236 73.8123L122.519 74.3554L122.816 74.9322L123.183 75.29L123.557 75.4963L123.66 75.6899L123.767 75.8541L123.851 76.1193L123.961 76.5319L124.095 76.8098L124.431 77.0708L124.877 77.5128L125.24 77.9085L125.518 78.199L125.935 78.6411L126.404 79.0663L126.66 79.2557L126.877 79.5757L127.079 79.8494L127.221 79.9588L127.45 80.0977L127.557 80.2282L127.614 80.565L127.484 81.0702L127.419 81.3902L127.461 81.6386L127.53 81.8322L127.786 81.9417L127.85 81.9964L128.14 82.1396L128.274 82.2954L128.396 82.5858L128.534 82.7542L128.774 82.8468L128.793 82.8721L128.908 83.0404L128.9 83.3184L128.953 83.6804L129.156 83.8699L129.327 83.9667L129.617 84.0425L129.782 84.1014L129.862 84.1899L129.866 84.2403L129.85 84.3245L129.846 84.354L129.831 84.3793L129.514 84.5813L129.003 84.9518L128.728 85.1413L128.526 85.2886L128.503 85.3181L128.492 85.5833L128.453 85.9749L128.221 86.3832L127.976 87.0274L127.881 87.6041L127.911 87.9367L127.938 88.3745L127.911 88.9218L127.839 89.4733L127.869 89.8942L128.018 90.2437L128.328 90.6689L128.621 91.0057L129.034 91.5782L129.209 91.9108L129.438 92.3276L129.575 92.7192L129.64 92.795H129.705L129.633 92.9633L129.492 93.2706L129.19 93.6159L129.041 93.8727L128.831 94.121L128.473 94.159L128.179 94.3315L127.946 94.8115L127.343 95.3967L127.007 96.0071L126.606 96.8239L126.156 97.4385L125.717 97.5101L125.102 97.5606L124.244 97.8722L123.469 98.3015L122.992 98.411L122.481 98.5626L121.847 98.8994L121.378 99.4719L121.358 99.4845L120.843 100.255L120.832 100.263L119.977 101.046L119.946 101.076L119.694 101.846L119.698 102.259V102.272L119.095 102.768L119.057 102.806L118.458 103.518L118.42 103.556L118.408 103.577L117.996 104.09L117.958 104.132L117.912 104.162L117.355 104.402H117.279L117.202 104.381H117.153L116.679 104.288L116.405 104.035L116.145 103.779L115.924 103.328L115.916 103.29L115.695 102.73L115.389 102.604L115.382 102.617L115.344 102.655L114.618 103.181L114.569 103.21L114.531 103.24L113.664 103.838L112.516 103.934L111.939 103.947L111.058 104.149L110.161 104.195L109.497 104.229L108.47 104.532L108.073 105.021L107.745 105.513L107.653 105.77L107.718 105.976L107.817 106.145V106.321L107.76 106.578L107.714 106.772L107.718 107.117L107.684 107.425L107.524 107.719L107.272 108.102L106.817 108.658L106.18 109.664L105.775 110.22L105.26 110.733L104.657 111.251L103.856 111.845L103.386 112.35L103.081 113.028L102.959 113.041H102.768L102.051 113.045L101.054 113.125L100.306 113.028L99.795 112.906L99.2988 112.632L98.2989 111.828L97.8218 111.432L97.1196 110.906L96.612 110.75L96.2227 110.683L95.6769 110.624L94.6579 110.393L94.635 110.266L94.7648 108.961L92.9634 109.062L92.5283 109.369L92.2229 109.681L91.9329 110.009L91.4482 110.216L91.3757 110.224L91.368 110.216L91.2612 110.005L91.2383 109.664L91.1314 109.441L90.9902 109.142L90.8108 108.717L90.6162 108.426L90.6543 108.128L90.8948 108.035L91.368 107.904L91.5856 107.77L91.5971 107.42L91.5474 106.936L91.3604 106.62L91.1162 106.481L90.6429 106.317L90.0208 106.073L89.6277 105.875L89.3605 105.736L89.2461 105.454L89.2919 105.185L89.5705 104.785L90.0971 104.275L90.4635 103.745L90.8223 103.269L91.1238 102.848L91.1848 102.431L91.1887 102.162L91.0055 101.914L90.5513 101.543L90.0819 101.139L89.4331 100.461L89.0209 100.011L88.624 99.4045L88.4636 99.2909L88.2117 99.2656L87.9141 99.2109L87.7919 99.0215L87.8072 98.8446L87.998 98.6762L88.3415 98.4152L88.5591 98.0827L88.7613 97.5522L88.8491 97.1017L88.8377 96.786L88.7957 96.6597L88.6049 96.6976L88.3873 96.6512L88.1774 96.4618L88.0286 96.1292L88.1011 95.8514L88.269 95.603L88.4904 95.4808L88.6774 95.523L88.9026 95.6703L89.1545 95.8345L89.3605 95.8598L89.4827 95.6409L89.5285 95.3672L89.4789 95.1146L89.3873 94.9335L88.9903 94.6137L88.685 94.2895L88.5056 93.8895L88.5324 93.4222L88.914 93.0012L89.5056 92.5971L89.8643 92.1298L89.9903 91.995L90.017 91.5615L90.1849 91.0268L90.3071 90.6183L90.5399 90.5048L90.7345 90.5974L90.9559 90.9552L91.2078 91.4099L91.5474 91.7761L91.8947 92.0034H92.0703L92.2535 91.7929V91.5109L92.1046 91.1614L91.7001 90.7573L91.4253 90.5468L91.1887 89.8648L91.0322 89.3806L90.8604 89.0902L90.62 88.9512L90.5589 88.6945L90.6963 88.4418L90.8566 88.3914L91.0818 88.5302L91.4215 88.6523L91.7077 88.6608H91.7345L91.9978 88.5808L92.0932 88.3661L92.0359 88.0166L91.7993 87.5998L91.2955 87.0778L90.8986 86.5474L90.7269 86.2485L90.7498 85.9369L90.8452 85.6212L91.0208 85.4612L91.0513 85.436L91.3222 85.0739L91.4825 84.7708L91.6772 84.3877L92.0665 83.752L92.471 82.8637L92.6618 82.2617L92.6733 81.9796L92.5664 81.5629L92.429 81.2891L92.284 81.2554L92.0894 81.3144L91.952 81.2934L91.8222 81.1419L91.8069 81.1081L91.7268 80.8093L91.6352 80.4767L91.4406 80.2957L91.1505 80.1987L90.9635 80.0641L90.9787 79.8998L91.0894 79.7568L91.578 79.5925L92.0131 79.3147L92.2039 79.1631L92.2573 78.8684L92.2077 78.7043L92.0131 78.5443L91.8031 78.4221L91.555 78.3422L91.265 78.1528L91.1429 77.8833L91.1162 77.677L91.1467 77.3949V77.3865L91.2497 77.1424L91.2612 76.8518V76.5572L91.2994 76.3846L91.4825 76.1993L91.7993 75.7994L91.9443 75.6689L91.9901 75.4752L91.9558 75.3279L91.7497 75.1889L91.4673 74.9827L91.2917 74.7595L91.2268 74.608L91.2345 74.5028L91.3222 74.1786L91.5398 73.9217L91.639 73.6944L91.7459 73.4376L91.8795 73.2145L91.8909 73.0335L91.9138 72.764L91.9978 72.5324L92.0131 72.2546L92.1046 71.8925L92.1008 71.7621L92.1352 71.581L92.1886 71.3916L92.3832 71.1137L92.471 70.8527L92.4901 70.7854L92.4176 70.6422L92.2802 70.5538L92.1543 70.5285L91.9291 70.5875L91.681 70.6927L91.5512 70.6675L91.4291 70.5159L91.3833 70.2928L91.4138 70.0865L91.578 70.0149L91.7459 69.9729L91.8108 69.8592L91.8795 69.7413L92.0054 69.6823L92.0703 69.5728L92.1313 69.3581L92.1848 69.1351L92.2268 68.9413L92.2229 68.8319L92.1085 68.7351L92.0741 68.4867L92.0169 67.6952L91.9482 67.249L92.0207 66.8996L91.8642 66.588L91.8413 66.2554L91.9825 65.6661L92.2955 65.2325L92.4596 64.782L92.5932 64.2178L92.6275 63.5947L92.4901 62.9043L92.1695 62.3317L91.6161 61.7508L91.0933 61.2288L90.7765 60.8751Z" fill="#1592ED"/>
<path fill-rule="evenodd" clip-rule="evenodd" d="M138.533 26.6154L138.514 26.6616L138.064 27.1374L137.873 27.6679L137.487 27.971L137.228 28.3119L136.812 28.5434L136.117 28.8676L135.735 29.1539V29.2213L135.682 29.6549V29.7265L135.896 30.4421L135.884 31.3473L135.713 31.8525L135.224 32.4671L134.549 32.8166L134.304 33.0776L133.434 33.6838L132.671 34.349L131.755 34.5595L130.778 34.1301L130.32 34.2732L129.938 34.6016L129.919 34.6647L129.328 35.0226L128.843 35.3468L128.625 35.8267L128.137 36.7866L127.602 37.136L127.366 37.5486L127.389 37.5654L127.492 38.5336L127.786 39.5819L127.835 40.1208L128.408 40.5082L128.461 40.546L128.511 40.5629L128.831 40.967L129.339 42.2131L129.541 43.3078L130.011 45.0128L130.007 45.0843L129.885 45.6569L129.45 46.642L130.037 46.7136H130.125L130.801 46.8609L130.908 46.9326L131.358 47.3283L131.407 47.3619L131.427 47.4167L131.701 48.2502L132.243 49.2185L132.919 49.829L132.965 49.8585L132.999 49.9131L133.476 50.3594L133.049 50.9067L132.579 51.3993L132.56 51.4372L132.335 51.8371L132.243 52.7801L132.072 53.0664L131.083 53.4327L131.064 53.458L130.095 53.6894L129.19 53.8663L128.167 53.8284L127.736 53.8579L127.889 54.6367L128.339 55.7397L128.179 56.2154V56.2533L128.163 56.287L128.007 56.6617L127.854 57.5542L127.412 58.0972V58.152L126.976 58.4383V58.4888L126.492 58.7414V58.7962L126.038 59.1161L125.698 59.7013L125.187 60.1012L124.614 60.2444L123.763 59.937L122.534 59.1288L121.114 58.1057L120.664 57.9795L120.439 58.2741L120.057 58.9477V59.0193L119.725 59.5918V59.6466L119.706 59.6802L119.378 60.1307L118.519 59.9118L118.439 59.8739L116.344 59.2634L115.149 59.1708L114.836 59.836L114.401 60.3707L113.897 60.7117L113.836 61.2547L113 60.6991L112.603 60.5222L111.752 60.4801L111.737 60.4675L110.974 60.2106L110.897 60.1812L110.34 60.1096L109.565 60.2233L108.714 60.3034L107.695 60.3117L107.02 60.3034L106.417 60.4127L106.314 60.4296L105.524 60.678L105.482 60.6948L105.409 60.7075L105.348 60.7411L104.512 60.7917H104.47L103.413 60.7832H103.367L102.402 60.7453L101.551 60.7369H101.52L100.287 60.7159L98.2417 60.6401L97.4937 60.6906L95.9556 60.7327L93.7382 60.6569L92.1505 60.7411L90.7766 60.8758L90.3338 60.6569L90.2003 60.6359L89.8491 60.2191L89.0858 59.9959L88.5095 60.1897L87.273 60.118L86.0135 59.9834L85.1472 59.8529L84.8953 59.3182L83.632 59.0067L83.2045 58.6614L82.8153 57.5794L81.7008 57.6721L79.8498 57.8447L78.4758 57.8952L77.3843 57.912L75.8462 58.2109L75.4646 58.3415L74.3158 58.4256L74.2051 58.4467L74.1326 58.4846L72.8388 58.6488L71.9343 58.8088L70.5679 58.8424L69.5489 58.9645H69.4955L68.9192 58.8719L68.8849 58.8761L68.236 58.6109L67.7132 58.1942L67.488 57.891L67.1369 57.6258L67.0987 57.6047L66.7628 57.3227L66.4461 56.9017L65.6293 56.6197L64.8851 56.5144L64.553 56.5522L63.9615 56.5775L63.9424 56.5986L63.1295 56.7585L63.057 56.7964L62.5227 56.7459L60.7441 56.7207L59.9694 57.0743L59.9541 57.0911L59.3244 57.0995L58.8359 56.9859L58.5153 56.3965L57.7367 55.887L56.9543 55.5461L56.8818 55.5124L55.4201 55.525L52.6836 55.5082L52.7332 54.6031L48.6228 55.7482L46.684 55.4451L45.9932 54.0726L43.9361 52.658L43.9132 52.8559L43.8559 53.3443L42.1843 54.1189L39.4478 54.5441L38.9364 55.2177H37.9021L37.1388 55.7482L35.7572 56.3586L34.9061 54.9062L34.3795 53.6305L33.1581 54.1062L30.6812 54.1189L30.0629 54.0178L30.0515 54.0136L29.0095 53.8663L28.3111 53.8621L27.4104 53.8873L27.0555 53.8579L26.8723 53.7611L26.254 53.5169L25.5213 53.3443L25.4945 53.3401L24.9373 53.2306H24.9144L24.3114 53.2642L24.2732 53.2769L24.2465 53.2853L24.2274 53.2979L23.9374 53.5926L23.3343 54.102L18.0637 54.2958L13.8922 54.4052L12.0183 54.401V54.0937L11.7435 53.1169L12.1366 53.0495L13.0602 52.8896L13.4533 51.8876L13.7625 52.2075L14.0792 52.1739L15.8883 51.9044L16.186 51.3572L16.1096 50.4984L16.2089 49.9258L15.6898 49.2774L15.5906 47.7451L15.1975 47.0378L15.5372 46.7304L15.8883 46.4484L15.873 46.1031L15.5028 45.8968L15.8959 45.198L16.6249 44.436L16.7317 43.9392L16.9264 43.8129L17.2661 43.7876L17.5409 43.6993L17.8386 43.3835L18.2316 43.3078L18.2927 43.072L18.2316 42.7309L18.5789 42.4405L18.8003 42.049L18.9682 41.6953L19.3423 41.5017L19.2468 41.047L19.2888 40.7145L19.659 40.4829L19.7735 39.9987L19.8728 39.7714L20.2621 39.763L20.4605 39.6283L21.0024 39.0389L21.2505 37.7254V36.0835L20.075 35.2583L19.2812 34.9258L16.7508 33.1617L15.4494 32.4671L15.4303 32.3745L15.2471 32.2187L14.8463 32.143L14.4075 31.0652L13.5182 29.8275L13.9609 28.6445L13.6976 27.7815L13.7739 25.1923L13.3312 24.7966L13.5411 24.4303L13.419 24.1483L13.1327 23.8747L12.7892 23.5757L12.6442 23.3358L12.6938 22.6495L12.4725 21.6645L11.6519 20.1025L10.3238 19.9257L10.2856 19.9131L10.1825 19.9088L10.0146 19.5679L9.86578 18.5406L10.4611 17.3535L9.76655 16.9956L9.97643 15.9978L9.41923 14.3138L10.0871 12.7941L9.08337 11.889L8.03 11.5522L7.96133 11.1774L7.74758 10.8996L7.31249 10.8448L7.01479 11.0595L6.6179 11.1564L6.30874 11.0259L5.99962 10.8659L5.77823 10.8365L5.50345 10.7606L5.06072 10.5375V10.5333L5.17523 10.1671L5.51109 9.67455L5.36224 8.89145L4.57988 8.15471L4.98823 7.20748L5.32408 6.42859L4.85848 6.0961L4.80122 5.52771L4.65237 4.99304L4.83938 4.58047L4.24402 3.8942L6.2553 4.18898L7.80866 4.4668L8.57579 4.68994L9.80471 5.70871L11.2893 6.27288L12.3656 7.1233L13.8541 7.51901L14.98 6.95062L15.8501 5.87717L17.2851 4.86251L18.0217 4.42887L18.2622 4.47523L18.6209 4.42466L18.9568 4.70258L19.0522 4.94669L18.7011 4.91729L18.6362 5.21618L18.6171 5.69185L18.8117 5.8856L18.827 5.48978L19.1094 5.29193L19.2277 5.38875L19.3842 5.51928L19.6743 5.65403L19.9147 5.8266L20.2544 5.7045L20.3727 5.92342L20.8231 6.01603L20.5864 6.23495L20.3307 6.73591L20.9719 7.85582H21.3536L21.3154 8.16736L21.7314 8.1505V8.54621L21.5329 9.37134L21.491 9.98187L21.7314 10.3312L22.3612 10.6807L22.7085 11.6574L22.8535 11.9942L23.029 12.1921L23.384 12.1162L23.903 12.3352L24.3381 12.7268L24.8113 13.1183L25.2045 14.2507L25.1663 14.7307L25.3571 15.1222L25.5518 15.3327L26.0327 15.2948L26.2311 15.6021L26.1929 16.3852L25.88 17.9892L26.1395 17.9513L26.3532 18.0439L26.3151 18.4775L26.567 18.6754L26.8074 18.4817L27.0822 18.3175L27.3188 18.6165L27.5631 18.4269L27.9066 18.1407L28.2462 18.1997L28.5707 18.4018L28.8493 18.2839L29.1546 18.5154L29.4218 18.5196L29.5783 18.0944L29.8263 18.0776L29.9866 18.3512L29.8988 18.789L30.5362 18.9111L31.7613 19.6941L31.9598 20.2667L32.0933 20.4857L31.9598 20.8225L32.2002 21.033L32.4521 21.155L32.5819 21.0372L33.3795 20.9151L33.5169 20.5109L33.5703 20.5614L33.8719 20.5741L34.3107 20.3973L34.5893 20.2667L34.4863 19.9173L34.7 19.9215L34.8947 20.1193L34.929 19.9847L34.9939 19.791L35.2114 19.9972L35.5053 20.3846L35.5511 19.8289H35.7114L36.3831 21.0035L36.0664 21.3529L35.948 21.917L36.2648 22.0054L36.7763 22.0939L36.8335 21.5719L38.0014 21.6981L38.3945 22.5274L39.3028 22.5696L40.4783 22.7969L40.5203 22.6495L40.8829 21.6981L40.4096 20.7845L40.7645 19.7826L39.5394 18.5196L39.8219 17.9007L40.5508 17.8039L41.8294 17.6355L42.3942 16.844L42.0354 16.1073L41.2149 15.0927L41.15 14.2886L41.2607 14.1581L41.0889 13.935L41.0203 13.716L41.2645 13.6234L41.5545 13.7371L41.7225 13.9645L41.8713 14.1792L42.4973 13.5645L42.3942 12.491V11.3037L43.6766 10.3986L44.4933 9.60712L46.2374 8.47889L47.2603 7.85582L47.3137 6.33177L49.0044 6.50023L49.6189 6.2181L50.2906 5.7045L50.8364 7.99478L51.2867 8.64724H52.3974L54.9964 8.80306L55.9086 7.87268L56.6108 8.49153L57.523 8.02839H58.3664L58.9962 8.64724L59.4122 9.79655L60.332 8.95878L61.1602 9.49766L61.3472 9.32088L61.6945 9.12724L62.9997 7.87268L63.2097 8.33993L63.6295 9.03463L63.3585 10.3565L63.992 11.1143V10.9543L64.0874 10.7438L64.1981 10.5586L64.2706 10.3818L64.6179 10.2513L64.9958 10.0787L65.2782 9.83026L65.7171 9.48502L66.0758 9.13145L66.2209 8.7862L66.2629 8.46203L66.5415 8.4241L66.9117 8.52103L67.1674 8.4831L67.5033 8.58835L67.9307 8.44096L69.7779 9.5987L71.3618 9.66191L72.4571 9.4808L73.3311 9.66191L75.8997 10.9249L77.1667 11.2448L79.6666 12.4952L80.3039 13.615L81.3802 15.5474L82.3649 15.3074L82.5481 13.7666L82.674 13.2151L83.2732 11.9521L83.7656 9.9608L84.0938 8.87881L84.6624 8.09582L84.8456 7.82633L85.1128 7.67061L85.9982 6.86645L86.17 6.28552L86.5402 6.45388L87.3187 5.98242L87.4638 5.3425L88.4752 5.00147L89.2461 4.52569L90.2842 4.55098L90.6582 4.12155L91.7116 4.48365L91.9673 4.49208L92.2955 4.44151L92.5207 4.6184L92.7306 4.7404L93.7306 3.94898L94.1275 3.48163L94.7954 3.86902L95.9747 4.39105L96.6197 4.32362L96.9593 4.12155L97.0815 3.73006L97.2074 3.52377L97.2723 3.11542L97.4899 2.81653L97.5013 2.58075L98.2455 2.30714L99.2836 0.858845L100.803 0.311635L101.36 0.117891L102.173 0L102.986 0.160031L103.631 0.34103L103.86 0.404241L103.341 1.43144L103.959 2.93864L105.119 3.09014L106.348 3.16589H107.852H108.875L110.245 4.07109L111.474 4.59733H112.634L113.592 4.74883L114.683 5.50243L115.435 6.70652L116.527 7.91472L118.03 9.11881L119.809 10.247H121.515L122.61 11.3037L122.782 11.91L122.691 12.0152V12.9667L123.019 13.8255L123.629 13.9602L123.771 14.2423L125 15.3747L126.431 16.4904L126.789 16.3094L127.61 16.6714L127.854 17.1682L128.69 18.9154L130.663 20.2962L130.724 20.9655L131.72 20.9067L132.56 21.3865L133.797 21.5086L133.751 22.0054L133.018 22.5948L133.346 23.0453L134.003 22.7296L134.167 23.2726L135.182 22.9274L135.728 23.3611L135.751 23.3821L135.438 24.1778L135.602 24.7209L136.648 24.123L137.445 23.9504L137.365 24.7209L138.533 26.6154Z" fill="#1592ED"/>
<path fill-rule="evenodd" clip-rule="evenodd" d="M77.2545 127.165L77.4263 127.098L77.4453 127.089L77.64 127.683L79.3307 127.3L79.594 126.651L80.3268 126.614L80.6245 125.919L82.9068 125.595L83.4755 126.201L83.9182 126.925L85.1052 127.515L85.7731 127.397L86.5058 127.266L87.2424 126.521L87.918 126.946L88.353 126.828L89.5552 126.391L90.6048 126.142L91.5207 126.218L92.2077 126.264L92.6008 126.281L93.2687 126.55L93.6237 126.731L94.0511 127.165L94.7648 127.233L96.3105 127.384L98.0051 128.681L98.547 131.19L98.5547 131.88L98.7035 132.259L98.7989 132.769L98.8867 133.118L99.1424 133.021L99.5164 132.966L100.181 132.625L100.608 131.969L100.65 131.396L100.352 131.034L99.9668 130.617L99.9324 130.007L100.238 129.497L100.7 129.902L101.314 130.777L101.833 131.249L102.455 131.543L103.062 131.291L103.615 131.021L104.417 130.668L105.195 130.415L105.386 130.369L106.588 130.815L109.119 130.588L109.222 130.676L109.607 130.946L109.878 131.493L110.264 131.868L110.562 132.171L110.665 132.516L110.829 133.067L111.317 133.257L111.676 133.467L112.145 134.082L112.703 134.406L113.138 134.575L113.439 134.831L113.645 135.046L113.954 135.396L114.206 135.766L114.466 136.002L114.874 136.511L115.248 137.096L115.542 137.501L115.886 137.812L116.294 138.077L116.599 138.174L117.172 138.519L117.473 138.734L117.924 138.852L118.099 139.555L118.542 140.144L118.752 140.713L118.927 141.138L119.099 141.744L119.565 142.393L119.672 142.595L119.828 143.079L120.095 143.053L120.336 142.767L120.79 142.544L121.484 142.237L122.446 142.527L123.148 143.255L123.813 143.858L124.152 144.27L124.477 144.493L124.858 144.78L125.225 144.881L125.496 145.217L125.751 145.487L126.24 145.866L126.599 146.127L127.076 146.358L127.545 146.842L127.957 147.465L131.152 148.244L133.339 148.846L134.43 150.353L135.113 152.088L134.159 153.145L131.495 153.822L129.03 153.688L128.747 154.155L128.625 154.454L128.698 154.888L129.144 155.502L129.717 156.458L131.671 157.704L132.591 158.201L133.51 158.411L134.877 159.906L135.579 160.853V163.615L134.751 164.103L132.53 164.865L131.682 164.777L131.537 164.545L131.026 164.516L130.572 164.621L130.205 164.583L129.858 164.549L129.469 164.575L129.102 164.255L128.618 163.994L128.171 163.834L127.931 164.027L127.786 164.301L127.465 164.6L127.057 164.823L126.476 164.777L126.057 164.415L125.412 164.301H124.667L123.69 164.352L122.981 164.326L122.297 164.335L121.423 164.33L120.607 164.381L119.962 164.364L119.675 164.339L118.74 165.37L118.614 165.21L115.263 165.459L114.996 165.535L114.645 165.648L114.336 165.505L113.882 165.572L113.531 165.295L113.092 165.084L112.485 164.912L111.813 164.966L111.203 165.055L110.558 164.941L110.294 164.634L109.668 164.587L109.031 164.676L108.691 164.524L108.207 164.608L107.451 164.646L106.577 164.545L105.73 164.482L105.089 164.347L104.398 164.377L103.585 164.541L103.264 164.773L102.787 164.962L102.173 165.135L102.02 165.185L101.699 165.282L101.215 165.219L100.871 164.844L100.501 164.903L100.066 165.265L99.2493 165.471L98.8371 165.143L98.4859 164.634L98.2302 164.158L97.8715 163.808L97.3219 163.568L96.5433 163.59L95.6655 163.724L95.0014 163.686L94.5205 163.682L93.5474 163.712L93.3069 163.716H93.0932L92.307 163.623L91.2613 163.619L90.3223 163.632L89.395 163.724L88.4599 163.787L87.8225 163.577L86.9829 163.728L86.4524 163.745L85.5822 163.771L84.1472 163.766L83.5213 163.531L83.4564 163.004L83.1931 162.617L82.7885 162.124L82.4488 161.687L82.1168 161.762L81.6703 161.628L81.2504 161.775L80.8955 162.053L80.5558 162.12L80.3268 162.52L80.0673 162.798L79.804 162.916L79.7162 163.438L79.6513 163.661L79.5673 163.931L79.5024 164.41L79.4376 164.945L79.2811 165.37L79.2277 165.518L79.0826 165.905L78.888 166.389L78.9605 166.755L79.1475 167.219L78.8612 167.778L78.5865 168.275L78.4605 168.89L78.3651 169.45L78.4338 170.081L78.575 170.713L78.6704 171.348L78.3079 171.546L77.7316 171.353L77.0713 171.374L76.6591 171.475L76.7011 171.062L76.6706 170.814L76.3729 170.881L76.0676 171.521L75.7851 171.673L75.3882 171.294L75.1783 171.1L74.9875 171.424L74.7051 171.374L74.2967 171.361L74.0524 171.795L74.0334 172.254L73.5563 172.531L73.5029 172.986L73.6364 173.592L73.5334 174.009L73.3464 174.228L72.9113 174.333L72.9227 174.611L73.0716 175.066L72.9647 175.394L72.7472 175.916L72.8502 176.266L72.4762 176.346L71.9762 176.35L71.4343 176.236L71.0221 175.706L70.6481 175.592L70.3504 175.798L70.1061 175.634L69.7092 175.727L69.4573 175.521L69.3046 175.748L69.2092 175.958L68.6444 176.278L68.3734 176.051L68.236 175.55L67.9917 175.259L67.7551 175.108L67.3277 174.788L67.1101 174.931L66.759 174.973L66.6331 174.759L66.6445 174.506L66.4231 174.312L66.3125 174.039L66.3888 173.765L66.5377 173.331L66.3888 173.192L65.9537 173.087L65.3469 172.814L65.0492 172.38L64.866 172.43L64.6141 172.473L64.3546 172.11L64.1866 171.824L63.9157 171.786L63.4653 171.887L63.2134 171.79L62.9768 171.487L62.8012 171.138L62.6295 170.692L62.5608 170.557L62.183 170.005L61.8356 169.896L61.58 169.614L61.6105 169.324L61.2021 169.294L60.9235 169.1L60.8243 168.629L60.6067 168.439L60.3968 168.191L60.2327 168.014L60.0266 167.854L59.6259 167.534L59.2328 167.488L59.1946 167.829L59.3129 168.077L59.3435 168.17L59.2023 168.427L59.0076 168.536L58.5534 168.928L58.0535 168.844L57.6832 168.848L57.4085 169.071L57.1795 169.05L56.9695 169.084L56.6451 169.336L56.3971 169.218L54.0423 168.629L53.7408 168.583L53.4125 168.435L53.111 168.204L52.8401 167.96L52.6149 167.804L52.2905 167.85L52.0882 167.728L51.8821 167.555L51.5997 167.522L51.1722 167.534L50.8669 167.589L50.5349 167.614L50.2868 167.475L50.241 167.244L50.1456 166.89L49.9319 166.646L49.6838 166.524L49.5235 166.507L49.3708 166.604L46.8023 165.871L45.539 164.916L44.5811 164.726L44.1765 164.789L43.8559 164.739L43.4208 164.802L42.9514 165.004L42.5125 164.924L42.024 164.642L41.6004 164.524L41.3065 164.107L40.6767 163.897L40.1233 163.952L39.9669 164.495L40.0432 164.903L39.8829 165.265L39.1921 165.21L38.4937 165.295L37.7265 165.307L37.2953 165.362L36.4671 165.333L35.5817 165.311L34.9596 165.324L34.2878 165.261L33.7917 165.501L33.7192 165.981L33.3719 166.595L33.0589 167.138L32.9635 167.694L32.8643 168.49L32.8528 168.982L32.8795 169.593L32.8299 169.989L32.7727 170.405L32.5284 171.02L32.2689 171.311L32.017 171.732L31.8567 172.363L31.2766 172.574L30.5056 172.359L27.7768 172.548L25.9677 172.098L24.3152 171.774L23.9144 171.239L23.5672 170.805L23.1359 170.654L22.7122 170.818L22.0596 170.738L21.5024 170.031L21.2467 169.336L20.8154 168.89L20.6169 168.755L19.8269 168.73L17.8576 168.549L17.2355 168.932L16.5294 168.562L15.7776 168.57L15.2929 168.326L15.1745 168.275L14.5945 168.183L14.3731 168.115L13.9037 167.976L13.0335 167.513L12.3465 167.282L11.9458 166.764L11.5794 165.968L10.1863 165.636L9.47647 164.996L9.2971 164.831L8.83145 164.377L8.3124 163.851L8.12922 163.084L7.71322 162.331L6.82017 162.087L5.85075 162.103L4.54547 159.392L3.92719 157.228L3.04942 156.087L3.41197 155.578L4.28979 155.064L5.27063 153.3L4.64853 152.387L2.99598 150.85L2.58376 149.655L1.80904 148.459L2.27465 147.604L2.53415 146.35L2.49981 145.832L3.72113 145.441L3.87376 145.154L3.46159 144.754L2.93108 144.131L2.62197 143.664L2.20211 143.357L2.74025 142.763L2.51127 142.081L2.87 141.382L3.87376 141.34L3.12573 140.313L2.78987 139.003V138.035L2.27465 137.467L0.95791 137.037L0.606818 136.343L0.67549 136.158L0.396889 135.918L0 135.577L0.00377368 135.526L0.0305156 135.181L0.67549 133.821L0.965551 132.381L1.41974 132.743L1.81663 132.377L2.20975 131.905L2.28993 131.716L2.60286 131.826L3.30892 132.284L4.23636 131.543L4.59891 130.634L5.4233 129.721L5.93852 129.493L5.99196 128.411L6.09501 126.929L6.51482 125.902L6.82394 125.544L7.24762 125.212L7.72469 125.569L8.18265 125.557L8.62539 125.742L9.14061 125.603L9.42685 125.708L9.54514 125.25L9.20928 124.824L8.95742 124.315L9.40011 123.683L10.0184 122.602L9.86194 121.52L9.99169 120.686L10.9496 119.983L10.9993 118.901L11.8275 118.105L11.8771 117.305L11.4114 116.564L11.4649 115.996L10.7168 115.327L10.5337 114.118L10.4306 113.605L10.026 113.516L9.61386 113.314L9.14443 113.411L9.03756 112.872L8.79711 112.523L8.7208 112.123L8.6368 111.875L8.80475 111.146L8.89634 110.473L9.51844 110.287L10.4306 110.3L10.6787 109.374L10.8123 108.869L10.9535 108.342L10.671 107.896L13.0144 106.713L12.961 105.236L12.5373 104.019L13.7891 102.84L13.3235 102.158L13.5793 100.962V100.335L14.354 99.4805L14.8387 98.769L15.2127 98.8406L15.7699 99.3079L16.4187 99.8804L17.0905 99.3121L18.3308 99.2531L18.3843 97.3166L18.495 96.9377L18.7354 96.4114L18.8041 96.0199L19.1056 95.098L18.7697 94.0917L18.1706 93.8812L17.8347 93.5445L17.5561 93.0814L16.9912 92.7993L16.6249 92.1889L16.6821 91.5153L16.205 91.2206L16.5447 90.7154L16.8195 90.5933L16.9874 90.1766L16.7508 89.663L17.0103 88.9978L17.2012 88.1178L17.1134 87.3348L16.7394 86.6781L16.4875 86.0887L16.4607 85.3603L16.1325 85.1036L16.0066 84.6615L15.9684 84.4426L15.8577 84.19L15.4684 83.5417L15.144 82.9691L14.5792 82.5481L13.9685 82.485L13.5793 82.0134L13.1022 81.4998L13.2701 80.8725L13.2358 80.1147L13.5411 79.4959L13.7319 78.8897L13.8502 78.2329L13.8082 77.9424L13.7433 77.0962L14.064 76.7174L14.3349 76.1785L14.6326 75.6438L14.6555 75.3281L15.0295 75.4249L15.4379 75.8164L16.0257 75.9596L16.9722 76.0311L17.3194 75.728L17.9606 75.648L18.6324 75.9132L19.1247 77.1131L20.1552 77.0373L21.3268 77.7235H21.6703L22.4985 76.9615L23.0252 76.5573L23.8686 76.2163L25.5518 75.8543L26.4944 76.3047L27.1929 75.9848L27.5898 75.3154L29.2271 76.1953L30.353 77.4962L30.8987 78.1782L30.9674 79.1675L31.5323 79.0791L32.7116 78.6623L33.1772 79.3486L33.5894 79.8916L33.3871 80.8473L33.3986 81.5966L33.3833 82.4723L33.7573 83.0912L34.0283 83.6469L34.5168 84.0342L34.3413 84.8804L34.5168 85.4824L34.4863 86.3075L34.8336 86.7496L35.4557 86.9138L36.0473 87.2127L36.2839 87.7516L36.3106 88.4336L36.3984 89.1703L37.0777 89.663L37.3334 90.4122L37.7838 91.0312L38.4593 91.2795L39.2264 91.2122L39.8638 91.1448L40.5241 91.3343L40.3905 92.0457L40.6958 92.5762L41.0393 93.0183L41.795 93.0687L42.2377 93.414L42.5583 93.7339L42.7415 94.2391L42.6346 94.8411L42.6995 95.3506L43.1041 95.9526L43.5353 96.4915L43.5888 97.1566L43.9742 97.2534L44.4246 97.7713L45.8787 99.089L47.3137 100.049L49.6227 102.028L49.7257 102.461L49.8021 106.839L49.783 109.193L49.7449 113.908L49.7296 121.221L50.3936 121.701L51.3745 122.74L52.1989 123.582L52.5576 124.344L53.1836 124.702L53.4469 125.367L53.3934 126.588L53.3133 127.258L53.8285 128.154L54.1644 128.394L54.9315 128.26L55.2445 128.462L55.3933 128.799L55.6757 129.691L55.8017 129.86L56.2978 130.011L57.023 130.765L57.5306 130.693L58.3893 130.083L58.7061 129.851L58.8664 130.171L59.1412 130.453L59.561 130.508L59.7976 130.39L60.0648 129.939L60.3434 129.956L60.9693 130.07L61.5303 130.222L62.2746 130.432L64.137 130.609L65.24 130.689L66.9766 131.021L67.8773 130.971L68.694 130.937L69.6367 130.882L70.1519 130.756L71.0564 130.975L70.8771 131.299L72.0106 131.527L74.1555 131.228L74.8348 129.043L75.2318 128.121L76.2507 127.637L76.9988 127.266L77.2545 127.165Z" fill="#1592ED"/>
</svg>
