<svg width="112" height="177" viewBox="0 0 112 177" fill="none" xmlns="http://www.w3.org/2000/svg">
<path d="M100.823 174.231L98.0574 172.215H98.0229L97.9884 171.6L98.125 170.882V170.369L97.9884 169.788L97.6814 169.208L97.5107 168.969L97.4762 168.73L97.4421 168.183L97.7152 167.089L98.3981 167.328L99.2172 168.115L99.9683 168.661L99.7293 168.046L98.9785 166.611V166.133L99.1492 165.655L98.9102 165.176L98.2957 164.492L97.8515 163.638L97.5783 162.749L97.4421 160.801L97.0662 159.947L95.3246 158.273L94.9149 156.974L94.8124 154.41L94.5734 153.283L93.1053 150.241L92.9687 149.592L93.2426 148.977L94.5052 148.43L94.9149 147.951L95.0514 146.961L94.8807 145.97L94.471 145.013L93.6857 143.851L93.6509 143.372V142.86L93.5485 142.382L93.3095 141.972L92.8322 141.494L92.6615 141.22L92.3883 139.511L92.081 138.623L91.4323 138.246L89.5545 138.485L88.7692 138.417L88.1888 137.939L88.1212 137.562V136.947L88.2236 136.366L88.326 136.024L88.6675 135.888L89.1113 136.469L89.76 136.23L90.2722 136.708L90.716 136.776L91.0233 136.537L91.5354 135.786L91.8427 135.545L91.3654 134.861L91.1264 134.075L90.7502 133.46L89.7607 133.221L89.1461 132.913L88.8723 132.23L88.6675 131.41L88.326 130.726L86.2433 128.402L85.3898 127.172L84.8094 125.873L85.3898 126.009L85.5257 125.599L85.116 122.045L84.9452 121.567L80.883 117.602V117.261H81.1561L81.9414 117.841H83.4437L86.2092 117.261L85.5612 116.987L85.1166 116.68L84.1272 117.397L83.4785 117.124L82.2494 115.244L81.0544 113.741L80.8154 112.921L80.8837 111.69L80.4398 112.032L80.2343 112.613V113.262L80.3025 113.74L79.6538 113.911L78.8003 113.706L77.9815 113.193L77.5035 112.544L77.128 112.749L76.9573 112.852L76.3427 112.1L76.0689 110.801L76.2744 109.537L76.9573 108.751L76.4103 107.247L76.3762 106.667L76.4444 106.119L76.8542 105.401L76.9566 105.06L77.3663 104.274L77.4687 104.171L77.4004 103.897L77.298 103.555L77.2297 103.282L78.3223 102.564L78.6289 102.256H78.0498L77.0932 102.53H76.6841L76.0354 102.223L75.9671 101.915L76.1727 101.471L76.3775 100.753L76.3092 100.308L76.0706 99.3856L76.1051 98.7369L76.3099 98.1894L76.8221 97.0616L76.9586 96.4806L76.6513 92.8921L76.8221 92.2085L77.2318 91.7991L77.6415 90.9098L77.8122 89.9194L77.5049 89.27L77.0955 90.3637L76.0368 92.4143L75.7978 93.6788L76.1392 95.9003V97.199L75.6954 97.78L75.1832 98.2578L74.5348 99.1805L73.6813 99.7274L72.5891 99.147L72.4184 98.7021L72.3501 97.6091L72.2135 97.199L71.7362 96.9597L71.3265 97.2331L71.0875 97.7807V98.3958L71.2927 98.7031L72.5904 100.036L72.966 100.548V100.925L72.8298 101.301L72.727 101.779L72.8298 104.649L73.035 105.504L73.3081 105.982L73.991 106.837L74.1275 107.417L74.0927 107.896L73.8879 108.545L73.8534 108.887L73.7171 109.331L72.727 110.527L72.6246 110.562L72.2832 110.733L72.2149 110.767V111.006L72.2832 111.348L72.3856 111.621L72.4883 111.689L71.9417 112.099L71.4979 111.723L70.9857 111.108L69.2786 110.527L67.1276 108.442L66.342 107.997L64.5321 107.28L63.8841 106.835L63.5768 106.357L63.3378 105.947L63.0992 105.571L62.655 105.229L62.2111 105.127L61.9042 105.229L61.6307 105.161L61.2551 104.614L61.1527 104.135L61.2886 103.145L61.1179 102.667L60.8447 102.325L60.6399 101.846L60.4692 101.334L60.4009 100.924L60.1277 100.24L58.6937 99.0442L58.1471 98.3951L57.0201 96.0712L56.6107 95.7636L54.1862 92.5168L53.7424 91.6624L53.6058 90.9105L53.6406 89.0992L53.9138 88.4501L54.5966 87.8346L55.5185 87.4248L56.44 87.4928L56.7469 87.7666L56.9176 88.1764L57.0542 88.5181L57.4636 88.6548H58.8638L59.649 89.9871L59.888 90.9781L59.2393 91.6275L61.0492 92.8579L61.9707 93.2338L63.2006 93.3705L63.4054 94.4642L64.7028 95.3869L66.4448 95.8996L67.9812 95.7629L69.2441 95.0793L71.9076 93.0971L72.7236 92.2078L72.7584 92.0028L72.6901 91.4901L72.7243 91.2847L72.8608 91.2164L73.2023 91.1139L73.3047 91.0455L73.9875 89.9857L74.2607 89.3705V88.5841L74.1248 87.1829L74.3631 86.6357L74.3979 86.3284L74.1248 86.0208L73.8858 86.0554L72.5884 86.2946L71.6317 86.0892L71.2903 85.6449L71.461 85.1664L72.2121 84.8247L71.7683 84.6196L71.3244 84.5167H70.3684L69.9239 84.4139L68.832 83.3206L67.159 82.1924L66.3396 81.4064L65.9982 80.5519L65.6568 80.0393L64.1204 79.4241L63.7448 78.7748L64.0521 77.9552L64.7691 77.5451L65.6909 77.4767L66.5786 77.7505L66.3396 76.9986L66.681 76.3496L67.228 75.7344L67.7053 75.0851L67.1256 74.1623L66.8518 73.8889L66.5452 75.1196L65.9306 76.2478L64.9739 76.9655L63.7448 76.8291L63.3351 76.5218L63.0285 75.9747L62.8578 75.2912L62.9254 74.5048L63.2668 73.9921L64.1886 73.5478L64.5983 73.0352L63.3692 72.8984L62.8223 73.5475L62.5833 74.4019L62.2077 74.8116L60.364 74.7771L59.8867 74.3674L59.8519 73.3075L59.3397 74.4354L59.0331 74.8455L58.4527 75.0844V72.2822L58.6575 71.7351L60.8768 68.5228L61.6628 67.9757L62.6522 67.9077L64.0179 68.0102L63.6424 67.5321L63.5399 67.0194L63.7448 66.6431L64.3594 66.5406L64.1204 66.1643L63.8472 65.8905L63.5406 65.6855L63.1992 65.651L62.9602 65.7873V66.4025L62.7895 66.5392L60.7061 66.5734L60.2288 66.6763L59.9556 66.8126L59.5794 66.8472L58.8624 66.8126L58.7258 66.9835L58.4192 67.7354L58.1454 68.0088L57.5991 68.0772L57.0187 67.8718L56.5414 67.53L56.2 67.1202L56.4048 67.0173L56.7462 66.7101L56.9853 66.5392L55.483 65.9582L55.0391 65.5481L55.5857 65.0355L54.9708 64.7286L54.766 64.2159L54.9708 63.7713L55.5857 63.6004L55.483 63.2931L55.3471 62.9855L54.835 63.2593L54.4252 63.5331L54.118 63.9428L53.9821 64.4555L53.7765 64.2501L53.2644 63.84L53.0595 63.6011L52.7864 64.5919L52.5129 64.9336L52.1036 65.0361L51.6256 64.8653L51.1479 64.4558L50.7385 63.9083L50.602 63.4305L50.363 62.4052L49.5442 60.1838L49.4759 59.1585H49.1652L49.1311 60.7641L49.0287 61.6185L48.619 61.8242L48.38 61.3116L47.7654 58.5426H47.4923L47.185 59.4654L46.6046 60.1489L45.8534 60.6274L44.9657 60.9008L43.8049 60.7983L42.6099 60.3881L41.5856 60.1831L41.0059 60.6274L40.4254 60.354L39.845 59.9439L39.367 59.4312L39.0604 58.884L39.1287 59.7039L39.4018 60.3875L40.1871 61.8229L41.0065 64.762L43.4641 69.5467L43.5672 70.6749L42.7137 69.9569L42.065 68.8632L41.0065 66.5392L40.3913 64.3861L39.8792 63.1899L39.1963 62.6773L38.2751 63.2241L37.9679 64.4887L38.1386 65.924L38.8897 67.53L39.1287 68.8626L39.3336 69.4777L39.9481 70.2645L39.5043 70.1961L39.3336 70.0936L38.9238 69.5461L38.4117 68.3499L36.2273 65.069L35.9538 64.3171L35.7831 63.1551L35.3737 62.4039L34.2811 61.2419L33.4617 60.0457L33.0179 59.6014L32.813 59.1571L32.7447 57.8926L32.574 57.3799L33.3252 57.585L35.5444 57.3799L36.0217 57.1407L36.4659 56.6281L37.0808 55.6028L37.1833 55.842L37.2857 56.0129L37.354 56.1837V56.4907H37.6609L38.549 54.235L38.7538 53.8249V53.5515L37.4564 53.8932L35.7493 55.7046L34.5543 56.491L33.4276 56.2856L33.291 54.9185L33.838 52.6629L34.5888 51.911L35.4768 48.6643L36.0914 47.9123L37.1157 47.5026L37.5254 46.5453L37.9351 44.3922L37.1495 45.0073L36.7736 46.7507L36.2273 47.3662L35.5786 47.2295L35.203 46.4096L35.0664 45.3163L35.1347 44.3936L36.7053 41.5911L37.3202 40.019L36.808 39.0617L36.6028 39.8819L36.2614 40.8389L35.8176 41.7616L35.2709 42.4793L34.7243 43.4704L34.6219 44.7008L34.8267 47.0931L34.4853 48.9728L33.5976 50.6137L31.1728 53.8259L29.6364 57.1072L29.5005 57.2098L29.2615 57.449L28.9201 57.654L28.3738 57.6886L28.0665 57.586L27.8617 57.3468L27.5202 56.7996L24.8913 54.7836L24.4816 54.2709L24.516 53.6219L24.7212 52.9729L25.0627 52.3574L25.5748 51.7767L28.2379 49.9995L29.7402 49.6923L31.4473 49.1113L31.1059 48.9062L30.7296 48.8378H29.9089L29.4309 48.7698L29.2601 48.599L29.1919 48.2914L28.9187 47.9154L27.9286 47.129L27.5196 46.7193L27.2457 46.1383L26.9043 42.3447L26.6995 41.6263L26.2215 41.2165L25.3003 41.1485L25.471 42.1054L24.993 43.0282L24.3443 43.37L23.9005 42.6181L24.515 42.4127L24.754 42.3447L23.5939 41.4903L23.2169 40.157L23.0121 38.7216L22.3634 37.4574L21.4757 36.2613L19.9734 33.698L18.8467 32.9116L19.8368 34.8259L21.6798 37.5945L21.8505 38.0388L22.192 41.4222L23.0455 43.8146L23.0803 44.4981L22.7731 46.4804L23.1145 50.9233L22.7731 51.7777L22.4999 51.2651L21.7488 50.3423L21.3732 49.6933L19.5978 44.9431L18.7442 43.7124L14.9544 40.2254L14.5106 39.5419L14.135 37.5593L13.588 36.7049L12.1199 35.2353L11.8133 34.791L11.6426 34.415L11.4036 34.1758L10.8232 34.0733L10.4135 33.9366L9.55991 33.3214L9.1502 33.185L8.43321 32.8087L8.02349 31.886L7.61378 29.9383L5.32692 23.4447L4.64407 22.3166L4.33678 21.633L3.92707 17.7711L3.68808 17.2584L2.01577 15.8569L1.77678 15.2079L1.50364 14.5588L0.513504 13.6699L0.206904 13.0889L0 12.3032L0.13657 11.6542L0.341425 10.3551L0.409711 9.53523L0.102427 7.8264V6.97199L0.341425 6.21977L1.46813 4.61347L2.04855 2.76795L2.4924 1.91354L3.17526 1.81066L4.47301 1.84518L6.04357 0L7.34099 0.44429L7.88795 1.12782L8.05866 1.84587L8.16109 2.5639L8.43423 3.31546L8.77565 3.65722L9.21951 3.89646L10.1414 4.23823L11.8826 4.37459L13.2483 4.10118L14.3074 4.3404L15.0927 6.04922L15.4 7.79224L15.7062 8.68082L16.1842 9.22799L17.0378 9.15963L17.9938 8.54446L18.7791 7.72421L19.1553 7.04068L19.087 6.59606L20.2472 7.10871L22.2958 10.39L24.7888 13.1586L25.7783 14.6966L26.1197 15.6193L26.496 16.3709L27.0423 17.3282L27.8617 18.0117L28.4414 18.2851L28.9194 18.2168L29.3974 17.875L30.3869 16.8497L30.8307 16.5424L31.3428 16.4741L32.0605 16.5424L39.2304 17.9779L39.6402 18.3876L39.8785 19.037L40.3565 23.4116L40.6979 24.1296L41.0393 24.6765L42.9854 25.9071L43.3269 27.3771L43.4976 27.7188L43.8732 28.197L44.5901 28.7763L50.701 32.7749L53.2275 33.9366L54.3201 34.0733L55.3785 33.697L56.2321 33.6625L56.9832 33.8334L57.8368 34.2777L58.4848 34.3805L58.9969 34.2777L59.9188 33.5261L60.4309 33.1843L61.3193 32.8771L61.6607 32.5695L61.7966 32.1252L61.6607 31.6471L61.1144 30.4851L60.9786 30.3142L60.842 30.0066L60.6713 29.7677L60.5688 29.5285L60.5006 29.2551L60.4664 28.6741L60.6713 26.1792L60.8761 25.5982L61.15 25.0855L62.0377 24.5384L63.5058 24.7092L63.9155 24.983L64.5301 25.5302L65.145 26.4526L65.7599 27.5462L65.8623 27.7851L66.033 28.1269L66.34 28.9813L66.4762 29.6307L66.6814 30.1433L66.9549 30.3484L68.115 30.4167L68.7979 30.6221L69.4128 31.0319L70.4371 32.0572L70.8813 32.7407L70.8464 37.9352L71.2561 38.6536L71.7683 38.8925L73.4413 39.1998L74.1241 39.5074L74.7721 40.0545L75.2501 40.6352L75.694 41.3871L75.8647 41.763L81.1568 50.5809L81.7372 51.7771L82.6932 54.7166L83.2736 55.776L85.2539 58.1684L85.1173 60.8683L85.3563 61.5519L85.6295 62.2354L86.4154 62.8844L86.5179 62.9524L87.747 64.2169L88.4647 65.1397L88.7713 65.8233L88.8395 66.4384L88.7033 67.0194L88.2939 68.3865L88.0549 69.5143L88.0891 70.1978L88.2257 70.7788L89.9328 74.5383L91.5033 81.9204L92.3917 86.5687L92.7673 87.3886L96.5575 92.8569L97.5473 94.634L97.7525 95.4201L97.6842 95.8302L97.4455 95.9327L97.0013 95.9672L96.6944 96.5144L96.6264 97.5052L97.2748 99.9655L97.6842 101.059L98.1622 101.743L98.7084 101.914L99.4258 102.016L100.757 102.768L102.738 104.955L104.206 108.441L104.854 109.295H105.366L107.108 111.62L107.381 112.132L107.757 113.021L107.723 113.602L107.449 114.08L106.937 114.354L106.254 114.592L104.923 114.763L104.376 115.003L104.274 115.31L104.309 115.652L104.445 115.857L104.615 116.096L106.425 117.737L107.211 119.07L107.176 119.582L106.971 120.129L105.708 121.36L105.264 122.214L105.366 123.001L106.425 125.222L106.561 126.008L106.425 126.623L106.254 127.204L106.049 128.195V128.64V128.981L107.893 132.331L108.405 133.014L109.053 133.664L110.795 137.115L111.239 138.893L111.307 141.319L110.59 144.703L110.624 149.111L109.941 150.888L109.907 151.571L109.975 152.187L110.146 152.632L110.282 152.905L110.623 153.452L111.75 155.502L111.785 156.221L111.716 157.04L111.204 158.407L110.966 160.697L110.385 162.133L108.268 164.525L107.927 165.277L107.825 166.028L107.859 167.293L107.654 168.865L107.518 172.112L107.04 173.65L105.674 176.145L105.264 176.35L104.958 176.248L104.684 176.042L104.07 175.393L103.284 174.846L102.636 174.71L101.646 174.607L100.823 174.231Z" fill="#1592ED"/>
</svg>
