<svg width="90" height="177" viewBox="0 0 90 177" fill="none" xmlns="http://www.w3.org/2000/svg">
<path d="M4.28385 109.839L4.11491 107.844L3.9455 107.527L4.04183 107.43L4.11491 106.797L4.09023 106.141L4.11491 105.532L4.40486 104.924L5.736 103.197L5.83282 102.759L6.00223 101.567L6.12324 101.275L6.41368 100.935L6.55889 100.399L6.6557 99.2804L6.99405 98.1371L8.42201 94.8774L8.54302 94.3663L8.61562 93.3446L8.78505 92.858L9.00238 92.5904L9.60744 92.1769L9.80155 91.9336L9.84947 91.6657L9.75363 91.1308V90.9605L10.092 90.5956L10.4308 90.3523L10.697 90.012L10.7701 88.771L10.9638 88.4061L11.3021 88.1383L11.7382 87.8704L12.1255 86.3137L12.3675 85.8758L12.7063 85.5355L13.9891 84.7324L14.3521 84.0272L14.9572 81.9348L15.1992 81.4237L15.6349 81.3507L15.9979 81.3753L16.3365 81.3266L16.7479 81.0833L17.0865 80.67L17.3285 80.1348L17.4251 79.5753V79.0155L17.5945 78.1156L18.7563 76.6073L19.2159 75.7805L19.7728 73.1774L20.2324 72.5447L20.789 71.5961L20.9345 70.3068L20.7409 69.0172L20.2084 68.1414L19.1677 67.6792L18.0057 67.4359L16.965 67.071L16.2634 66.1466L16.1905 64.8816L17.8605 60.308L18.5137 59.2863L19.3608 58.4348L20.3045 57.8023L20.8614 57.5834L21.8539 57.4863L22.4106 57.3162L22.9191 56.9268L23.6696 55.7588L24.0808 55.2479L24.3473 55.1506H24.9279L25.1944 55.0046L25.2188 54.883L24.9768 54.5911L25.0012 54.4208L25.0978 54.3237L25.4124 54.1534L25.509 54.0564L28.1231 50.3829L28.3407 50.164L28.6311 50.0424L29.2362 49.9694L29.5024 49.7991L29.6963 49.2396L29.6479 48.5584L29.0428 45.3958L29.0673 44.7876L29.2609 44.1308L29.5997 43.8389L30.6888 43.474L31.1729 43.1577L32.383 41.8927L33.3027 40.8225L33.6413 40.2143L33.6174 39.5568L33.2543 39.1919L32.2136 38.8756L31.8022 38.5591L31.512 36.4913L31.633 36.2237L31.8506 35.9804L31.996 35.7615L31.8995 35.5182L31.6574 35.3966L31.4154 35.3481L31.1734 35.2749L30.9558 35.0803L30.5928 34.1318L30.4717 32.9154L30.5199 31.699L30.7138 30.7259L31.125 29.7042L31.1734 29.242L31.0279 28.6584L30.4955 27.6607L30.4229 27.1498L30.8343 26.566L31.2699 26.2256L32.117 25.3009L32.4317 24.839L32.5771 24.4984L32.6255 24.2797L32.6011 24.0848L32.6977 23.209L32.8187 22.9901L33.1091 22.7225L33.3511 22.5765L34.0044 22.4303L34.2708 22.3087L34.5129 22.0654L34.9243 21.4818L35.1908 21.2869L35.723 21.1899L36.1826 21.8224L36.8121 21.8954L37.3445 21.7253L38.4337 21.2388L40.6601 20.5333L41.1686 20.2413L42.0156 19.1953L42.6936 17.9302L43.4678 16.8842L44.6779 16.5922L45.3558 16.7139H45.9365L46.4205 16.4952L46.7835 15.8624L47.05 15.1326L47.3886 14.7434L47.8482 14.5731L49.1794 14.4271L49.5668 14.2809L49.857 13.916L50.5831 12.6996L51.8416 11.24L52.6161 10.948L54.2619 10.6564L55.0606 10.2669L55.8595 9.51273L56.5127 8.6367L57.5537 6.71484L58.6672 5.23063L60.458 4.03883L62.4424 3.18737L70.139 1.94668L72.0752 2.04399L72.5348 2.16562L73.1399 2.11697L73.745 1.94668L74.1806 1.7034L74.7615 1.02224L75.0277 0.511362L75.3426 0.243519L76.1412 0.413809L76.3833 0.560016L76.5771 0.705982L76.7708 0.80329L77.1338 0.77872L77.4484 0.632754L77.9325 0.121637L78.2473 0L78.7796 0.0245701L79.312 0.170536L80.3285 0.608429L80.8368 0.949011L81.2243 1.33825L81.8293 2.33591L82.1679 2.72515L83.0879 3.45497L83.257 3.72282L83.015 4.30643L82.7488 4.81755L82.773 5.3041L83.4265 5.83905L87.4199 7.59063L87.6863 7.80957L87.88 8.05284L88.122 8.27155L88.4369 8.41775L88.7271 8.39318L89.0657 8.24722L87.4199 10.5826L87.0569 10.9962L86.9358 11.1178L86.6938 11.2395L86.3308 11.3611L85.9433 11.4098L83.7169 11.2395L80.4977 11.4584L78.6825 12.042L77.9809 12.1637H76.4319L71.3494 12.8692L70.8409 12.8446L70.3324 12.7475L69.8967 12.6013L68.2507 12.2121L65.6613 12.1878L65.2499 12.3578V12.5768L65.6373 12.8444L66.6538 13.4282L66.7991 13.6715L66.6538 14.0364L66.4118 14.45L66.315 14.8879L66.2668 15.4474L66.0248 15.7393L65.6134 15.8853L64.8147 16.0556L64.4517 16.2502L64.2578 16.4935L64.2336 17.856L64.1852 18.0747L64.0642 18.2696L60.3372 20.4591L59.8048 20.921L59.6837 21.3346L59.9013 21.7725L60.7729 22.6485L61.3535 23.0864L61.8131 23.573L62.128 24.0109L62.3216 24.4974L62.467 24.9353L62.7091 26.4436L62.6607 26.5652L62.5155 26.8572L62.007 27.3437L61.2809 27.7086L60.4819 28.0006L58.8846 28.3898L58.4971 28.9493V29.2172L58.5697 29.5575L58.7152 29.8494L60.2639 31.9173L60.5788 32.4525L60.6998 32.939L60.7479 33.7175L60.8934 34.0337L61.329 34.5203L61.7649 35.2258L61.9586 35.9799L62.1524 36.4421L62.8056 37.3907L63.2171 39.7504L63.0716 40.7965L62.854 41.1128L62.5876 41.3806L62.3456 41.5509L62.1761 41.6725L62.1035 41.7209L62.0791 41.7462L60.6269 45.1521L60.5543 45.6386L60.5788 46.0279L61.1354 47.1956L61.474 48.5822L61.716 49.0933L63.2648 50.8933L63.5796 51.8178L63.4831 52.426L63.1442 53.0341L62.5636 53.6177L60.8694 54.8825L60.4819 55.3447L60.2399 55.661L60.0707 55.8797L59.8532 56.0262H59.5627L59.3207 55.9291L59.1031 55.7345L58.9337 55.4912L58.7161 55.2723L58.4259 55.029L58.2321 54.956L58.0145 55.0046L57.6999 55.3696L57.385 56.5859L57.2395 59.2619L57.651 65.0032L57.9656 66.2682L59.4422 68.0682L60.0717 69.1384L60.4347 70.0144L60.5558 71.012L60.5313 71.5716L60.2893 72.8366L60.1201 73.2015L59.9507 73.3718L59.7571 73.5664L59.4422 73.7126L59.1757 73.7372L58.9337 73.6885L58.7645 73.5183L58.6917 73.2507L58.7161 72.9101L58.8856 72.4481L59.031 72.1318L59.2486 71.402L59.2967 71.1587L59.2721 70.9634L59.1995 70.8174L59.0784 70.6958L58.933 70.6712L58.7878 70.7685L58.6668 70.9632L58.4976 71.2551L58.2556 71.5229L57.9407 71.7662L57.4085 72.0579L56.2952 72.3987L55.3271 72.6663L54.2863 73.0799L53.6571 73.4691L54.9882 76.6071L56.4885 81.2777L56.779 81.9105L57.0936 82.2024L57.4566 82.397L57.9651 82.5919L60.6758 83.2001L61.3293 83.5163L62.249 86.0461L62.37 86.241L63.1687 87.0924L64.3544 88.0655L64.6208 88.3572L64.8387 88.6737L65.1291 88.99L65.4195 89.0145L65.6857 88.8442L65.9036 88.6256L66.0972 88.4553L66.4118 88.3336L68.227 88.066L69.752 87.6525L70.6473 87.7011L74.8827 89.3308L75.4878 89.477L76.0447 89.5741L76.3833 89.6714L77.3758 90.255L77.1094 90.8875L76.2867 91.5441L76.0447 91.8606L75.9481 92.1523L75.9237 95.3881L76.0202 96.0933L76.3107 96.6528L76.7947 97.164L77.2543 97.5289L77.8594 98.6966L76.6977 98.8912L75.4394 99.2315L70.3568 101.469L69.8972 101.81L69.6068 102.175L69.5102 102.613L69.6068 103.002L69.9454 103.464L70.2119 103.561L70.4539 103.537L70.6959 103.269L71.0108 102.734L71.3738 102.418L71.519 102.369L71.8579 102.272L72.0515 102.247H72.2451L72.4145 102.272L72.584 102.321L72.705 102.394L72.8015 102.467L72.8741 102.515L73.068 102.734L73.1406 102.953L73.189 104.534L73.2372 104.704L73.4548 105.166L73.5276 105.312L73.6968 106.018L73.7696 106.188L73.8662 106.31L74.2537 106.723L74.3747 106.869L74.4473 107.015L74.5202 107.21L74.5683 107.405V107.696L74.4718 107.988L73.5521 109.643L73.4552 109.935L72.8502 111.005L72.7292 111.126L72.5835 111.225L72.0994 111.444L71.7608 111.712L71.0832 112.588L71.1076 112.831L71.0345 113.025L70.9379 113.342L70.8898 113.464V113.707V113.975L70.8414 114.121L70.6238 114.583L70.5754 114.753L70.4788 115.021L70.3578 115.289L69.8253 116.115L69.4142 116.554L68.9783 116.919L68.1556 117.843L67.6234 118.183L66.7279 117.405H66.4133L65.9534 117.527L64.6467 118.232L63.9207 118.378L63.2911 118.183L62.323 117.745L62.0568 117.527L61.9114 117.235V116.845L61.984 116.48L62.1534 116.018L62.226 115.629L62.2015 115.239L61.9351 114.631L61.5965 114.388L61.3545 114.34L60.6768 114.413L59.9507 115.045L59.3212 115.775L58.8856 116.7L58.8127 117.089L58.5225 117.697L56.7073 119.862L56.1023 120.811L55.8602 121.419L55.6664 122.076L55.6419 122.708L55.6664 123.146L56.4646 125.676L56.6337 126.041L56.6822 126.138L56.7306 126.235L56.8271 126.429L57.0207 126.964L57.3593 128.254L57.5769 128.984L57.2867 140.782L57.1902 141.074L56.9963 141.366L56.6577 141.536L55.98 141.585L55.6896 141.682L55.4476 142.68L55.8832 144.066L57.8678 147.497L58.0133 148.129L57.7957 148.713L57.4085 149.273L57.2874 149.881L57.239 152.314L57.4566 152.873L57.9891 153.555L58.6668 154.187L58.6912 154.455L58.4976 154.893L58.3521 155.088L58.1827 155.21L58.0375 155.404L57.892 155.721L57.8676 156.061L57.9402 157.715L58.3032 159.515L58.5211 161.608L59.0293 162.581L59.7072 164.551L59.7798 165.695L59.4896 166.692L58.9088 167.519L58.1101 168.128L57.5295 168.419L56.997 168.614L56.4646 168.735L55.8111 168.759L55.2305 168.638L54.9401 168.93L54.5044 169.708L53.5363 173.406L53.0767 174.16L51.6727 175.814L51.5035 175.62L50.8256 175.473L48.3567 175.79L46.5415 173.333L45.5734 172.335L45.0894 172.165L44.4359 172.189L40.7571 172.968L40.2975 173.333L39.9589 174.622L39.5959 175.498V175.693L39.4022 175.961L39.2084 176.35L38.0227 175.961L37.4905 175.644L36.8854 175.012L36.474 174.744L36.4014 174.33L36.3769 173.601L36.3041 173.187L36.0621 172.895L35.578 172.53L35.2634 172.141L34.7549 171.095L33.9322 170.17L33.6658 169.781L32.9641 169.562L32.4801 169.465L31.5604 169.66L30.7859 170.171L26.9619 170.073L24.7353 169.611L23.4281 169.708L22.8712 169.854L21.6855 169.951L20.5238 170.195L20.0879 170.219L19.6283 170.146L19.0716 169.976L18.2245 169.83L17.6921 169.878L16.1673 170.413L15.5867 170.681L14.9088 171.314L14.7394 171.411L14.4492 171.484L13.9649 171.411L13.3845 171.216L12.6337 170.778L12.1018 170.365L11.8597 170.121L11.714 169.732L12.2949 164.672L12.2702 163.772L12.1739 163.164L12.0045 162.653L11.7866 162.41L11.4483 162.312L11.0606 162.093L10.8427 161.923L10.3587 160.975L9.80204 160.926L8.93074 161.194H8.59191L8.32519 161.096L8.08317 160.805L7.86583 160.464L7.64801 159.904L7.26077 156.352L7.30869 155.89L7.38178 155.622L7.55071 155.16L8.68823 152.849L8.80924 152.436L8.76084 151.828L8.63983 151.438L7.84114 149.735L6.51049 147.327L5.25195 145.843L4.7679 145.405L4.50168 145.088L4.21124 144.602L4.18704 144.505L4.11443 144.213L4.09023 144.116L4.04183 144.067L3.72719 143.824L3.70299 143.702L3.7514 143.581L3.7756 143.362L3.70299 143.094L3.50937 142.656L3.21894 142.534H3.04952L2.80749 142.924L2.66228 143.094L2.46818 143.216L2.08093 143.386L1.64529 143.459H1.25805L0.410959 143.581L0.0479206 141.586L0.242026 140.71L0.387239 140.442L0.629264 139.372L0.484051 137.329L0.29043 136.891L0.169417 136.501L0 136.136L0.0242003 135.771L0.677669 133.339L0.798681 132.098L0.774481 131.514L0.266226 128.595L0.169417 126.965L0.194101 126.625L0.55714 125.189L0.532456 124.654L0.217822 123.56L0.532456 123.365L1.25853 123.413L1.50056 123.292L1.64625 123.049L1.79147 120.737L1.71886 120.3L1.50104 119.57V118.67L1.67046 118.402L1.76727 118.353L1.96089 118.329L2.13031 118.377H2.15451L3.09841 118.961L3.53406 119.083L3.80052 119.107L3.94599 119.034L4.13961 118.815L4.26062 118.645L4.33322 118.45L4.35791 118.402L4.59993 116.139L4.76911 115.288L5.15587 112.393L4.98645 111.59L4.45399 110.398L4.28385 109.839Z" fill="#1592ED"/>
</svg>
