<svg xmlns="http://www.w3.org/2000/svg" version="1.1" xmlns:xlink="http://www.w3.org/1999/xlink" xmlns:svgjs="http://svgjs.com/svgjs" width="512" height="512" x="0" y="0" viewBox="0 0 453.54 453.54" style="enable-background:new 0 0 512 512" xml:space="preserve" class=""><g><path fill="#f9c5b8" d="M424.051 453.542c1.824-49.296-29.223-68.256-29.223-68.256l-130.801-73.943h-74.519L58.711 385.286s-31.046 18.96-29.222 68.256z" data-original="#f9c5b8" class=""></path><path fill="#f9c5b8" d="M180.206 320.907h93.128c-20.634-11.143-15.073-53.978-15.073-53.978H195.28c-.001 0 5.56 42.835-15.074 53.978z" data-original="#f9c5b8" class=""></path><path fill="#f5a997" d="M193.989 299.133c22.25-2.541 44.028-9.999 63.601-21.024.076-6.576.671-11.179.671-11.179H195.28c-.001-.001 2.183 16.879-1.291 32.203z" data-original="#f5a997" class=""></path><path fill="#542d6d" d="M330.18 97.519H123.989c-8.077 64.419 11.144 143.366 73.502 164.892 8.898 3.07 20.38 7.048 29.593 4.801 9.214 2.247 20.696-1.73 29.595-4.801 62.358-21.526 81.577-100.473 73.501-164.892z" data-original="#542d6d"></path><path fill="#f5a997" d="M335.397 171.5c-1.96 15.151-10.534 26.402-19.149 25.128-8.616-1.274-14.01-14.589-12.051-29.741 1.961-15.151 10.534-26.402 19.149-25.129 8.618 1.275 14.011 14.59 12.051 29.742z" data-original="#f5a997" class=""></path><path fill="#e9837b" d="M316.126 185.379a2.602 2.602 0 0 1-2.523-1.979c-2.147-8.694-3.123-18.998 5.92-29.488a2.602 2.602 0 0 1 3.94 3.396c-7.852 9.107-6.601 17.6-4.812 24.846a2.597 2.597 0 0 1-1.901 3.147 2.528 2.528 0 0 1-.624.078z" data-original="#e9837b"></path><path fill="#e9837b" d="M324.868 170.28c-.161 0-.324-.015-.488-.046-4.175-.79-8.475-.005-8.519 0a2.606 2.606 0 0 1-3.036-2.075 2.6 2.6 0 0 1 2.069-3.036c.213-.041 5.286-.983 10.456 0a2.601 2.601 0 0 1-.482 5.157z" data-original="#e9837b"></path><path fill="#f5a997" d="M118.142 171.5c1.961 15.151 10.534 26.402 19.149 25.128 8.616-1.274 14.01-14.589 12.051-29.741-1.961-15.151-10.534-26.402-19.149-25.129-8.615 1.275-14.01 14.59-12.051 29.742z" data-original="#f5a997" class=""></path><path fill="#e9837b" d="M137.413 185.379a2.598 2.598 0 0 1-2.527-3.224c1.789-7.246 3.041-15.738-4.812-24.846a2.6 2.6 0 1 1 3.94-3.396c9.044 10.491 8.067 20.794 5.92 29.488a2.597 2.597 0 0 1-2.521 1.978z" data-original="#e9837b"></path><path fill="#e9837b" d="M138.163 170.28a2.59 2.59 0 0 1-.484-.046c-.075-.013-4.358-.789-8.519 0a2.602 2.602 0 0 1-3.04-2.07 2.6 2.6 0 0 1 2.07-3.04c5.168-.985 10.244-.041 10.456 0a2.6 2.6 0 0 1-.483 5.156z" data-original="#e9837b"></path><path fill="#f9c5b8" d="M314.03 135.196c-1.544-43.225-28.073-96.623-82.469-96.33h-11.116c-54.397-.293-80.924 53.104-82.469 96.33-1.553 43.445 11.768 93.551 38.825 120.198 12.685 12.491 31.929 18.499 49.202 18.799 17.272-.3 36.517-6.308 49.202-18.799 27.059-26.647 40.378-76.753 38.825-120.198z" data-original="#f9c5b8" class=""></path><path fill="#542d6d" d="M140.772 181.685s3.349-1.4 3.319-49.592c7.709-19.39 24.739-11.015 42.442-14.718 16.521-3.456 22.771-18.52 30.549-31.545 10.521-17.619 36.241-5.945 49.471-18.878 0 21.799 8.618 37.199 26.249 51.244 20.133 16.037 16.028 39.271 17.193 63.351 8.918-6.314 1.841-36.509 14.173-37.355 0 0 28.646-73.44-34.57-112.919-8.077-36.241-60.594-43.468-80.356-8.477-59.498-27.491-75.823 40.758-75.823 40.758-21.497 16.767-15.804 65.041-2.788 79.082 7.53 8.121 5.145 20.233 10.141 39.049" data-original="#542d6d"></path><path fill="#4e5da7" d="m264.027 311.342 130.801 73.943s31.046 18.96 29.223 68.256H29.49c-1.825-49.296 29.222-68.256 29.222-68.256l130.797-73.943c-.001 0 39.491 24.247 74.518 0z" data-original="#4e5da7" class=""></path><path fill="#e9837b" d="M225.342 234.92c-12.092 0-19.753-6.737-19.866-6.84a2.601 2.601 0 0 1 3.482-3.864c.597.529 14.382 12.422 34.437-.263a2.6 2.6 0 0 1 2.78 4.396c-7.778 4.922-14.848 6.571-20.833 6.571z" data-original="#e9837b"></path><ellipse cx="187.13" cy="184.616" fill="#f6afa8" rx="21.091" ry="9.581" data-original="#f6afa8" class=""></ellipse><ellipse cx="264.875" cy="184.616" fill="#f6afa8" rx="21.091" ry="9.581" data-original="#f6afa8" class=""></ellipse><path fill="#542d6d" d="M203.089 135.631c-.256 2.473-2.209 4.13-4.364 3.923a44.896 44.896 0 0 0-23.012 3.817c-1.974.891-4.356-.046-5.398-2.306-1.039-2.253-.069-5.132 2.252-6.184a51.453 51.453 0 0 1 26.394-4.377c2.536.246 4.385 2.659 4.128 5.127zM248.916 135.631c.257 2.473 2.21 4.13 4.365 3.923a44.892 44.892 0 0 1 23.011 3.817c1.974.891 4.356-.046 5.398-2.306 1.039-2.253.068-5.132-2.252-6.184a51.453 51.453 0 0 0-26.394-4.377c-2.535.246-4.384 2.659-4.128 5.127z" data-original="#542d6d"></path><path fill="#e9837b" d="M225.135 215.05c-.33 0-.665-.063-.989-.196-5.594-2.301-8.639-4.887-9.583-8.136-1.245-4.287 1.486-8.151 4.377-12.242 1.81-2.561 3.682-5.209 4.591-7.98a2.606 2.606 0 0 1 3.284-1.66 2.602 2.602 0 0 1 1.659 3.283c-1.154 3.512-3.349 6.618-5.287 9.359-2.147 3.039-4.175 5.909-3.629 7.789.313 1.075 1.705 2.777 6.567 4.777a2.601 2.601 0 0 1-.99 5.006z" data-original="#e9837b"></path><ellipse cx="191.38" cy="161.967" fill="#2a2d6b" rx="6.935" ry="13.064" data-original="#2a2d6b"></ellipse><ellipse cx="260.626" cy="161.967" fill="#2a2d6b" rx="6.935" ry="13.064" data-original="#2a2d6b"></ellipse></g></svg>