<svg width="174" height="177" viewBox="0 0 174 177" fill="none" xmlns="http://www.w3.org/2000/svg">
<path d="M173.435 92.4542L173.089 92.9439L172.973 93.6071L173.118 94.1543L173.204 94.8172L173.06 95.3645L172.57 95.5954L167.751 99.4861L164.52 101.158L164.03 101.331L162.846 102.484L162.471 102.801L161.202 103.32L160.423 103.435L159.759 103.176L159.5 103.003L159.211 102.887L158.894 102.83L158.576 102.801L158.114 102.916L157.999 103.204V103.607L157.97 104.04L156.874 108.449L155.085 111.706L154.652 112.283L154.017 112.628L152.459 112.974L151.825 113.233L152.258 114.242L152.287 114.53L152.113 114.761L151.479 115.193L151.334 115.395L151.248 116.173L150.93 117.643L150.843 118.363L151.507 118.825L154.566 118.277L155.576 118.479V118.71L154.681 119.545L153.729 120.295L152.69 120.842L151.593 121.217L150.785 121.246L149.314 120.843L146.284 120.353L145.62 120.468L145.158 120.958L144.841 121.505L144.408 121.995L143.052 122.398L142.504 122.888L141.609 123.983L140.686 124.79L140.311 125.223L140.167 125.828L139.993 126.29L139.243 127.385L138.984 127.961V128.423L138.551 129.402L138.175 130.642L137.743 133.869L137.397 135.022L137.339 135.8L137.195 136.434L136.848 136.953L136.445 137.385L136.358 137.904L136.387 138.394L136.445 139L134.915 138.048L134.656 137.645L134.483 137.299L134.252 137.011L133.79 136.723L133.3 136.608L132.896 136.637L132.521 136.493L132.117 136.003L131.771 135.715L131.656 135.369L131.569 135.023L131.338 134.706L130.992 134.418L130.819 134.389L130.674 134.475L128.77 134.764L127.991 134.994L127.385 135.427L126.981 135.974L126.519 137.3L126.201 137.876L125.624 138.424L125.018 138.625H123.606L122.913 138.74L121.615 139.288L120.951 139.403L120.605 139.345L120.086 138.97L119.768 138.855L119.422 138.826L118.787 138.913L118.441 138.884L115.787 138.019L114.113 136.867L113.594 136.665L112.93 136.924L113.248 137.529L114.517 138.855L114.806 139.519L115.209 141.622L116.334 142.833L116.594 143.438L116.392 144.332L116.046 144.966L115.671 145.225L115.267 145.427L114.805 145.888L113.651 146.868L109.497 148.135L108.602 148.279L107.91 147.934L106.554 146.81L105.948 146.55L104.534 146.118L103.842 146.061L102.428 146.262L100.928 146.868L99.6296 147.819L98.9657 149.058L98.562 151.566L98.6197 151.912L98.8214 152.574L98.8506 152.92L98.764 153.093L98.5906 153.266L98.4172 153.526L98.3598 153.9L98.4749 154.765L98.6483 155.456L98.6772 156.148L98.3886 157.042L97.9558 157.849L97.4656 158.252L96.1381 158.771L94.8974 159.693L94.3492 159.808L93.6856 158.799L93.2528 158.396L92.7623 158.05L91.7236 157.589L89.7039 159.145L89.04 159.376L85.953 159.808L85.3468 160.096L85.0583 160.355L84.4812 161.105L84.1927 161.306L83.4136 161.451L82.75 161.71L82.3749 162.027L82.3172 162.286L82.2021 162.315L81.5959 162.056L81.2497 161.768L80.9903 161.422L80.6726 161.192L80.1824 161.249L78.9706 161.883L77.4128 161.94L75.7968 161.796H74.3832L72.8537 162.546L71.9882 162.719L71.3245 162.287L71.2668 161.912L71.296 161.162L71.1226 160.788L70.8917 160.672L69.7085 160.298L68.3235 159.058L67.6022 158.655L66.7366 158.799L66.2747 158.626L65.8419 158.05L65.3225 157.531L64.6012 157.704L64.3701 158.194L63.9082 160.586L63.9373 161.249L64.2259 162.546V163.209L64.0242 163.641L63.7648 163.756H63.4185L63.0435 163.871L62.7258 164.13L62.2353 164.736L61.9467 164.995L59.8119 166.061L59.2349 166.148L58.8598 164.736L58.8021 164.246L58.6287 163.814L58.4553 163.583L58.1667 163.381L57.9073 163.266L57.7057 163.237L57.4745 163.295L57.1286 163.266L56.7246 163.179L56.0325 162.747L55.6862 162.603L55.3977 162.545L55.196 162.603L55.0226 162.718L54.8492 162.891L54.6184 163.035H54.3007L51.6465 162.344L50.7809 162.229L50.319 161.94L50.1747 161.767L49.7711 161.076L49.5114 160.759L49.2229 160.557L48.8192 160.298L48.6172 160.096L48.5307 159.923V159.75L48.6172 159.318L48.7615 158.856L49.3677 157.415L49.4254 157.156V156.839L49.2812 156.666L49.1369 156.608L48.8192 156.551L48.5884 156.435L48.3287 156.234L47.8094 155.6L47.3189 154.476L47.1172 154.217L46.9152 154.131L46.7135 154.16L46.5401 154.217L46.425 154.304L46.2807 154.419L46.1073 154.592L45.9339 154.736L45.7031 154.822L45.472 154.88L45.0969 154.909L44.6064 154.852L42.7601 152.719L42.7024 152.258L41.8659 152.517L41.404 153.093L41.2597 153.67L41.0581 154.073L40.9138 154.217L40.7404 154.304L40.567 154.275H40.365H40.1339L38.8647 154.534L38.5184 154.505L38.259 154.447L38.0282 154.361L37.5663 154.073L37.422 153.928L37.3069 153.727L37.22 153.294L37.1912 153.064V152.833L37.22 152.602V152.343L37.1912 152.142L37.1043 151.767L36.9601 151.565L36.6715 151.306L35.9502 151.047L35.6328 150.961H34.9404L34.7387 151.652L34.883 152.834L34.5653 154.851L34.4502 155.052L34.1325 155.428L34.0462 159.288L33.8154 160.441L30.0645 162.66L28.1891 164.216L26.9772 165.628L26.1408 166.954L25.6214 168.164L25.5346 168.539L25.5057 168.713V168.857L25.6209 169.145L25.7651 169.462L26.3422 170.327L26.6016 171.047V172.143L25.6789 173.987L24.4379 175.543L23.6014 176.35L23.5723 175.86L23.63 175.255L23.6591 175.14L23.8034 174.938L23.8323 174.823V174.679L23.8034 174.564L23.7743 174.449L23.7166 174.334L23.2264 173.526L23.1686 173.411L23.0821 173.152L22.9667 172.951L22.765 172.777L21.784 172.259L20.2839 171.164L19.8803 170.933L19.5626 170.818L19.1007 170.76L18.9855 170.731L18.8704 170.644L18.7836 170.529L18.5527 169.924L17.8314 168.858L18.0622 168.08L18.0331 167.849L17.918 167.474L17.4852 166.495L17.2544 166.236L16.995 166.091L16.7356 166.12L16.5336 166.149H16.3316L15.928 166.092L15.726 166.121L15.5529 166.092L15.2067 165.919L14.8604 165.832L14.601 165.717L14.024 165.342L13.8506 165.112L13.764 164.852L13.8217 164.651L13.9083 164.478L14.0817 164.334L14.2834 164.219L14.5145 164.161L14.6879 164.132H14.9187L15.1207 164.045L15.3224 163.93L15.726 163.786L15.928 163.642L16.1014 163.441L16.2165 163.123L16.3608 162.864L16.5342 162.691L16.9961 162.46L17.2269 162.259L17.4004 161.913V161.625L17.3138 161.365L17.1984 161.135L17.0541 160.962L16.881 160.818L16.679 160.674L16.4482 160.559L15.9863 160.27L15.5243 159.492L14.1108 157.821L13.9089 157.446L13.4469 156.495L13.2735 156.206L13.1293 156.033L12.7833 155.889L12.3505 155.803H12.1771L11.9177 155.86L11.283 156.091H11.1095L10.8502 156.062L10.4465 155.889L10.2448 155.773L10.158 155.629L10.1288 155.485L10.158 155.341V155.197L10.2448 154.938L10.3022 154.823L10.1006 154.189L8.28252 151.826L7.61891 150.529L7.53207 150.298L7.50293 149.923L7.58978 149.809L7.7049 149.751H7.82002L7.96429 149.78L8.0797 149.837L8.19482 149.867L8.33909 149.837L8.54076 149.693L8.68503 149.607L8.82929 149.549H8.94413L9.14611 149.693L9.34808 149.837H9.49234L9.69402 149.78L10.0403 149.549L10.1845 149.376L10.3288 149.175L10.4731 148.829L10.6465 148.598L10.935 148.31L11.0501 148.137L11.1078 147.963L11.0787 147.819L11.021 147.704L10.9636 147.589L10.8767 147.532L10.7616 147.474L10.5308 147.359L10.4439 147.273L10.4148 147.158L10.3856 146.725L10.3282 146.466L10.2414 146.149L10.1839 145.89L10.2131 145.745L10.2705 145.631L10.3574 145.544L10.4439 145.487L11.0787 145.083L11.3381 144.853L11.4532 144.737L11.7417 144.276L11.7994 144.19L11.9437 144.046L12.2322 143.872L13.1552 143.123L13.4437 142.691L13.4729 142.431V142.258L13.4152 142.114L13.3286 141.912L13.0692 141.48L11.8574 138.54L11.8283 138.426L11.7709 138.282L11.6557 138.08L11.3964 137.244L11.0501 135.544L11.021 135.198L11.1361 134.651L11.2229 134.074L11.2521 133.96L11.3095 133.844L11.3964 133.758L11.598 133.585L11.6849 133.47L11.8 133.296V133.095V132.922L11.5689 132.375L11.7131 132.086L12.9541 132.029L13.1558 131.971L13.4443 131.798L13.502 131.654L13.5312 131.51V131.337L13.4161 130.79V130.472L13.5026 129.521L13.4735 129.319L13.4443 129.146L13.4152 129.031L13.3286 128.944H13.2421L12.8958 129.089H12.7807L12.6364 129.002L12.5213 128.743L12.4062 128.628L12.2908 128.599L12.1757 128.57L12.0605 128.541L11.9737 128.483L11.8871 128.397L11.8006 128.223L11.6563 127.791L11.1658 126.926L11.0793 126.84L10.9924 126.754L10.9058 126.696L10.5882 126.494L10.4439 126.35L10.2996 126.062L10.2422 125.831V125.687L10.3288 125.543L10.5308 125.082L10.3288 124.274L11.2809 123.525L11.4829 123.323V123.266L11.6563 122.92L11.858 122.776L12.06 122.69L12.2334 122.66H12.5508L13.1278 122.718L14.1954 122.631L14.3396 121.882L14.3105 121.017L14.4259 120.671L14.6567 120.441L14.8301 120.239L14.8876 120.066L14.9167 119.864L14.859 119.691L14.7724 119.432L14.6282 119.173L14.1662 118.626L14.0797 118.539L13.9646 118.482L13.8491 118.452L13.734 118.423H13.5898L13.4455 118.452L13.3304 118.51L13.1287 118.395L12.869 118.193L12.4362 117.617L12.2054 117.386L12.032 117.3L11.9454 117.357L11.7435 117.53L11.3975 117.847L11.2821 117.905L11.167 117.934H10.9936L10.705 117.761L9.40665 116.839L9.14725 116.752L9.03213 116.81L8.65676 116.954L8.54163 116.983H8.36707L8.13625 116.926L7.53005 116.666L7.18411 116.58L5.74146 115.888L4.7316 115.542L4.09684 115.398L3.46207 115.197L3.14468 114.995L1.99056 113.957L1.81716 112.084L1.90372 111.594L2.01884 111.508L2.13426 111.393L2.24937 111.219L2.42279 110.931L2.4802 110.73V110.557L2.24937 109.577L2.27852 109.375L2.33593 109.231L2.82643 108.799L3.72117 108.337L4.4999 108.164H4.70188L4.817 108.222L4.96126 108.309L5.50918 108.453L5.91312 108.337L6.14394 108.309H6.37477L6.92298 108.395L7.09609 108.366L7.24035 108.309L7.35577 108.193L7.44233 108.02L7.47147 107.905L7.41376 107.79L7.32721 107.675L7.2695 107.589L7.24035 107.3L7.18294 107.185L7.00953 106.868L6.83612 106.378L6.57674 105.946L6.34592 105.658L6.20165 105.514L6.05883 105.308L6.00142 105.193L5.51092 102.714L5.36665 102.195L5.30923 101.763L5.2801 101.619L5.22239 101.504L5.16496 101.417L5.07783 101.273L4.99127 101.129V100.754L4.58734 98.5638L4.50048 97.5551L5.97228 96.6617L6.2031 96.3159L5.94371 95.9127L5.91457 95.7109L5.94371 95.4518L6.14569 94.9328L6.28995 94.7022L6.46335 94.5872L7.55977 94.5296L9.37779 94.1549H9.69518L9.89714 94.2123L10.4742 94.1258L13.0418 92.858L13.3595 92.7713L13.5038 92.8004H13.7057H13.9651L14.4553 92.6854L14.6864 92.5704L14.8307 92.4554L14.8881 92.3686L14.975 92.2822L16.1582 91.3885L16.2734 91.2153L16.3599 91.0712L16.4468 90.8406L16.5042 90.7256L16.6193 90.6389L16.8504 90.4374L17.6292 89.5152L17.8311 89.1978L18.1771 88.8523L18.6099 88.5064L18.9276 88.2182L19.1295 88.1032L19.3029 88.0741L19.4472 88.1032L19.5338 88.1609L19.6206 88.2473L19.678 88.3623L20.1108 88.3914L21.8128 87.7L22.2748 87.0945L22.3899 86.8063L22.621 86.6622L22.7361 86.6331L22.8513 86.7199L23.1689 86.979L23.3706 87.2095L23.5726 87.3536L23.6877 87.4113L23.8897 87.4686L24.6976 87.6418H24.9572L25.1589 87.5845L25.2166 87.4692L25.274 87.3542V87.2392V86.6628L25.2449 86.3455L25.1875 86.2014L25.1298 86.0864L24.9855 85.9132L24.9281 85.8267L24.8704 85.6826V85.5085L24.8995 85.2495V85.0477L24.8704 84.9327L24.7556 84.7016L24.669 84.5866L24.5821 84.5292L24.4956 84.4716L24.1202 84.3275L24.0051 84.241L23.976 84.0969L23.9468 83.8378L24.0045 83.3479V83.0877L23.9754 82.8859L23.8311 82.5403L23.7737 82.4251L22.7927 81.2434L22.7353 81.1282L22.6201 80.7535L22.1296 79.7448L21.9854 79.5431L21.0907 78.592L20.9755 78.3902L20.9181 78.2461L20.5719 77.2374L20.3411 75.5659L20.0234 75.1336L19.5906 74.8744L19.4463 74.8168L19.0135 74.7303H18.0902L17.946 74.7013L17.3398 74.4995L16.1857 73.9231L14.8298 73.5484L14.3102 73.462L13.4155 72.8565L11.5977 72.3092L11.2515 72.136L11.0784 71.9627L11.0492 71.8186V71.6745V71.5304L11.1644 71.0981V70.954V70.2626L11.1352 69.9168L11.0778 69.8018L10.5299 68.5049L10.2122 68.0435L9.63517 67.6112L9.52003 66.1702L9.46234 65.9969L9.28893 65.6796L9.11552 65.4782L8.79784 65.0168L8.62473 64.7862L8.45393 64.6715L8.30966 64.6139H8.02113L7.55919 64.6715L6.2031 64.5274L5.88572 64.4406L5.74146 64.3542L5.6546 64.2101L5.51034 63.4896L5.74146 62.51L5.79887 61.5013L5.85658 61.1263L6.02999 60.6367L6.05883 60.4058V60.2044L5.7703 59.5412L5.71289 59.4547L5.62604 59.368L5.53948 59.2815L5.39522 59.2524H5.25095L5.10669 59.1948L4.93328 59.0798L4.7316 58.7625L4.70246 58.5034L4.78901 57.6964L4.76017 57.4082L4.70246 57.2065L4.58734 56.9759L3.43321 55.6214L3.17354 55.2467L2.79845 54.5262L2.74074 54.3245V54.1804L2.76989 52.8543L2.74074 52.7393L2.65419 52.7102L2.42336 52.8255L2.30795 52.8552L2.10626 52.7976L2.07713 52.6535L2.04798 52.077L1.99056 51.8753L1.55777 51.0683L2.91357 50.2328L3.75001 49.5988L3.92342 49.5412L4.15454 49.5123L4.52963 49.6564L5.02013 49.7714L6.28937 49.8579L6.69302 49.8291L6.92384 49.8L7.06811 49.685L7.55861 49.3968H7.81799L8.19338 49.2527L8.45276 49.1086L8.62617 49.0795L8.77044 49.1086L8.85699 49.1659L9.11638 49.425L9.40491 49.5982L10.8184 49.4832L11.2804 49.3682L11.3955 49.2529L12.3479 48.7633L13.0692 48.3019L13.3578 48.2154L13.5594 48.1863L14.4827 48.244L15.3192 48.503H15.4926L15.666 48.4454L16.0411 48.1863L16.2722 48.1572H16.503L16.6764 48.0707L17.2826 47.5235L17.3978 47.3794L17.4552 46.7738L17.4843 46.6297L17.5712 46.3989L17.7154 46.1974L17.7729 46.1107L18.0614 45.6784L18.1191 45.5634L18.5519 45.0446L18.7536 44.7273L18.8404 44.5832L19.1864 44.295L19.3018 44.1509L19.3592 44.0068V43.8921L19.33 43.6039L19.2726 43.4598L19.2149 43.3448L19.0132 43.1716L17.9742 42.6817L17.4263 42.5952L16.3588 42.5661L16.0702 42.4793L15.7817 42.3643L14.801 41.7588L14.6859 41.6438V41.6153V41.5865L14.7147 41.5288L14.7439 41.4424L14.8016 41.3274L14.8307 41.2121L14.8016 40.9239V40.8086L14.859 40.6936L14.9167 40.5495V40.4342L14.8876 40.261L14.7724 40.2319L14.6859 40.261L14.4839 40.376L14.3396 40.4625L14.1662 40.5201H13.8777L13.7334 40.4625L13.6183 40.376L13.4741 40.2319L13.2721 40.0014L12.7819 39.6264L12.4933 39.4823L12.2914 39.425L12.1471 39.4823L11.7432 39.6558L11.6854 39.7135L11.4261 40.0881L11.3678 40.1743L11.2235 40.2316L11.0793 40.2607L10.4731 40.2316L10.3288 40.2607L9.80944 40.4337L9.66546 40.4625L9.20381 40.4913L6.52019 40.9812L3.54834 40.7795L1.87486 39.7999L1.58633 39.3967L1.61519 39.2817L1.6729 39.1667L1.7306 39.0515V38.8486L1.6729 38.5604L1.4135 38.0128L1.15412 37.6669L0.345949 36.9464L0.172538 36.6291L0.0574189 36.37L0 35.8801V35.7071L0.0288547 35.563L0.0865554 35.4763L0.17312 35.3898L0.490786 35.1881L0.577632 35.1016L0.606487 34.9866L0.664196 34.6984L0.693332 34.5831L0.779897 34.4682L1.01101 34.2091L1.15527 34.0073L1.21269 33.9209V33.7768V33.5168V33.3151L1.24183 33.171L1.29954 32.364L1.27039 31.6144L1.41466 31.0953L1.58807 30.663L1.61692 30.4325L1.58807 30.2884L1.5015 30.2019L1.38609 30.0578L1.24183 29.8561L1.06843 29.3946V29.1641L1.09756 28.9909L1.18413 28.9044L1.29954 28.8468L1.4438 28.8177H1.58807L1.70319 28.8753L1.81831 28.9327L1.99172 29.1059L2.07828 29.1635L2.1934 29.2209L2.30881 29.25L2.45307 29.2209L2.59734 29.1344L2.77046 28.9327L2.82817 28.7886L2.77046 28.6445L2.71304 28.5004L2.65534 28.2698L2.71304 28.0966L2.7996 27.8951L3.14584 27.4337L3.2324 27.3472L3.31925 27.2605L3.60778 27.059L4.38651 26.2809L4.50165 26.2518L4.8193 26.2227L5.05042 26.1362L5.13698 26.0212L5.16612 25.8771L5.13583 25.7642L4.93386 25.4468L4.90471 25.3319L4.8473 24.7554L4.90471 24.6113L5.02013 24.4672L5.48177 24.1214L5.56863 23.9482L5.59776 23.8041L5.6269 23.2277L6.26139 22.8245L7.2421 21.7293L7.76173 21.297L8.25195 20.778L8.88672 19.7984L9.03099 19.481L9.14611 19.1637L9.20381 18.9623L9.4632 18.415L9.52091 18.2418V17.9248V17.6366L9.57832 17.4925L9.69344 17.1178L9.78029 16.8869L9.75115 16.5987L10.559 15.5609L10.9627 15.2436L11.5397 14.9845L11.7131 14.8695L11.8574 14.7254L12.5787 13.4576L12.6939 13.1118L13.7906 11.152L13.9057 10.8062V10.4603L13.8491 10.23L13.7626 9.99947L13.676 9.82626L13.5318 9.65306L13.0701 9.1634L12.955 9.01929L12.8681 8.81755L12.6665 7.98205L12.5796 7.80884L12.3202 7.26155L12.2628 7.0598L12.2051 5.18649L12.118 4.92711L11.8871 4.66802L11.8006 4.61038L11.6852 4.52392L11.5409 4.43717L11.3392 4.37952L11.1372 4.35041H10.9064L10.6753 4.37952L10.2717 4.49451L10.0982 4.55245L9.66546 4.92711L9.29037 5.56116L9.00184 5.87846L8.71331 5.90729L8.39564 5.7923L7.99199 5.24499L7.87687 4.78359L7.99199 4.26481L8.33823 3.83251L8.88614 3.42904L14.9453 0.777851L16.4456 0.37466L17.8306 0.14382L18.6096 1.03752L18.7247 2.76674L19.0424 3.40079L19.7926 4.29451L22.3319 6.08107L22.9664 6.42691L23.3703 6.57102L23.7454 6.5419L24.0048 6.3978L24.2068 6.1096L24.5527 5.8214L24.9281 5.6773H25.1875L25.4183 5.85051L25.6494 6.2537L25.8228 7.11831L26.1114 7.92529L26.2559 8.7602V9.91301L25.852 11.037L25.448 11.7287L25.0729 12.0745L24.6402 12.3627L21.7549 13.4288L21.5237 13.5729L21.4372 13.717L21.408 13.8902L21.4657 14.1208L21.6392 14.3516L21.668 14.3804L24.9287 15.4183H25.1018L25.5346 15.245L26.1116 15.2162L27.7277 15.5332L28.9395 15.9082L29.2572 16.1964L29.2863 16.3405L29.2286 17.1475L29.2578 17.3783L29.3729 17.753L29.488 17.9262L29.6032 18.0412L29.8343 18.1279L30.2962 18.1853L30.5847 18.2144L31.2769 18.1568L32.5176 18.1859L35.1435 17.0622L35.5186 16.9754L36.5576 17.0045L36.817 16.9754L36.9904 16.9466L37.1055 16.889L37.2209 16.8025L37.6537 16.399L37.9131 16.1685L38.1439 16.082L38.4033 15.9952L38.9512 15.9088H39.1532L39.7011 16.0529L39.8454 15.9952L39.9608 15.9088L39.9896 15.7938L40.0765 15.6497L40.1916 15.5056L40.3936 15.3324L40.5953 15.3033H40.7104L41.0281 15.4474L41.8936 14.5828L42.2113 14.3813H42.3264L42.4707 14.4101L42.9035 14.4678L43.6825 14.3813L45.4711 13.1132L45.9331 12.9691L49.4531 12.3354L50.5204 11.9319L51.1266 11.6149L51.3286 11.3555L51.6462 10.6926L51.5594 10.0586L51.8188 9.91446L52.5692 9.71301L53.2614 9.3957L55.0218 7.69559L55.7139 7.23418L56.4644 7.00362L56.984 6.94597L57.4457 6.83099L58.0805 6.31193L59.4654 4.78445L59.9273 4.46714L67.4 1.61423L70.0259 0.980177L71.3243 1.03782L73.921 1.67187H75.1903L75.7673 1.49866L76.864 0.864608L77.4411 0.634049L78.7969 0.576405L80.1821 0.663161L81.1628 0.89372L82.5478 1.87332L83.5002 2.30562L84.0196 2.53648L84.4232 2.27709L84.9714 2.10417L85.9236 1.64276L87.3371 1.4122L88.5489 0.89314L92.0687 0.604937L93.3671 0.259389L93.7133 0L93.7707 0.0867563L94.0018 1.12428L93.3956 2.24828L90.2509 4.32304L88.5783 5.70526L87.9724 5.96435L87.28 6.1658L86.7029 6.39666L86.5586 6.71397L86.7897 7.00218L87.1074 7.57858L87.0497 7.89588L86.7612 8.81785V9.27926L86.9923 11.9595L86.8769 12.2477L86.7326 12.4495V12.6801L87.1365 13.0259L87.4539 13.1124H88.2621L89.3008 13.4582L90.686 13.6599L91.2054 14.0631L91.4074 14.6104L91.4648 16.4546L91.7245 17.0602L93.1671 19.279L93.3979 19.4522L93.4271 19.654L93.196 20.1727L92.9366 20.4036L91.3205 21.3547L90.9169 21.7579L90.7726 22.2478L91.4648 24.1502L91.7825 24.3808L92.4746 24.1793L93.1385 24.1502L93.6579 24.669L94.0616 25.3895L94.552 26.8305L94.6386 27.551L94.5812 28.2424L94.2927 28.9056L94.0041 29.107L93.6005 29.2511L93.2828 29.4529L93.312 29.7984L93.5428 29.9137L94.7837 29.8561L95.274 30.8071L93.5428 33.8909L93.4854 35.1013L96.053 35.3604L97.3514 35.7063L98.0436 35.7927L98.7072 35.7063L99.2842 35.7927L99.5153 36.2827L99.717 37.0032L100.265 37.6369L100.957 37.9251H101.563L102.891 37.7519L103.179 37.781L104.045 38.0692L104.565 38.0984L104.709 38.156H104.766L105.113 38.1269L105.286 38.271V38.9339L105.372 39.1647L105.632 39.3662L105.863 39.5394H106.152L106.555 39.3376L107.277 38.7324L107.622 38.5592L108.229 38.4151L108.546 38.0978L108.835 37.5214L109.238 37.0023L109.931 36.8873L110.537 37.2905L111.576 38.6451L112.326 39.135L114.923 39.2215L115.442 39.5388L115.529 40.0285L115.414 40.576L115.356 41.1813L115.645 41.7868L116.886 43.4586L117.001 44.2656L116.222 44.9288L115.155 44.8711L113.25 43.8915L112.673 44.1221L112.615 44.5544L112.817 46.1686L112.731 46.8024L112.355 47.3788L111.49 48.3875L110.797 49.7711L110.509 50.0302L110.105 50.1452L109.7 50.3187L109.352 50.5496L109.035 50.8666V51.7888L110.679 55.8237L110.737 56.6018L110.391 57.8411L110.276 58.5616L110.362 58.9363L110.709 59.5418L110.766 59.945L110.622 60.3485L110.333 60.7517L108.17 62.9705L106.784 63.6337L106.583 64.1236L106.698 64.383L106.9 64.6421L106.986 65.0744L106.813 65.5361L106.179 66.2566L105.948 66.6598L105.515 68.4464L105.284 69.0228L104.13 70.4929L103.899 71.2134L104.447 71.7898L103.379 72.3371L104.13 73.1153L105.717 73.8358L107.13 74.1813L109.814 74.4407L110.997 74.3254L113.074 73.4899L113.564 73.4035L115.353 74.124L115.844 74.1813L117.027 74.0372L120.316 74.8445L120.604 75.0177L120.893 75.3059L121.21 75.9397L121.355 76.1414L122.047 76.5161L122.393 76.2279L122.739 75.7091L123.432 75.3633L123.951 75.5074L126.086 76.5737L126.317 76.8043L126.548 77.0925L126.807 77.2657L127.24 77.2083L127.529 76.9489V76.2284L127.73 75.9114L128.394 75.8247L130.991 76.257L130.731 76.7469V77.2366L130.905 77.698L131.28 78.1012L131.8 79.254L131.453 80.6659L130.242 83.2888L130.155 84.1243L130.299 84.7298L130.876 86.0267L131.28 88.0442L131.626 88.6497L132.895 89.3128L135.838 89.3702L137.166 89.7734L137.685 90.1766L137.945 90.4648L138.06 90.6665L137.973 90.9838L137.714 91.0988L137.368 91.1853L136.992 91.387L136.589 91.877L136.271 92.4822L136.069 93.1162L135.954 93.635L135.983 94.2405L136.127 95.0187L136.358 95.7683L136.734 96.2297L137.426 96.7193L138.637 98.3912L139.474 98.7082L139.849 98.5068L140.974 97.6422L141.436 97.354L142.533 96.979L143.023 96.6908L143.456 96.2585V96.2297L143.889 95.5956L144.321 95.1924L144.841 94.9907L145.562 94.9331L146.283 95.0772L146.803 95.3945L147.87 96.2591L148.044 96.8646L148.361 97.4119L148.823 97.7292L149.43 97.6428L150.208 97.4695L151.911 97.7869L152.805 97.7001L154.536 97.2104L155.373 96.8073L155.892 96.2597V96.2308L157.364 95.4812L159.21 93.5503L160.595 91.5037L161.894 90.3509L163.394 89.6304L166.741 88.6794L167.376 88.3912L169.107 87.1807L169.54 86.8352L170.002 86.5761L170.492 86.4028L171.733 86.6334L171.935 87.2098L172.05 88.9967L172.339 89.3713L172.8 89.6595L173.204 90.3227L173.463 91.072L173.406 91.5911L173.637 92.0234L173.435 92.4542Z" fill="#1592ED"/>
</svg>
