<svg width="61" height="177" viewBox="0 0 61 177" fill="none" xmlns="http://www.w3.org/2000/svg">
<path d="M10.6795 3.66771L11.283 3.69508L13.0393 3.66744V3.83198L13.1488 4.18792L13.8071 5.36521L14.0269 6.1321L13.9992 7.36417L14.0538 8.10312L14.1633 8.2948L14.5203 8.56859L14.6027 8.7876V8.95217L14.4932 9.47208L14.7676 10.1292L16.5236 13.0314L20.5028 16.9469L20.9422 17.6314L21.2443 18.3703L21.4092 19.2194L21.6559 19.6848L22.0676 19.8491L22.4792 20.0955L24.7841 24.8868L26.2657 26.8307L26.5401 27.1045L26.9795 27.3783L27.1993 27.4879L27.7204 27.5971L27.9671 27.7063L28.159 27.9256L28.5983 28.5006L28.8181 28.6652L29.3121 28.6928L29.696 28.5559L30.0253 28.6104L30.8209 30.1987L31.5618 31.02L35.4584 34.0317L36.1722 34.36L36.9677 34.5793L37.5443 34.9624L37.8736 35.5376L37.9559 36.3042L38.1209 36.9342L39.1637 38.2484L39.5753 38.9053L39.9046 39.6445L40.2068 40.0552L41.2496 40.8492L41.3868 41.0405L41.5517 41.5605L41.6889 41.7795L41.8539 41.8619L42.3201 41.9988L42.4573 42.1081L42.6222 42.3819L42.7046 42.6282V42.8741L42.6222 43.2848V43.8871L43.0062 45.5299L43.2531 46.1052L44.3231 47.1458L44.6799 47.7479L44.7076 48.6517L44.5981 49.4451L44.6804 52.3479L45.8604 57.6868L45.8882 58.3434L45.7232 60.0688L45.833 60.7253V61.0539L45.6958 61.4098L45.5037 61.7115L45.3665 62.0395L45.3942 62.505L45.8058 63.7918L45.9431 64.5037L45.8335 65.0789L45.367 65.5173L44.0498 65.6818L43.4183 65.9279L43.0344 66.5032V67.16L43.1439 67.9537L43.0616 68.8028L42.7595 69.6241L42.5945 70.3907L42.7317 71.1031L43.4727 71.6781L44.0215 72.034L44.6527 72.5816L45.0921 73.2661L45.1744 73.9232L45.0372 74.3062L44.8725 74.6345L44.7627 74.9362L44.7081 75.4014L44.7905 75.7028L45.2298 76.7433L45.3393 77.811L45.4488 78.167L45.6958 78.5229L46.3541 79.18L46.6008 79.5907L46.7381 80.2752L46.6835 80.9596L46.7109 81.5617L47.0679 82.1638L47.3698 82.3007L48.1107 82.4376L48.44 82.6568L48.6047 82.9852L48.6873 83.6697L48.7968 83.9435L49.0989 84.1351L49.8673 84.3541L50.114 84.6279L50.3338 84.9841L50.6629 85.3403L51.0199 85.6415L52.6387 86.5723L52.9409 87.0375L53.0781 87.8866V88.6258L52.9686 89.3924L52.8591 89.7484L52.5021 90.4876L52.4197 90.8435L52.5569 91.5559L53.2976 92.9249L53.5174 93.6915L53.6269 95.6081L53.7364 96.2649L53.9014 96.6756L54.4225 97.3056L54.642 97.6883L54.7246 98.0716L54.642 98.7013L54.6698 99.0573L54.807 99.4135L55.164 100.098L55.2735 100.454L55.2186 100.919L54.9442 101.221L54.642 101.495L54.4502 101.823L54.5597 102.453L55.0262 102.562L56.8923 101.932H57.2216L57.4961 102.069L57.6607 102.371L57.5784 102.699L57.4412 103.027L57.3863 103.438L56.8374 105.053L56.7551 106.012L57.2762 106.504L57.9077 106.723L58.3468 107.134L58.5666 107.736L58.5389 108.421L58.0177 109.818L57.9082 110.53L58.1549 111.296L58.5666 111.817L59.17 112.364L59.8015 112.775L60.3503 112.939L60.4049 113.268L59.9387 115.567L59.6643 116.361L57.5512 119.318L57.1396 119.646L55.7674 119.729L55.0268 119.893L54.4779 120.249L54.1758 120.797L54.1481 121.618L54.203 123.015L54.0657 123.59L53.7636 124.275L53.352 124.85L52.4192 125.835L52.1171 126.383L51.925 127.232L51.8703 127.834L51.6782 128.41L50.4156 129.806L50.0589 130.354L49.5649 131.723L49.1807 132.49L48.1107 133.831L47.6714 134.597L46.6835 137.664L46.4636 137.966L45.7498 138.211L45.4477 138.403L45.201 138.732L44.872 139.443L44.6799 139.772L44.0487 140.265L42.7312 140.977L42.2101 141.525L42.0728 141.826L41.7707 142.866L41.4685 143.305L41.1667 143.277L40.8097 143.113L40.4529 142.976L40.0135 142.921L39.8486 142.839L39.7114 142.866L39.4093 143.195L39.2175 143.496L39.108 143.853L39.0254 144.235L38.9976 144.591L39.0802 145.03L39.327 145.714V146.234L39.2175 146.919L39.0802 147.192L38.8335 147.466L38.6686 147.521L37.4883 148.041H37.1316L36.8571 147.876L36.555 147.822L36.1159 148.013L35.8415 148.342L35.5671 149.054L35.3201 149.355L35.1005 149.437L34.3868 149.465L34.0577 149.574L33.454 150.15L31.9995 152.148L31.6702 152.942L31.3681 154.42L31.4776 154.859L32.109 155.406L32.3286 155.789L32.7951 157.952L32.7674 158.664L32.3009 159.978L31.9718 161.731L31.3681 163.811L31.1214 163.921L30.9565 164.085L30.8192 164.277L30.4353 165.126L29.8865 166.851L29.6669 168.192L29.3648 168.712L28.651 169.506L27.965 170.574L26.1812 174.461L25.2207 175.83L24.6441 176.35L24.3697 175.994L24.3148 175.693L24.013 175.2L23.9032 174.926L23.8758 174.57L23.9304 173.858L23.9029 173.529L23.7108 172.407L23.6831 170.846L22.997 169.723L22.9147 169.34L22.887 169.094L22.9147 168.875L23.4636 167.451L23.6285 166.904L23.7931 165.316L24.1502 164.084V163.344L23.6013 161.319L23.0248 160.306L22.997 159.594L23.2438 158.142L23.0788 156.691L22.0088 154.172L21.8716 152.694V151.243L22.0088 150.75L22.4482 150.559L23.162 150.668L23.5736 150.969L24.1502 152.01L24.4792 151.627V151.107L24.2325 150.642L23.9032 150.34L24.2874 150.148L24.6713 150.203L25.0006 150.449L25.3025 150.832L25.5223 150.285L25.769 149.327L25.9611 148.944L26.51 148.122L26.5923 147.657L26.4002 147.027L26.7295 147.054L27.0316 147L27.3061 146.835L27.5256 146.561L27.1688 146.425L26.373 146.342L26.0711 146.206L25.9062 145.986L25.8239 145.712L25.9062 145.493L26.949 145.192L27.3332 144.809L27.6351 144.398L28.0744 144.207L28.2394 144.261L28.6233 144.59L28.9254 144.672L28.98 144.563L29.4466 144.398L29.9131 144.316L30.0226 144.425L30.2147 144.014L30.3519 143.412L30.3793 142.782L30.2147 142.29L30.4614 142.098L30.2693 141.77L29.6927 141.331L29.5555 141.112L29.6381 140.729L29.8299 140.565L30.0766 140.455L30.3511 140.291L30.5432 139.88L30.406 139.387L30.1592 138.785L30.022 138.046L29.4455 138.237L29.0338 137.936L28.4301 136.868L29.8848 136.458L30.5986 136.019L30.9007 135.335V134.267L31.3124 133.281L31.477 132.542L31.6691 132.323L31.7515 132.132L31.3398 131.556L30.6815 129.914L30.5165 129.338L30.4891 128.736L30.6809 128.134L29.8854 128.326L29.7204 128.024L30.0226 126.82L30.297 126.135L30.9831 125.889L32.2729 125.78L31.9707 125.287L31.8881 123.946L31.586 123.398L31.2841 123.316L30.7627 123.562L30.4608 123.397L30.3782 123.069L30.6527 122.494L30.4608 122.192L30.8999 121.645L30.9825 121.097L30.8999 119.865L30.9825 119.263L31.1743 118.469L31.5314 117.894L32.0525 117.948L32.4364 117.729L32.6834 117.839L32.9301 118.058L33.2869 118.194L33.6708 118.058L33.6985 117.702V117.319L33.8357 116.99L34.2751 116.908L34.8788 117.017L35.51 117.236L35.8939 117.482H36.1137L35.6195 116.496L33.2591 116.004L32.5185 115.374L32.7652 114.525L33.479 113.731L33.9452 112.91L33.3964 112.034L33.6162 112.636L33.4241 113.047L33.1219 113.348L32.8198 113.731L32.0514 115.127L31.8319 115.155L31.2553 115.101L31.1458 115.238L31.036 115.32L30.6521 115.73L30.5698 115.84L30.1859 116.004L30.1033 116.415L30.0755 116.908L29.9109 117.346L29.5539 117.729L29.2794 117.866L28.9504 117.784L28.0722 117.236L27.0569 116.443L26.8373 116.196L26.8096 115.84L26.6178 115.402V115.128L26.7001 114.882L27.084 114.197L27.2761 114.061L27.4682 114.088L27.5506 114.061L27.5228 113.705H26.6172L27.1384 112.911L27.3033 112.774L27.55 112.719L27.8522 112.692L28.0989 112.719L28.2084 112.774L28.4828 112.254L28.7295 111.624L29.1689 111.159L30.0198 111.104L29.6082 110.611L28.9221 110.639L27.5223 111.104H24.8329L25.1348 110.392L25.7934 110.146L27.4123 110.174L27.9888 110.009L28.62 109.653L29.114 109.242L29.4982 108.503L29.8821 108.339L30.2937 108.256L30.4586 108.147L30.5133 106.997L30.4586 106.614L30.2388 106.039L29.9644 105.656L29.9098 105.246L30.2117 104.725L28.6477 104.835L28.4279 104.588L27.9888 104.233L27.6318 103.794V103.438L27.8516 103L27.7144 102.698L27.4946 102.37L27.5223 101.877L27.7418 101.713L28.1812 101.576L28.9221 101.411V101.165H28.4345L28.7366 100.782L29.6694 100.262L30.1359 99.8786L30.2731 99.468L30.1359 99.0573L29.9164 98.7013L29.6966 98.5644L28.5989 98.7561L27.8582 99.1668L27.2267 99.7143L26.4035 100.234L26.1291 100.097L25.5528 99.9057L25.3058 99.7412L24.7846 99.1936L24.5102 98.5639L24.5379 97.9068L24.9219 97.2771L25.4707 96.8664L26.1019 96.6748L29.0382 96.045L29.7243 95.6067L30.0264 94.9222L29.8066 94.3469L29.2855 94.0455L28.2155 93.6074L27.3922 92.7861L27.2004 92.6492L26.761 92.4843L26.6785 92.1285L26.8434 91.3618L26.8983 90.5952L27.0355 90.1566L27.4471 89.9375L28.2155 89.828H29.4504L29.8621 89.7191L30.0819 89.4726L30.1365 89.2268L29.9169 89.1444L29.6425 89.0619L29.2032 88.7881L28.9287 88.6512L28.5448 88.5968H28.1875L27.8308 88.5692L27.5286 88.3775L27.2819 87.6656L27.5286 86.9264L27.968 86.1871L28.2147 85.4482L28.3242 85.3389H28.544L28.7907 85.3666L28.9279 85.3389L28.9002 85.1199L28.6535 84.6268L28.7358 83.6409L28.9279 83.2028L29.1475 82.8743L29.3673 82.6552L29.5045 82.4089L29.5591 81.8889L29.4496 81.8065L28.544 82.0258L28.1046 81.9713L27.8851 81.8065L27.8574 81.5606L27.9669 81.3142L28.2413 81.2049H28.5981L28.9274 81.1505L29.0923 80.8219L28.8179 80.6574L27.418 80.8219L27.0887 80.4936V80.083L27.1436 80.1651L27.3085 80.1377L27.6376 79.9729L27.8843 79.9187L28.0492 79.8092L28.2141 79.3985L27.6376 76.6058L27.3354 76.4141L26.5399 75.4838L26.1831 75.1821L26.5121 74.4434L26.732 74.1149L26.9787 74.0053L26.8415 73.814L26.4021 72.5542L26.0454 71.8424L25.9905 71.4859L25.881 70.1717L25.9087 69.761L26.1831 69.4872L25.9633 68.4742L25.7986 65.9827L25.387 65.4625L24.9754 65.2435L23.2462 63.8197L23.0544 62.5603L22.8895 62.1496L22.5602 62.615L22.3955 62.3136L22.3129 61.9574V61.6015L22.3406 61.2182L21.929 60.1509L21.9013 59.6855L22.3406 59.3295L22.2857 59.0832L22.2583 58.8094L22.3406 58.1796L22.0385 58.3439L21.8735 58.6177L21.654 59.3301L21.7086 58.7546L21.5991 58.2349L21.4073 57.7695L21.2152 57.4136L21.0503 57.304L20.8585 57.1671L20.6664 57.0029L20.5291 56.7291L20.5569 56.4827L20.8862 56.1541L20.9685 55.9082L20.8036 55.5249L20.0352 54.4024L19.733 53.69L19.4037 53.3888L18.9644 53.115L18.5253 52.9781L18.6348 52.5398L18.4976 52.2384L17.8115 51.7729L17.8392 51.0342L16.6043 49.2819L16.2473 48.4606L16.4943 48.6796L16.6861 48.2415L15.8628 48.0225L15.2316 48.0499L14.82 47.7761L14.6828 46.6809L15.0396 45.4215L15.1222 44.9013L15.0396 44.4085L14.9301 43.9698L14.9024 43.5318L15.1222 43.0389L14.9024 42.6557L14.4361 40.7668V39.2333L14.3535 38.8773L14.244 38.5762V38.3024L14.4361 38.0559V37.8369L14.0791 37.4807L13.6128 36.9055L13.2286 36.2487L13.064 35.7011H12.8719L12.8442 36.1118L12.6792 36.8239L12.6515 37.2346L12.7613 37.4259L13.2004 38.0012L13.3101 38.1657L13.2824 39.124L13.1175 39.5892L12.7607 40.0546L12.6781 40.493L13.1724 41.8343L13.3096 42.4366L13.2547 43.0934L12.9526 44.2978L12.6504 47.145L13.1169 48.7333L13.1993 49.363L13.1169 49.9382L12.8702 50.595L12.7607 50.7867L12.6512 50.9236L12.514 51.1426L12.4043 51.4986L12.3219 51.9369L12.2942 52.2655L12.4037 52.9776L12.7876 53.3883L12.8974 53.6621L12.6504 53.8811L12.376 53.8534L12.1293 53.6621L11.7176 53.169L11.6899 53.4428L11.5527 53.6889L11.4981 53.8805L11.4155 53.4975L11.4432 53.0321L11.4155 52.649L11.1688 52.4845L11.0316 52.3199L11.1965 51.9917L11.4709 51.6634L11.7176 51.4986L11.5804 51.3343L11.4155 50.9784L11.2783 50.8135L11.7448 50.6766L11.9643 50.2659V49.7184L11.7176 49.1708L12.2665 49.1987L12.3214 48.9249L12.0192 48.5964L11.6076 48.4595L10.8392 48.4869L10.5922 48.4327L10.1532 48.241L10.2626 48.022L10.4822 47.4744L10.592 47.2827L9.76868 46.8994L9.46654 45.859L9.65837 44.9829L10.3722 45.1474L10.1803 43.6139L10.1526 42.1902L10.3444 41.6426L10.3993 41.2867L10.2621 41.1498L10.07 41.095L9.8233 40.9581L9.54888 40.7391L9.46654 40.5201L9.35705 39.7261L8.91769 38.275L8.78048 37.5631L8.94541 36.7962L9.65891 35.7287L9.93333 35.2085L9.96105 34.7433L10.2904 34.1133L10.3727 33.6753L10.3178 33.3467L9.93389 32.1423H10.3732L10.2638 31.6771L10.0717 31.2938L9.87983 31.2391L9.68773 31.6498L8.12351 29.5421L7.24563 27.5976L6.53185 26.5304L6.28515 25.7633L6.12022 24.9419L6.0925 24.2032L6.1751 23.4639L6.61418 22.3961L6.75139 21.7393L6.47696 22.0408L6.23026 22.4238L5.98356 22.6152L5.62679 22.4509L5.48958 22.1223L5.16028 20.5617L4.17208 18.6731L3.89765 17.6869L4.28157 16.7834L3.45829 16.1811L2.99205 15.3055V14.3193L3.59551 13.4705L4.88531 13.0872L5.70858 13.8812L6.50413 15.0312L7.65672 15.5788L6.50413 14.0181L6.1751 13.2515L6.75139 13.0051L6.25743 12.8134L5.7909 12.5396L5.57137 12.1569L5.84579 11.5814L5.62625 11.3624L5.40643 11.0612L5.24179 10.7595L5.15918 10.5136L5.10457 10.3488L4.93964 10.4857L4.71982 10.8419L4.77471 10.9243L4.8842 11.1157L4.96652 11.3618V11.5808L4.47256 11.9641L4.00604 11.7451L3.67701 11.1428L3.5944 10.4035H3.37487L3.26537 11.0332L3.5398 12.4846L3.23765 12.7584L3.07272 12.8408L2.90807 13.0322L2.63365 13.1967L2.24945 13.2244L2.00274 13.142L1.81064 12.9506L1.67343 12.7313L1.56394 12.5123L0.658341 8.56966L0 7.55691L0.0546035 7.50243L0.850156 6.92721L1.28951 6.40727L1.97557 5.3121L2.52442 4.16219L2.79885 3.39556L3.01867 2.46466L3.1836 1.20522L3.32081 0.931433L3.54035 0.712119L4.17152 0.629701H4.58316L5.70858 0.492805L6.31232 0.355909L7.16303 0.0276399L7.43745 0L7.68444 0.0824182L7.9863 0.410688L9.22121 2.57365L9.60541 3.03881L9.96216 3.36708L10.0717 3.4495L10.2638 3.55872L10.6795 3.66771Z" fill="#1592ED"/>
</svg>
