<svg width="136" height="177" viewBox="0 0 136 177" fill="none" xmlns="http://www.w3.org/2000/svg">
<path d="M134.778 108.656L135.363 110.309L135.07 112.156L133.318 114.977L132.636 117.797L130.981 122.075L129.228 122.368L128.352 123.048L128.547 124.119L129.714 125.384L127.669 128.496L125.624 130.343L120.948 133.748L119.877 135.108L117.735 138.513L116.566 140.07L115.204 141.237L111.407 143.767L107.414 148.242L105.174 149.895L99.7196 151.061L92.9031 153.979L90.4686 154.272L82.873 153.979L80.2437 153.493L77.8092 152.229L70.0189 146.294L68.0713 144.447L67.1958 142.599L67.0975 139.584L66.7089 137.249L66.0273 135.207L63.5928 130.245L62.9111 127.62L62.619 125.09L62.5206 122.463L63.4944 120.518L68.266 117.406L69.6284 116.046L66.2201 115.753L60.2789 120.423L56.0906 121.201L56.7723 122.368L58.8182 124.702L59.2068 125.772L59.9858 130.441L61.2527 132.485L64.2725 136.083L64.8577 138.417L64.5646 139.778L63.397 142.502L63.2023 143.767L63.4944 145.128L64.8577 147.753L70.5058 155.535L72.355 158.842L74.4009 160.203L75.4731 161.855L73.7193 164.871L71.6743 165.942L66.0253 167.986L63.4925 169.347L55.3136 174.988L52.9774 175.961L50.056 176.35L47.5232 175.475L46.451 172.849L45.1851 171.488L36.9078 168.278L38.0754 169.349L36.9078 168.764L35.7393 167.5L35.0586 167.207L33.9864 166.819H28.0453L25.7092 166.234L24.9292 165.942L22.4947 164.582L20.4497 162.442L20.3514 160.691L20.0582 160.106L19.5713 159.327L17.6237 158.257L16.5526 156.992L17.1369 155.145L17.7221 154.366L21.8121 150.183L22.6875 149.017L23.1744 148.044L22.9796 147.265L22.8823 146.779L22.2006 145.612L22.4927 140.554L22.2006 139.776L21.7137 138.609L21.2268 138.221L19.9609 135.789L21.5189 134.915L22.7859 133.553L24.4403 129.468L25.122 124.799L24.343 121.394L22.3954 118.088L21.2268 115.364V112.446L22.1022 110.209V109.722L22.3954 109.625L24.9272 104.859L24.5387 101.454L22.1042 98.4392L19.7681 96.1048L18.8926 94.6457L18.5995 93.5758L18.6978 92.5039L18.5995 91.4339V89.1968L17.724 87.445L16.165 85.8877L14.3158 82.6779L13.2436 80.2462L12.2698 78.6879L9.34845 75.7699L6.91396 74.0191L5.84277 72.6592L5.16114 71.3928L4.67424 70.3229L3.99257 69.4474L1.85119 67.8912L0.0973855 59.9152L0 56.4135L1.07118 51.4519L1.75285 49.0202L5.16114 42.0179L6.52346 36.5689L9.73796 30.2464L11.9777 27.914L14.6069 26.5522L18.4038 23.4397L20.3514 21.1071L23.2728 15.5629L24.7335 13.9093L31.4517 10.2132L33.3993 8.75413L34.7616 7.4896L36.3206 5.15514L39.3404 1.45902L40.8011 0.387078L42.1634 0L43.2356 0.387078L43.9162 0.873418L44.7927 2.13985L48.3947 10.894L69.5261 47.7567L70.4999 49.8012L74.5889 67.8931L75.2705 69.644L76.146 71.0057L77.8014 73.1456L80.0412 76.6472L81.4035 79.6636L82.3773 84.2342L82.4756 85.8877L81.8904 91.432L82.1835 94.4473L88.0263 95.0329L103.12 93.961L113.345 94.8364L119.576 96.1008L121.135 96.5872L122.109 97.1709L123.083 97.951L126.783 102.229L131.067 106.022L132.821 106.606L133.6 107.287L134.778 108.656Z" fill="#1592ED"/>
</svg>
