<svg width="508" height="508" viewBox="0 0 508 508" fill="none" xmlns="http://www.w3.org/2000/svg">
<g filter="url(#filter0_d_4_10)">
<circle cx="254" cy="250" r="250" fill="#1592ED"/>
</g>
<g filter="url(#filter1_d_4_10)">
<path d="M168.42 193.416L168.586 193.354L168.742 193.266L168.884 193.151L169.007 193.013L169.246 192.71L169.504 192.629L169.763 192.606L169.995 192.474L170.151 192.166V191.854L170.103 191.537L170.105 191.203L170.228 190.762L170.28 190.783L170.384 190.81L170.477 190.752L170.493 190.518L170.417 189.876L170.477 189.577L170.684 189.413L171.193 189.558L172.528 190.549L173.882 191.856L174.255 192.363L174.427 193.014L174.531 193.668L174.75 193.883L174.998 193.663L175.196 193.014L175.354 192.518L175.664 192.416L176.01 192.615L176.281 193.015L176.392 193.145L176.52 193.207L176.654 193.198L176.798 193.115L176.844 193.067L176.883 193.014L176.902 192.858L176.896 192.697L176.861 192.536L176.798 192.381L176.661 192.09L176.596 191.786L176.635 191.489L177.019 190.735L177.223 190.57L177.482 190.509L177.859 190.351L177.799 190.168L177.827 188.63L177.794 188.462L177.84 188.333L178.09 188.235L178.287 188.221L178.847 188.32L179.227 188.44L179.515 188.666L179.834 188.807L180.301 188.664L179.91 187.959L179.919 187.68L179.945 187.644L180.049 187.659L180.505 187.447L180.711 187.412L180.874 187.313L180.972 187.03L180.985 186.803L180.809 184.143L180.549 183.214L179.8 182.411L179.626 182.043L179.407 181.295L179.387 180.765L179.615 179.869L179.646 179.377L179.518 178.931L179.045 178.092L178.878 177.658L178.813 177.181L178.995 175.364L179.685 174.744L179.759 174.779L179.957 174.252L180.707 173.353L181.01 172.881L181.049 172.459L180.917 171.999L180.498 171.183L180.331 170.697L180.227 170.064L180.266 169.457L180.524 169.045L181.042 168.851L181.45 168.956L181.778 169.274L182.06 169.719L182.501 170.081L183.052 170.049L183.599 169.774L184.007 169.416L184.324 168.99L185.196 167.223L185.202 166.939L185.156 166.663L185.15 166.307L185.319 164.767L185.228 163.802L185.258 163.406L185.391 163.034L185.801 162.448L185.875 162.253L185.886 162.044L185.847 161.786L185.719 160.45L185.727 159.81L186.402 155.384L186.359 154.627L186.268 154.387L185.982 153.977L185.856 153.738L185.194 153.282L184.847 150.615L184.867 149.795L184.799 149.427L184.712 149.268L184.589 149.158L184.413 148.935L183.961 148.184L183.794 147.807L183.686 147.399L183.647 146.909L183.677 146.468L183.686 146.344L183.827 145.819L184.089 145.45L184.643 145.246L185.057 145.486L185.649 146.427L185.859 146.696L186.545 147.399L186.679 147.712L186.751 148.004L186.911 148.21L187.293 148.267L187.732 148.23L188.385 147.856L188.734 147.73L188.871 147.796L188.982 147.957L189.11 148.079L189.314 148.026L189.437 147.911L189.539 147.759L189.619 147.583L189.669 147.4L190.181 147.083L191.19 147.033L192.253 147.166L192.923 147.399L193.759 148.544L194.197 148.76L195.866 148.547L196.478 148.692L197.07 148.925L197.794 149.108L198.274 149.199L199.474 149.865L199.81 150.137L200.11 150.564L200.412 150.905L200.772 150.928L201.023 150.646L201.086 150.575L201.153 150.108L201.123 149.606L201.153 149.151L201.36 148.694L202.313 147.399L202.389 147.068L202.5 146.185L202.595 145.963L202.814 145.701L202.905 145.299L202.983 144.472L203.231 143.604L204.255 141.163L204.342 140.779L204.407 140.003L204.519 139.639L204.675 139.445L205.114 139.13L205.261 138.942L205.283 138.752L205.212 138.351L205.22 138.213L205.457 137.948L205.713 137.765L205.901 137.5L205.953 136.568L206.095 136.294L206.335 136.096L206.654 135.894L206.943 134.72L207.103 134.389L207.351 134.144L208.29 133.533L208.544 133L208.983 131.416L209.159 131.048L209.467 130.989L209.727 130.993L209.986 130.958L210.274 130.784L210.528 130.466L210.695 130.071L210.773 129.639V129.226L210.895 128.539L211.737 127.398L212.067 126.788L212.459 124.805L212.8 124.335L213.195 123.621L213.306 122.639L213.159 121.673L212.788 121.01L212.035 120.649L211.189 120.481L210.432 120.197L209.937 119.489L209.869 118.534L211.085 115.066L211.558 114.305L211.974 113.857L212.165 113.651L212.849 113.167L213.25 113.017L213.977 112.927L214.367 112.809L214.745 112.509L215.283 111.625L215.585 111.241L215.767 111.163L216.182 111.156L216.381 111.054L216.397 110.955L216.227 110.737L216.238 110.614L216.323 110.538L216.544 110.413L216.62 110.336L218.505 107.543L218.664 107.364L218.866 107.283L219.312 107.225L219.499 107.095L219.635 106.676L219.596 106.15L219.171 103.741L219.188 103.287L219.327 102.782L219.566 102.563L220.351 102.276L220.697 102.04L221.586 101.076L222.243 100.262L222.488 99.7949L222.464 99.3037L222.2 99.0236L221.449 98.78L221.165 98.5301L220.959 96.9581L221.044 96.7595L221.197 96.5771L221.297 96.4033L221.219 96.2241L221.052 96.1325L220.878 96.093L220.707 96.0301L220.546 95.8742L220.285 95.1657L220.19 94.2377L220.229 93.2989L220.372 92.5641L220.661 91.7781L220.7 91.4304L220.608 90.9812L220.207 90.206L220.166 89.8328L220.455 89.3804L220.78 89.1135L221.396 88.4129L221.613 88.0567L221.726 87.7921L221.752 87.6331L221.746 87.4849L221.813 86.8137L221.892 86.6399L222.098 86.4242L222.283 86.3256L222.745 86.2139L222.952 86.1185L223.128 85.9338L223.421 85.4861L223.616 85.3255L224.003 85.2595L224.335 85.746L224.5 85.7631L224.787 85.7933L225.173 85.6684L225.95 85.2898L227.56 84.7567L227.937 84.5247L228.553 83.7317L229.03 82.7486L229.599 81.9595L230.471 81.7345L230.955 81.8206L231.383 81.8315L231.73 81.653L231.984 81.1704L232.192 80.6133L232.422 80.3114L232.751 80.178L233.719 80.0639L233.997 79.9483L234.205 79.6829L234.745 78.7448L235.647 77.6174L236.214 77.3909L237.401 77.1682L237.976 76.8663L238.555 76.2929L239.015 75.6202L239.781 74.1343L240.586 73.0038L241.866 72.0812L243.302 71.4287L248.87 70.4681L250.273 70.534L250.597 70.6442L251.035 70.6031L251.474 70.4603L251.799 70.2733L252.222 69.7565L252.402 69.3523L252.63 69.1591L253.202 69.2809L253.391 69.3934L253.519 69.5106L253.669 69.5851L253.933 69.5695L254.148 69.4462L254.498 69.0629L254.736 68.9666L255.114 68.9899L255.512 69.0962L256.241 69.4392L256.608 69.7014L256.877 70.0002L257.313 70.7606L257.561 71.0609L258.234 71.6358L258.357 71.8252L258.181 72.2861L257.981 72.6825L258.001 73.0565L258.476 73.4554L261.366 74.8024L261.553 74.9793L261.7 75.1756L261.865 75.3463L262.102 75.451L262.308 75.4324L262.538 75.3316L262.709 75.2571L262.924 75.2276L263.191 75.3284L263.36 75.4774L263.529 75.555L263.805 75.4441L263.883 75.2928L264.096 74.6821L264.133 74.499L264.018 74.2507L263.84 74.1079L263.65 73.9923L263.495 73.8232L263.438 73.6051L263.43 73.1791L263.308 72.9914L262.729 72.3815L259.311 67.8617L258.812 67.0167L258.722 66.5683L258.999 65.8723L258.962 65.5246L258.882 65.3198L258.806 64.8806L258.791 64.6564L258.728 64.4384L258.494 64.0744L258.407 63.8393L258.409 63.3435L258.578 62.8749L258.858 62.4667L259.199 62.1548L260.035 61.5729L260.402 61.24L261.113 60.3259L261.388 60.1444L262.064 59.9395L262.365 59.848H262.496L262.572 59.7611L262.607 59.4554L262.677 59.2024L262.824 59.079L263.241 58.9293L263.366 58.7982L263.532 58.4536L263.666 58.3667L263.892 58.2969L264.072 58.1852L265.128 57.2261L265.463 56.8467L265.734 56.4603L265.985 56.2182L266.369 56.025L266.777 55.9257L267.107 55.966L267.352 56.2648L267.365 56.5829L267.455 56.7443L267.917 56.5767L268.307 56.3493L268.405 56.174L268.366 55.8978L268.353 55.3647L268.445 54.9798L268.796 54.2962L268.911 53.9556L268.761 53.286L267.742 52.1772L267.455 51.572L267.581 50.7588L268.206 49.3117L268.097 48.6576L268.314 48.2339L269.065 47.8002L269.239 47.5589L269.375 47.053L269.666 46.956L270.055 47.0235L270.474 47.015L270.708 46.748L270.804 46.2693V45.3677L270.758 45.1442L270.686 44.9262L270.656 44.712L270.756 44.4986L271.084 44.1464L271.205 43.9493L271.271 43.6808L271.555 43.3053L271.867 42.451L272.097 42.0452L272.386 41.2134L272.774 41L273.221 41.3096L273.692 42.0452L274.188 42.3486L274.765 41.9575L275.382 41.6487L275.994 42.2042L276.842 44.7213L277.373 45.4414L278.044 45.6439L279.341 45.0185L280.148 45.3716L281.14 46.7186L281.854 47.1531L282.151 47.4316L282.17 47.8219L281.982 48.497L282.112 48.7398L282.958 48.8749L283.32 49.082L284.714 50.4096L284.791 50.4833L284.965 50.8767L284.987 51.3245L284.872 53.466L284.787 53.9587L284.548 54.4732L284.683 54.7432L285.427 55.1505L285.78 55.5036L286.021 55.9016L286.008 56.2531L285.589 56.465L285.24 56.7179L285.359 57.1416L285.708 57.566L286.427 58.0331L286.511 58.2604L286.466 58.5724L286.452 59.0426L286.542 59.2653L286.674 59.3863L286.739 59.5252L286.535 60.0893L286.59 60.3089L287.297 61.4254L287.64 62.1858L288.086 64.0341L288.485 64.8271L289.197 65.1522L289.939 64.9318L290.344 64.3724L290.546 63.6298L290.657 62.8562L290.642 61.9794L290.696 61.531L290.911 61.3292L291.162 61.4091L292.26 61.9717L292.633 62.2976L293.26 61.9926L293.705 62.3193L294.146 63.2434L294.441 63.5235L294.989 63.4995L295.241 63.3652L295.436 63.1961L295.629 63.0657L295.885 63.0494L296.068 63.1666L296.274 63.3963L296.452 63.6554L296.558 63.8634L296.61 64.3569L296.387 65.312L296.328 66.2804L296.456 68.3769L296.516 68.6252L296.65 68.6842L296.805 68.6951L296.937 68.7952L297.155 69.5439L297.081 70.3253L296.577 71.9105L296.439 72.5987L296.417 73.3607L296.629 74.9063L296.812 75.323L297.051 75.4549L297.339 75.5574L297.652 75.8801L297.786 76.3542L297.658 76.7693L297.426 77.1728L297.259 77.6159L297.744 79.6845L297.757 79.8971L297.689 80.14L297.385 80.4984L297.298 80.7491L297.374 81.2084L297.884 81.9634L298.051 82.3963L298.027 82.8797L297.714 83.7534L297.665 84.2415L297.969 85.0042L297.988 85.2005L297.975 85.3945L297.981 85.5986L298.057 85.8244L298.159 86.3194L298.011 86.7671L297.579 87.5508L297.436 88.3415L297.353 91.3947L297.275 91.8463L297.147 92.2777L296.943 92.6758L296.106 93.6698L295.932 94.1625L295.828 94.6078L295.778 95.0074L295.904 95.2348L296.325 95.1549L296.51 95.3628L297.024 96.4895L297.109 96.8689L296.998 97.0939L296.833 97.2196L296.71 97.3562L296.715 97.8442L296.591 98.0374L295.828 98.6706L295.542 98.6939L295.405 98.4231L295.435 97.5843L295.301 97.5517L294.941 97.6867L294.119 97.8908L293.849 98.1352L293.752 98.489L293.789 98.8948L293.925 99.2968L294.32 100.126L294.416 100.552L294.379 101.071L294.527 101.371L294.737 101.407L294.984 101.366L295.236 101.438L295.427 101.658L296.114 102.708L296.307 103.158L296.414 103.249L296.672 103.349L296.781 103.488L296.835 103.782L296.789 104.096L296.677 104.386L296.529 104.615L295.442 105.473L295.105 105.61L294.901 105.584L294.704 105.475L294.105 105.243L293.626 104.838L293.359 104.72L292.994 104.737L292.755 104.908L292.26 105.49L291.982 105.749L291.8 106.139L291.52 106.94L291.373 107.114L291.214 107.237L291.089 107.391L291.045 107.662L291.039 107.951L290.974 108.14L290.175 109.137L290.063 109.428L289.798 110.453L289.586 110.801L289.282 111.054L288.851 111.275L288.376 111.439L288.107 111.391L287.488 110.77L287.178 110.597L285.453 109.98L285.24 110.018L285.205 110.309L285.225 111.443L285.116 111.806L284.882 112.095L284.496 112.454L284.394 112.61L284.388 112.766L284.499 113.379L284.586 113.582L284.651 113.81L284.613 114.693L284.652 115.024L284.574 115.195L284.187 115.263L283.888 115.493L283.613 115.998L283.242 116.982L283.003 117.229L282.139 117.666L281.801 117.903L280.846 119.151L280.408 119.406L279.967 119.45L279.755 119.267L279.607 118.939L279.367 118.558L278.596 118.151L278.121 118.707L277.618 120.541L277.136 121.586L276.789 122.121L276.455 122.381L276.078 122.505L275.993 122.712L276.11 123.55L276.071 125.134L276.175 125.901L276.507 126.597L277.282 127.22L277.533 127.581L277.37 128.044L277.019 128.233L276.559 128.237L275.706 128.07L275.243 128.156L274.794 128.457L273.985 129.158L272.562 130.115L272.559 130.116L272.49 130.619L272.611 133.531L272.093 136.659L272.08 137.191L272.213 137.371L273.916 137.115L274.412 137.106L274.737 137.175L274.893 137.336L274.997 137.558L275.065 137.803L275.104 138.035L275.215 138.31L275.601 138.593L275.756 138.825L275.782 139.315L275.461 139.445L275.027 139.494L274.703 139.738L274.836 140.33L276.387 140.899L276.507 141.732L276.389 141.906L276.236 142.032L276.099 142.188L276.034 142.436L276.097 142.704L276.394 143.112L276.486 143.348L276.423 143.896L276.162 144.406L272.148 148.601L272.495 149.04L273.328 149.411L274.11 149.972L274.227 150.156L274.316 150.366L274.42 150.808L274.681 150.422L274.897 150.308L275.071 150.215L275.518 150.074L275.935 149.881L277.013 148.803L277.425 148.518L277.881 148.365L278.186 148.334L278.475 148.251L278.864 147.938L279.71 146.959L279.991 146.77L284.506 144.956L286.111 144.562L286.901 144.591L288.457 144.988L289.242 145.003L289.591 144.877L290.251 144.475L290.604 144.345L291.431 144.294L292.262 144.35L292.865 144.501L293.7 145.13L294.271 145.403L294.586 145.55L294.835 145.38L295.159 145.278L295.745 144.975L296.613 144.833L297.336 144.501L299.475 144.325L300.256 144.096L300.475 143.941L300.501 143.997L300.638 144.659L300.276 145.365L298.373 146.669L297.349 147.558L296.98 147.715L296.574 147.837L296.225 147.991L296.132 148.185L296.277 148.366L296.462 148.741L296.429 148.938L296.258 149.511L296.245 149.809L296.397 151.499L296.331 151.684L296.231 151.814L296.234 151.954L296.485 152.174L296.681 152.233L297.171 152.235L297.803 152.444L298.631 152.588L298.953 152.836L299.076 153.186L299.102 154.345L299.262 154.733L300.137 156.132L300.271 156.24L300.299 156.37L300.149 156.684L300.004 156.835L299.017 157.433L298.767 157.682L298.693 158.007L299.095 159.2L299.301 159.353L299.726 159.217L300.121 159.208L300.438 159.524L300.681 159.986L300.975 160.893L301.032 161.348L300.986 161.783L300.812 162.199L300.643 162.317L300.398 162.407L300.211 162.535L300.216 162.767L300.363 162.824L301.12 162.803L301.418 163.39L300.357 165.34L300.333 166.091L301.895 166.256L302.678 166.483L303.09 166.533L303.489 166.485L303.847 166.524L303.988 166.844L304.116 167.284L304.448 167.684L304.865 167.865L305.227 167.869L306.021 167.761L306.204 167.785L306.735 167.956L307.043 167.985L307.128 168.013L307.173 168.021L307.369 168L307.478 168.08L307.484 168.501L307.536 168.65L307.692 168.782L307.839 168.876L308.013 168.887L308.25 168.763L308.697 168.377L308.892 168.271L309.272 168.173L309.465 167.976L309.636 167.615L309.886 167.299L310.3 167.227L310.66 167.463L311.292 168.322L311.758 168.626L313.331 168.685L313.644 168.875L313.685 169.193L313.614 169.541L313.587 169.911L313.763 170.295L314.516 171.34L314.587 171.862L314.11 172.264L313.464 172.231L312.319 171.628L311.972 171.764L311.926 172.026L312.045 173.05L311.994 173.447L311.765 173.808L311.247 174.442L310.83 175.315L310.654 175.468L310.398 175.542L310.162 175.643L309.947 175.788L309.758 175.991L309.756 176.573L310.745 179.1L310.795 179.588L310.577 180.355L310.517 180.812L310.569 181.044L310.773 181.428L310.803 181.67L310.712 181.929L310.536 182.185L309.228 183.568L308.395 183.994L308.275 184.29L308.343 184.453L308.465 184.613L308.506 184.891L308.408 185.173L308.03 185.627L307.876 185.881L307.62 186.986L307.476 187.35L306.784 188.271L306.637 188.724L306.966 189.087L306.324 189.43L306.784 189.915L307.748 190.361L308.6 190.58L310.219 190.743L310.952 190.668L312.213 190.134L312.499 190.093L313.586 190.544L313.895 190.566L314.606 190.49L316.592 190.988L316.774 191.096L316.938 191.278L317.132 191.671L317.227 191.804L317.648 192.024L317.856 191.845L318.067 191.521L318.483 191.309L318.808 191.396L320.083 192.059L320.243 192.207L320.368 192.387L320.528 192.505L320.793 192.466L320.962 192.294L320.974 191.842L321.09 191.66L321.49 191.596L323.076 191.875L322.919 192.17L322.907 192.479L323.022 192.772L323.245 193.011L323.564 193.744L323.346 194.614L322.61 196.256L322.563 196.772L322.65 197.154L323.009 197.951L323.241 199.213L323.46 199.583L324.216 200.005L326.014 200.042L326.815 200.286L327.122 200.541L327.283 200.709L327.357 200.837L327.303 201.045L327.144 201.117L326.932 201.162L326.714 201.283L326.467 201.595L326.276 201.975L326.146 202.359L326.082 202.681L326.092 203.056L326.174 203.553L326.327 204.019L326.548 204.307L326.98 204.604L327.697 205.641L328.214 205.832L328.44 205.712L329.119 205.179L329.41 205.005L330.063 204.765L330.364 204.586L330.631 204.312L330.636 204.307L330.89 203.913L331.14 203.658L331.465 203.52L331.911 203.489L332.34 203.577L332.664 203.779L333.297 204.31L333.401 204.693L333.594 205.029L333.872 205.22L334.241 205.179L334.72 205.067L335.747 205.265L336.289 205.218L337.338 204.902L337.842 204.659L338.169 204.311L338.173 204.307L339.064 203.834L340.17 202.628L341.018 201.357L341.813 200.648L342.707 200.201L344.739 199.595L345.128 199.431L346.18 198.663L346.44 198.457L346.721 198.288L347.017 198.181L347.774 198.338L347.9 198.692L347.959 199.799L348.142 200.035L348.413 200.215L348.669 200.631L348.824 201.094L348.78 201.423L348.93 201.68L348.799 201.945L348.592 202.26L348.518 202.67L348.619 203.017L348.663 203.423L348.578 203.762L348.285 203.903L345.351 206.326L343.389 207.361L343.097 207.458L342.392 208.19L342.158 208.382L341.387 208.711L340.912 208.775L340.506 208.62L340.346 208.508L340.171 208.435L339.983 208.395L339.787 208.383L339.515 208.453L339.443 208.634L339.455 208.881L339.423 209.152L338.758 211.885L337.67 213.902L337.417 214.252L337.023 214.481L336.081 214.68L335.694 214.853L335.952 215.472L335.984 215.649L335.873 215.799L335.481 216.066L335.396 216.178L335.35 216.662L335.156 217.575L335.112 218.021L335.501 218.303L337.367 217.975L337.977 218.106V218.244L337.441 218.763L337.046 219.069L336.86 219.214L336.233 219.565L335.554 219.792L335.064 219.808L334.171 219.555L332.341 219.253L331.945 219.332L331.657 219.621L331.465 219.976L331.207 220.279L330.378 220.526L330.049 220.818L329.508 221.492L328.938 221.994L328.722 222.268L328.636 222.642L328.534 222.929L328.068 223.598L327.916 223.958V224.25L327.646 224.842L327.42 225.617L327.155 227.61L326.961 228.313L326.915 228.793L326.825 229.188L326.619 229.501L326.381 229.783L326.324 230.094L326.336 230.395L326.371 230.778L325.45 230.187L325.286 229.94L325.182 229.727L325.045 229.54L324.768 229.368L324.463 229.305L324.217 229.307L323.991 229.228L323.748 228.92L323.546 228.745L323.47 228.539L323.421 228.322L323.287 228.125L323.07 227.951L322.967 227.93L322.869 227.981L321.724 228.151L321.257 228.309L320.879 228.56L320.64 228.906L320.36 229.716L320.172 230.08L319.818 230.414L319.449 230.541L318.599 230.538L318.165 230.617L317.385 230.949L316.98 231.023L316.776 230.978L316.457 230.756L316.268 230.676L316.048 230.658L315.664 230.712L315.463 230.702L313.85 230.165L312.826 229.451L312.529 229.338L312.123 229.486L312.312 229.864L313.084 230.681L313.264 231.094L313.501 232.397L314.187 233.142L314.332 233.5L314.221 234.064L314.006 234.447L313.973 234.47L313.774 234.602L313.527 234.728L313.254 235.023L312.559 235.614L310.036 236.404L309.5 236.489L309.072 236.272L308.257 235.589L307.89 235.416L307.024 235.163L306.618 235.123L305.759 235.252L304.835 235.622L304.058 236.205L303.646 236.968L303.416 238.502L303.44 238.723L303.562 239.13L303.578 239.337L303.524 239.443L303.423 239.561L303.323 239.719L303.28 239.945L303.35 240.484L303.454 240.901L303.478 241.325L303.312 241.881L303.035 242.364L302.744 242.616L301.93 242.942L301.179 243.497L300.851 243.568L300.448 242.948L300.183 242.707L299.89 242.498L299.258 242.205L298.028 243.166L297.627 243.304L295.764 243.579L295.395 243.745L295.219 243.917L294.861 244.379L294.7 244.49L294.229 244.582L293.811 244.745L293.593 244.941L293.563 245.092L293.481 245.12L293.121 244.953L292.903 244.771L292.745 244.566L292.56 244.433L292.329 244.457L292.261 244.464L291.528 244.856L290.58 244.887L289.596 244.791L288.751 244.806L287.816 245.254L287.287 245.369L286.9 245.095L286.848 244.862L286.874 244.404L286.777 244.186L286.623 244.103L285.912 243.878L285.076 243.108L284.638 242.861L284.104 242.949L283.831 242.857L283.572 242.486L283.258 242.179L282.816 242.283L282.677 242.587L282.397 244.047L282.418 244.454L282.592 245.261L282.586 245.656L282.475 245.937L282.304 246L282.099 245.995L281.87 246.067L281.685 246.231L281.379 246.601L281.21 246.756L279.904 247.415L279.554 247.467L279.124 247.531L278.939 247.806L278.92 248.211L278.963 248.656L279.032 248.938L279.112 249.048L279.125 249.172L278.986 249.497L278.806 249.735L278.11 250.356L277.411 251.319L277.425 251.478L277.58 251.908L277.613 252.13L277.747 252.664L278.041 253.08L278.231 253.464L278.067 253.902L277.865 253.984L277.626 253.964L277.431 253.997L277.348 254.236L277.466 254.438L278.026 254.896L278.212 255.103L278.366 255.523L278.421 255.921L278.33 257.662L278.189 257.979L277.892 258.32L276.587 259.33L276.359 259.747L276.223 260.6L276.073 260.944L275.773 261.269L275.333 261.587L275.118 261.803L275.202 262.067L275.676 262.54L276.183 262.923L276.404 263.157L276.493 263.438L276.411 264.017L276.431 264.2L276.689 265.023L276.754 265.419L276.765 265.908L276.869 266.738L277.108 267.618L277.258 268.519L277.091 269.412L276.963 269.665L276.902 269.705L276.8 269.678L275.8 269.957L274.689 269.926L274.28 270.062L272.82 271.038L272.005 271.433L271.024 271.406L270.506 271.502L270.282 271.471L270.054 271.327L269.961 271.172L269.902 270.988L269.472 270.304L269.287 270.182L269.135 270.162L268.684 270.106L268.814 270.356L269.266 270.779L269.505 271.199L269.592 271.525L270.076 272.542L270.61 273.379L270.681 273.869L270.687 274.375L270.809 274.921L271.102 275.411L271.521 275.838L271.975 276.183L272.4 276.431L272.596 276.27L272.687 276.101L273.077 275.039L273.116 274.989L273.355 274.932L274.422 275.367L274.693 275.524L274.824 275.856L274.813 276.26L274.654 276.601L274.34 276.745L274.281 276.953L274.513 277.413L275.592 278.921L275.674 279.065L275.696 279.196V279.385L275.742 279.645L275.937 280.048L275.984 280.289L275.963 280.422L275.871 280.632L275.852 280.743L275.882 280.933L275.956 280.95L276.049 280.925L276.138 280.982L276.424 281.119L276.468 281.211L276.533 281.479L276.839 282.226L276.928 282.338L276.995 282.455L277.091 282.714L277.139 282.974L277.071 283.092L277.002 283.153L276.424 283.544L275.832 284.594L275.7 284.922L275.984 285.967L275.502 286.033L275.666 286.337L275.929 286.558L276.139 286.818L276.237 287.115L276.356 287.368L276.864 287.8L277.044 288.028L277.085 288.255L277.089 288.508L277.116 288.788L277.247 289.094L277.449 289.365L280.368 292.103L280.909 292.611L281.22 292.818L281.716 293.053L281.937 293.19L282.124 293.404L282.217 293.733L282.681 294.468L282.898 295.098L283.043 295.401L283.321 295.697L283.605 295.845L283.91 295.951L284.16 296.11L284.286 296.421L284.273 296.692L284.197 297.156L284.243 297.442L284.409 297.653L286.206 299.377L286.533 299.564L286.937 299.892L287.676 300.972L288.153 301.302L287.982 301.496L287.884 301.746L287.93 301.936L288.477 301.939L288.496 302.109L288.388 302.307L288.305 302.382L288.587 302.88L288.873 303.159L289.238 303.273L290.268 303.297L290.691 303.42L291.069 303.664L291.453 304.047L291.674 304.381L292.031 305.099L292.259 305.389L292.382 305.678L292.388 306.044L292.467 306.366L292.794 306.519L292.991 306.656L293.128 306.957L293.308 307.582L293.043 307.388L292.805 307.324L292.636 307.429L292.584 307.741L292.675 308.005L292.864 308.118L293.07 308.202L293.225 308.379L293.162 308.623L292.908 308.893L292.567 309.111L292.259 309.2L292.008 309.562L291.844 309.981L291.885 310.371L292.508 310.858L292.614 311.105L292.761 311.704L293.052 312.123L293.783 312.63L294.088 313.033L294.177 313.256L294.218 313.453L294.209 313.655L294.139 313.887L294.144 314.122L294.274 314.35L295.559 316.068L295.73 316.465L295.698 316.695L295.487 317.152L295.514 317.391L295.785 318.026L296.091 319.601L296.224 319.929L296.625 320.216L296.962 319.966L297.588 319.018L298.856 318.005L299.138 317.486L299.314 316.581L299.488 316.231L299.926 315.863L300.006 316.608L300.399 316.996L300.885 317.313L301.247 317.85L301.264 318.248L301.056 319.201L300.956 320.192L300.852 320.538L300.262 321.234L299.999 321.633L299.865 322.063L299.824 322.529L299.839 323.036L299.742 323.232L299.247 323.779L299.062 323.913L298.738 323.957L298.591 323.86L298.471 323.707L298.222 323.591L296.935 323.423L296.567 323.438L296.128 323.654L295.952 324.018L295.822 324.455L295.528 324.884L295.296 325.08L295.138 325.169L294.96 325.193L294.687 325.194L294.475 325.129L294.216 325.016L293.959 324.989L293.772 325.164L293.838 325.454L294.402 326.269L294.545 326.704L294.48 327.093L294.226 327.944L294.242 328.468L294.396 329.384L294.348 329.781L293.691 331.976L293.632 332.487L293.712 333.291L293.748 333.65L293.704 334.895L294.197 338.141L294.236 339.239L294.045 340.259L293.492 340.897L293.422 340.424L293.111 340.082L292.682 339.835L292.252 339.646L291.851 339.86L291.514 339.992L290.759 340.155L290.622 340.249L290.607 340.426L290.694 340.796L290.667 340.989L290.552 341.108L290.368 341.215L290.344 341.239L290.292 341.318L290.242 341.427L290.214 341.54L290.266 341.596L290.394 341.672L290.52 341.771L290.576 341.897V342.226L290.524 342.371L290.377 342.415L290.062 342.291L289.343 341.851L288.962 341.703L288.485 341.623L288.231 341.681L287.489 342.748L287.179 343.055L286.812 343.227L286.649 343.219L286.009 343.189L286.024 343.443V343.446L286.166 343.786L286.293 344.09L286.189 344.49L285.753 345.252L285.658 345.675L285.818 346.187L286.462 346.866L286.466 346.87L286.58 347.344L286.512 347.568L286.397 347.755L286.307 347.962L286.304 348.135L286.303 348.245L286.385 348.474L286.802 349.222L286.943 349.698L286.916 350.481L286.954 350.937L287.016 351.052L287.242 351.238L287.31 351.377L287.304 351.483L287.232 351.799L287.399 352.221L288.536 354.042L291.07 356.51L291.345 356.937L291.528 357.405L291.643 357.93L291.797 358.234L292.055 358.335L292.328 358.483L293.789 361.493L294.743 362.708L294.917 362.881L295.19 363.065L295.338 363.124L295.661 363.199L295.815 363.27L295.952 363.406L296.221 363.764L296.365 363.871L296.684 363.882L296.931 363.796L297.133 363.827L297.638 364.833L298.113 365.34L300.604 367.237L301.053 367.436L301.557 367.585L301.925 367.823L302.135 368.174L302.183 368.666L302.296 369.063L302.964 369.873L303.22 370.284L303.433 370.759L303.624 371.012L304.283 371.508L304.376 371.637L304.483 371.961L304.565 372.092L304.676 372.15L304.968 372.231L305.064 372.296L305.172 372.479L305.218 372.62L305.212 372.785L305.162 373.045L305.168 373.418L305.407 374.452L305.568 374.8L306.249 375.461L306.365 375.644L306.486 375.834L306.492 376.399L306.422 376.89L306.474 378.705L307.227 382.048L307.246 382.463L307.138 383.54L307.207 383.956V384.163L307.118 384.388L306.997 384.569L306.91 384.772L306.923 385.063L307.187 385.871L307.274 386.313L307.214 386.685L307.198 386.7L306.91 386.96L306.079 387.054L305.678 387.207L305.427 387.567L305.429 387.988L305.494 388.467L305.435 389.011L305.253 389.522L305.138 390.003L305.24 390.435L305.704 390.799L306.064 391.023L306.454 391.373L306.743 391.788L306.795 392.208L306.706 392.453L306.597 392.64L306.519 392.842L306.497 393.123L306.543 393.319L306.818 393.973L306.889 394.635L306.961 394.849L307.128 395.082L307.544 395.485L307.705 395.735L307.783 396.178L307.757 396.588L307.776 396.975L307.994 397.345L308.182 397.438L308.662 397.517L308.881 397.66L308.974 397.855L309.021 398.291L309.092 398.462L309.289 398.582L309.782 398.723L309.938 398.887L310.072 399.112L310.279 399.327L310.511 399.514L311.546 400.094L311.745 400.392L311.776 400.585L311.83 400.918L311.825 401.375L311.765 401.851L311.682 402.08L311.457 402.542L311.405 402.759L311.494 403.201L311.971 404.063L312.11 404.533L312.169 405.728L312.238 406.139L312.353 406.402L312.676 406.793L312.82 407.028L312.877 407.262L312.827 407.653L312.844 407.882L312.924 408.107L313.15 408.53L313.226 408.747L313.189 409.04L313.018 409.234L312.814 409.4L312.703 409.607L312.774 409.989L313.069 410.062L314.251 409.671L314.466 409.664L314.651 409.747L314.738 409.936L314.69 410.138L314.601 410.356L314.566 410.602L314.231 411.614L314.161 412.21L314.496 412.518L314.895 412.648L315.181 412.909L315.328 413.274L315.304 413.711L314.979 414.577L314.91 415.018L315.065 415.493L315.325 415.819L315.703 416.15L316.107 416.409L316.463 416.513L316.506 416.719L316.198 418.142L316.021 418.651L314.671 420.478L314.421 420.682L313.549 420.735L313.065 420.831L312.722 421.049L312.529 421.402L312.501 421.903L312.54 422.771L312.461 423.13L312.268 423.553L312.01 423.91L311.405 424.525L311.207 424.868L311.09 425.396L311.058 425.772L310.927 426.127L310.131 426.994L309.908 427.324L309.589 428.184L309.335 428.662L308.659 429.482L308.388 429.96L307.752 431.873L307.609 432.049L307.162 432.199L306.955 432.318L306.799 432.521L306.602 432.963L306.465 433.169L306.239 433.346L306.075 433.475L305.238 433.912L304.895 434.264L304.804 434.455L304.617 435.101L304.437 435.361L304.23 435.355L304.009 435.239L303.77 435.166L303.503 435.126L303.397 435.071L303.312 435.097L303.119 435.303L303 435.488L302.915 435.71L302.866 435.943L302.852 436.165L302.898 436.425L303.065 436.86L303.067 437.174L302.989 437.604L302.9 437.773L302.744 437.948L302.644 437.972L301.895 438.3L301.669 438.292L301.489 438.203L301.294 438.158L301.013 438.283L300.836 438.483L300.743 438.718L300.663 438.923L300.513 439.109L300.359 439.156L299.912 439.183L299.712 439.244L299.311 439.606L298.382 440.842L298.174 441.327L297.987 442.245L298.063 442.517L298.467 442.867L298.603 443.096L298.898 444.438L298.879 444.869L298.588 445.683L298.375 446.77L297.976 448.065L297.819 448.132L297.717 448.224L297.637 448.346L297.379 448.876L297.041 449.939L296.899 450.772L296.709 451.099L296.248 451.588L295.81 452.238L294.669 454.646L294.053 455.497L293.688 455.811L293.524 455.599L293.485 455.4L293.295 455.094L293.224 454.925L293.204 454.714L293.235 454.277L293.225 454.065L293.095 453.379L293.076 452.411L292.651 451.722L292.585 451.479L292.566 451.324L292.59 451.186L292.944 450.32L293.041 449.969L293.143 448.987L293.382 448.222V447.775L293.041 446.525L292.661 445.891L292.646 445.459L292.794 444.556L292.688 443.663L292.015 442.1L291.923 441.189L291.93 440.277L292.019 439.976L292.292 439.864L292.748 439.93L293.015 440.116L293.382 440.752L293.597 440.511L293.589 440.206L293.435 439.918L293.225 439.731L293.468 439.606L293.702 439.643L293.922 439.794L294.112 440.023L294.254 439.685L294.409 439.101L294.527 438.855L294.88 438.352L294.94 438.052L294.814 437.675L295.029 437.691L295.218 437.647L295.387 437.546L295.531 437.383L295.305 437.303L294.787 437.254L294.598 437.165L294.5 437.032L294.439 436.862L294.496 436.716L295.172 436.54L295.408 436.289L295.597 436.039L295.889 435.924L295.992 435.965L296.222 436.155L296.417 436.215L296.458 436.15L296.755 436.045L297.058 435.986L297.119 436.057L297.242 435.811L297.335 435.43L297.352 435.035L297.249 434.743L297.407 434.609L297.273 434.408L296.91 434.138L296.833 434.013L296.884 433.764L297.002 433.659L297.157 433.602L297.328 433.501L297.453 433.234L297.366 432.935L297.205 432.566L297.12 432.1L296.747 432.215L296.484 432.042L296.105 431.37L297.038 431.121L297.488 430.852L297.678 430.427V429.762L297.939 429.143L298.052 428.693L298.18 428.558L298.226 428.438L297.956 428.076L297.54 427.058L297.442 426.702L297.43 426.334L297.55 425.95L297.037 426.082L296.939 425.89L297.118 425.139L297.303 424.709L297.73 424.56L298.554 424.487L298.359 424.19L298.313 423.358L298.124 423.012L297.932 422.959L297.587 423.113L297.406 423.012L297.358 422.808L297.522 422.455L297.405 422.268L297.685 421.918L297.744 421.589L297.677 420.816L297.728 420.446L297.853 419.954L298.077 419.596L298.409 419.631L298.665 419.493L298.826 419.561L298.978 419.701L299.204 419.778L299.44 419.688L299.472 419.478L299.465 419.229L299.559 419.03L299.829 418.984L300.225 419.048L300.615 419.181L300.864 419.336H301.008L300.695 418.715L299.188 418.417L298.727 418.019L298.88 417.492L299.337 417L299.624 416.502L299.271 415.956L299.422 416.332L299.299 416.585L299.096 416.761L298.901 417.004L298.414 417.873L298.276 417.895L297.912 417.86L297.841 417.946L297.782 417.989L297.528 418.25L297.482 418.312L297.242 418.417L297.175 418.675L297.159 418.988L297.052 419.255L296.831 419.485L296.657 419.57L296.443 419.517L295.886 419.189L295.241 418.692L295.104 418.53L295.07 418.313L294.956 418.051L294.961 417.872L295.012 417.717L295.261 417.287L295.376 417.201L295.494 417.229L295.561 417.209L295.535 416.979H294.961L295.292 416.502L295.392 416.407L295.545 416.367L295.746 416.364L295.909 416.38L295.966 416.406L296.154 416.086L296.314 415.692L296.586 415.397L297.124 415.369L296.863 415.063L296.422 415.081L295.535 415.369H293.817L294.008 414.93L294.429 414.767L295.464 414.783L295.833 414.691L296.233 414.474L296.55 414.207L296.796 413.746L297.048 413.645L297.299 413.599L297.412 413.531L297.437 412.813L297.412 412.586L297.263 412.224L297.1 411.974L297.053 411.733L297.255 411.399L296.254 411.471L296.116 411.324L295.834 411.089L295.598 410.826L295.608 410.594L295.749 410.325L295.649 410.134L295.511 409.931L295.537 409.626L295.684 409.521L295.954 409.435L296.423 409.348V409.187H296.11L296.308 408.95L296.899 408.619L297.191 408.379L297.275 408.132L297.201 407.869L297.056 407.659L296.91 407.574L296.209 407.68L295.746 407.943L295.338 408.278L294.818 408.6L294.648 408.52L294.275 408.395L294.116 408.306L293.778 407.967L293.609 407.573L293.633 407.16L293.88 406.76L294.224 406.517L294.629 406.385L296.5 405.994L296.941 405.721L297.125 405.293L296.987 404.947L296.657 404.748L295.968 404.48L295.452 403.967L295.327 403.877L295.045 403.78L294.997 403.551L295.106 403.078L295.126 402.603L295.229 402.329L295.485 402.192L295.967 402.118H296.761L297.017 402.05L297.171 401.903L297.191 401.756L297.053 401.689L296.878 401.656L296.598 401.472L296.422 401.383L296.188 401.349L295.952 401.356L295.726 401.336L295.535 401.221L295.371 400.771L295.542 400.316L295.819 399.857L295.965 399.393L296.034 399.318L296.186 399.323L296.345 399.345L296.421 399.325L296.403 399.188L296.252 398.873L296.307 398.263L296.421 397.99L296.574 397.785L296.707 397.66L296.801 397.496L296.837 397.177L296.761 397.116L296.18 397.256L295.903 397.218L295.763 397.116L295.744 396.974L295.821 396.816L295.985 396.743L296.21 396.75L296.419 396.713L296.539 396.509L296.359 396.409L295.468 396.51L295.261 396.294L295.252 396.055L295.285 396.104L295.39 396.08L295.611 395.972L295.763 395.946L295.872 395.873L295.964 395.625L295.606 393.875L295.406 393.754L294.912 393.177L294.673 392.993L294.888 392.518L295.029 392.324L295.181 392.245L295.104 392.13L294.817 391.348L294.597 390.904L294.547 390.687L294.475 389.851L294.51 389.6L294.673 389.436L294.537 388.804L294.434 387.235L294.171 386.92L293.901 386.774L292.798 385.888L292.685 385.105L292.576 384.839L292.367 385.14L292.268 384.945L292.217 384.729L292.208 384.498L292.224 384.255L291.957 383.589L291.95 383.296L292.223 383.077L292.192 382.927L292.182 382.759L292.223 382.352L292.035 382.467L291.926 382.634L291.796 383.076L291.816 382.711L291.757 382.387L291.639 382.108L291.509 381.882L291.41 381.802L291.28 381.73L291.157 381.626L291.078 381.454L291.096 381.289L291.3 381.095L291.352 380.932L291.242 380.687L290.757 379.988L290.562 379.549L290.351 379.352L290.071 379.187L289.789 379.094L289.871 378.828L289.777 378.64L289.347 378.344L289.354 377.885L288.564 376.779L288.343 376.266L288.498 376.413L288.631 376.131L288.1 375.998L287.693 376.015L287.43 375.849L287.339 375.158L287.581 374.369L287.626 374.039L287.581 373.739L287.505 373.461L287.494 373.179L287.627 372.871L287.499 372.634L287.197 371.455V370.496L287.145 370.261L287.074 370.071L287.062 369.904L287.197 369.741V369.609L286.961 369.382L286.673 369.024L286.428 368.623L286.326 368.266H286.192L286.167 368.528L286.071 368.98L286.049 369.238L286.116 369.355L286.413 369.71L286.48 369.821L286.454 370.423L286.352 370.707L286.121 371.009L286.075 371.285L286.39 372.109L286.48 372.493L286.435 372.901L286.24 373.662L286.061 375.45L286.356 376.447L286.409 376.834L286.352 377.197L286.193 377.603L286.122 377.726L286.048 377.823L285.973 377.953L285.894 378.182L285.84 378.442L285.83 378.651L285.895 379.093L286.145 379.356L286.217 379.526L286.05 379.672L285.884 379.656L285.732 379.533L285.464 379.229L285.435 379.39L285.354 379.545L285.322 379.671L285.275 379.433L285.289 379.139L285.26 378.89L285.112 378.785L285.016 378.693L285.122 378.49L285.31 378.284L285.464 378.181L285.379 378.07L285.261 377.854L285.178 377.737L285.481 377.655L285.619 377.397L285.611 377.054L285.464 376.718L285.812 376.73L285.836 376.565L285.66 376.361L285.392 376.263L284.891 376.29L284.736 376.257L284.461 376.129L284.533 375.998L284.675 375.657L284.748 375.524L284.225 375.292L284.031 374.638L284.159 374.094L284.605 374.198L284.477 373.238L284.461 372.338L284.585 371.989L284.62 371.78L284.534 371.687L284.419 371.653L284.246 371.563L284.087 371.439L284.021 371.297L283.958 370.787L283.671 369.894L283.588 369.445L283.684 368.955L284.149 368.29L284.318 367.968L284.338 367.668L284.553 367.282L284.604 367.001L284.572 366.793L284.317 366.032H284.604L284.527 365.741L284.415 365.511L284.292 365.468L284.174 365.737L283.169 364.405L282.604 363.179L282.156 362.507L281.999 362.028L281.9 361.511L281.867 361.057L281.927 360.584L282.207 359.924L282.298 359.512L282.113 359.7L281.961 359.925L281.798 360.053L281.58 359.955L281.497 359.75L281.282 358.771L280.642 357.583L280.479 356.953L280.72 356.388L280.195 356.008L279.89 355.451V354.841L280.279 354.3L281.099 354.057L281.632 354.571L282.134 355.283L282.872 355.634L282.134 354.645L281.919 354.164L282.299 354.016L281.986 353.884L281.685 353.716L281.55 353.474L281.725 353.115L281.573 352.987L281.429 352.791L281.325 352.591L281.282 352.448L281.241 352.349L281.146 352.427L280.995 352.656L281.033 352.707L281.104 352.831L281.161 352.983L281.151 353.115L280.848 353.363L280.554 353.223L280.335 352.847L280.278 352.374H280.135L280.078 352.766L280.239 353.678L280.063 353.857L279.949 353.912L279.838 354.03L279.679 354.133L279.417 354.153L279.274 354.095L279.15 353.984L279.058 353.847L278.986 353.708L278.411 351.222L277.987 350.585L277.984 350.581L278.1 350.364L278.146 350.134L278.141 349.618L278.186 349.373L278.381 349.064L278.428 348.877L278.363 348.344L278.185 348.01L277.908 347.792L277.553 347.602L277.669 347.421L277.83 347.314L278.027 347.276L278.269 347.304L278.185 347.15L278.074 346.862L277.983 346.71L278.236 346.345L278.308 345.914L278.242 344.177L278.321 343.825L278.57 343.43L277.986 343.441L277.678 343.382L277.449 343.125L276.899 342.178L276.851 341.988L276.837 341.635L276.874 341.066L276.796 340.826L276.547 340.595L276.612 340.391L276.708 340.253L276.851 340.173L277.053 340.148L277.268 339.405L277.397 339.511L277.57 339.429L277.982 339.108L277.816 338.857L277.281 337.308L277.291 337.017L277.551 336.418L277.407 336.143L276.893 334.826L276.909 334.7L276.985 334.537V334.353L276.929 334.173L276.836 334.024L276.926 333.818L276.909 333.51L276.799 333.181L276.627 332.915L276.53 332.715L276.567 332.525L276.658 332.342L276.704 332.17L276.639 332.003L276.344 331.664L276.262 331.493L276.288 331.361L276.483 331.177L276.546 331.046L276.56 329.619L276.441 329.336L276.119 329.245L276.249 328.648L275.811 328.111L274.674 327.306L274.097 326.548L273.521 325.997L273.383 325.816L273.388 325.712L273.24 324.832L273.25 324.61L273.301 324.448L273.411 324.345L273.598 324.309L273.911 324.175L274.149 323.849L274.306 323.454L274.713 320.986L274.906 320.53L274.963 320.265L274.942 319.991L274.876 319.785L274.675 319.371L274.45 318.509L274.378 317.571L274.453 316.629L274.675 315.757L274.983 315.103L275.444 314.529L276.06 314.121L276.836 313.964L276.839 313.963L276.739 313.799L276.613 313.674L276.452 313.578L276.265 313.514L276.068 313.651L275.004 314.388L274.532 314.562L274.166 314.592L272.81 314.426L272.277 314.463L271.792 314.561L271.669 314.626L271.573 314.725L271.462 314.819L271.299 314.861L271.181 314.841L270.929 314.75L270.791 314.724L270.181 314.749L269.751 314.892L269.412 315.177L269.072 315.622L268.382 312.38V311.856L268.223 311.322L267.832 311.924L267.299 311.781L266.662 310.927L266.344 310.181L266.132 309.365L266.132 308.762L266.439 308.306L266.247 308.041L266.193 307.815L266.2 307.615L266.349 307.052H266.194L266.009 307.52L265.938 307.797L265.909 308.115L265.689 307.961L265.602 307.698L265.596 307.377L265.622 307.053L265.909 306.467L265.74 306.323L265.551 306.346L265.323 306.467L265.149 306.022L265.22 305.464L265.478 304.357L265.462 304.004L265.395 303.82L265.047 303.456L264.914 303.278L264.754 302.999L264.628 302.682L264.601 302.393L264.963 301.83L265.549 301.972L266.205 302.211L266.78 301.944L265.968 301.546L265.554 301.411L265.119 301.358L264.619 301.462L264.407 301.734L264.28 302.119L264.043 302.556L263.703 302.097L263.406 301.362L263.315 300.659L263.602 300.293V300.142L263.163 300.049L263.018 299.692L262.951 299.218L262.741 298.778L262.323 298.57L261.797 298.424L261.451 298.191L261.581 297.728L259.297 296.053L259.107 295.847L258.989 295.626L258.93 295.249L258.957 294.535L258.846 294.245L258.605 294.591L258.435 295.434L258.272 295.762L258.196 295.64L258.036 295.45L257.985 295.31L257.852 295.372L257.728 295.455L257.624 295.544L257.555 295.624L257.698 295.762L258.178 296.398L258.879 296.853L259.426 297.332L259.432 298.041L259.003 298.567L258.478 299.02L258.14 299.621L258.273 300.592L259.103 302.068L259.416 302.83L259.432 303.754L259.307 304.07L258.927 304.751L258.764 305.731L258.538 305.87L257.843 305.703L257.902 305.912L257.996 306.105L258.12 306.289L258.273 306.466L258.002 306.439L257.541 306.328L257.269 306.303V306.466L257.556 306.618L257.825 306.818L258.028 307.066L258.13 307.365L258.085 307.702L257.773 308.207L257.644 308.701L257.341 309.461L257.029 309.513L256.882 309.651L256.913 309.84L257.126 310.061L256.752 310.61L256.394 310.944L255.548 311.557L255.348 311.794L254.972 312.416L254.574 313.623L253.746 314.268L253.241 314.867L252.045 315.33L250.757 315.608L249.469 315.749L248.711 315.173L248.227 315.084L247.807 314.856L246.394 313.798L246.044 313.464L245.893 313.141L245.872 312.595L245.801 312.18L245.676 311.816L245.254 310.928L245.122 310.469L245.062 310.016L245.048 309.536L245.233 309.194L246.08 308.629L246.336 308.399L245.716 308.339L244.645 309.181L243.901 309.312L244.023 309.515L244.383 309.934L244.46 310.133L244.604 310.957L244.819 311.326L245.366 311.972L245.475 312.385L245.427 312.644L245.214 313.117L245.178 313.35L245.235 313.588L245.48 314.059L246.49 315.447L246.818 316.037L247.181 316.281L247.372 316.587L247.054 317.117L246.706 317.311L246.299 318.194L244.965 318.658L243.756 318.923L243.333 319.094L242.807 319.162L242.359 319.013L242.167 318.548L241.933 318.307L240.446 317.727L241.706 318.858L241.726 319.413L240.702 320.583L239.888 321.318L239.508 321.459L239.098 321.407L239.084 321.244L239.227 320.964L239.287 320.564L238.918 320.881L238.672 321.269L238.373 321.567L237.852 321.623L237.918 321.437L237.995 320.862L236.488 322.348L236.059 323.028L235.617 323.12L235.175 323.021L234.971 322.734L234.949 322.379L234.874 321.937L234.735 321.543L234.531 321.324L234.686 323.414L234.539 323.869L233.946 324.753L233.813 325.136V326.18L233.743 326.452L233.268 327.304L230.303 330.48L229.004 331.417L228.383 332.008L228.043 332.241L227.638 332.384L227.17 332.414L225.834 332.236L225.496 332.135L225.359 331.867L225.247 329.725L225.409 329.541L225.66 329.416L225.879 329.109L225.985 328.724L225.907 328.363L226.423 327.897L226.763 327.257L226.963 326.532L227.065 325.816L227.051 325.348L226.949 325.005L226.635 324.31L226.568 323.903L226.655 323.641L226.802 323.374L226.906 322.954H226.778L226.619 323.163L226.415 323.358L226.248 323.575L226.189 323.849L226.28 324.207L226.569 324.867L226.634 325.288L226.573 326.273L226.491 326.548L225.862 327.351L225.553 328.314L225.084 328.893L224.599 329.072L224.329 328.511L224.482 328.046L224.831 327.486L225.108 326.837L225.047 326.114L224.334 327.28L224.018 327.973L223.885 328.722L224.027 330.34L223.783 330.854L222.961 331.045L222.351 330.798L221.956 330.177L221.756 329.355L221.736 328.511L222.204 326.05L222.023 325.354L221.579 326.547L221.367 325.646L221.63 324.722L222.213 324.004L222.961 323.714L223.666 323.758L223.885 323.714L224.06 323.575L223.987 323.482L223.765 323.437L223.523 323.421L223.376 323.374L223.274 323.168L223.164 323.121L223.056 323.142L222.733 323.257L222.574 323.272L222.431 323.315L222.299 323.254L222.159 322.958H222.016L221.862 323.323L221.283 324.153L220.791 324.564L220.735 325.144L220.858 326.254L220.841 326.84L220.465 329.559L220.295 330.083L220.023 330.44L219.81 330.518L219.52 330.58L219.26 330.667L219.152 330.818L219.111 330.974L219.02 331.146L218.905 331.288L218.797 331.347L218.259 331.38L218.003 331.347L217.285 331.049L216.342 330.944L216.095 330.771L216.342 330.373L216.566 330.227L216.802 330.12L217.009 329.974L217.142 329.708L217.134 329.531L217.06 329.329L216.952 329.164L216.844 329.099L216.453 329.602L216.227 329.687L216.126 329.174L216.162 328.482L216.126 328.205L215.865 327.583L215.839 327.31L215.942 327.028L216.168 326.678L216.429 326.38L216.634 326.255L216.989 326.212L217.362 326.068L217.643 325.794L217.715 325.359L216.985 325.82L216.885 325.413L216.794 324.453L216.444 323.745L216.435 323.409L216.546 323.097L216.937 322.469L217.21 322.185L217.573 321.997L218.068 321.927L218.453 321.811L218.786 321.516L219.032 321.125L219.149 320.719L219.057 320.86L218.779 321.141L218.719 321.249L218.615 321.383L218.109 321.471L217.726 321.636L217.262 321.619L217.064 321.703L216.546 322.4L216.49 322.509L216.258 322.699L216.148 323.145L216.126 324.091L216.172 324.325L216.366 324.77L216.413 324.984L216.454 325.114L216.531 325.208L216.566 325.303L216.295 325.793L216.269 325.892L216.08 326.197L214.835 327.024L214.568 327.434L213.963 328.798L213.75 329.07L213.456 329.326L213.092 329.505L212.671 329.542L212.144 329.374L211.939 329.066L211.846 328.662L211.657 328.202L211.601 328.605L211.382 328.565L211.126 328.271L210.939 327.917L211.514 327.525L212.287 327.115L213.076 326.581L213.688 325.816L213.886 324.727L214.039 324.544L214.229 324.374L214.392 324.161L214.475 323.962L214.521 323.772L214.537 323.334L214.619 323.249L214.798 323.146L214.956 322.965L214.978 322.656L214.589 322.885L214.395 323.149L214.107 323.849L213.545 324.8L213.39 325.22L213.123 325.745L212.785 326.037L212.411 326.271L211.222 327.426L210.699 327.69L210.21 327.605L210.121 327.029L210.674 326.278L211.8 325.22L212.241 324.449L212.567 323.547L212.73 322.584L212.671 321.626L212.353 320.933L212.279 320.566L212.456 320.192L212.702 319.815L213.114 318.476L213.235 318.32L213.441 318.281L213.687 318.312V318.163L213.465 317.922L213.132 315.851L213.141 315.603L213.235 315.323L213.373 315.198L213.543 315.15L213.673 315.039L213.687 314.724L212.952 315.079L212.672 315.026L212.527 314.562L212.383 315.05L212.671 316.968V318.237L212.558 318.577L212.068 319.143L211.955 319.446L211.829 320L211.497 320.51L211.051 320.884L210.575 321.028L210.534 320.876L210.756 320.531L211.225 319.956L211.656 319.06L211.535 318.673L211.292 318.72L211.051 319.071L210.887 319.779L210.754 320.001L210.568 320.19L210.364 320.268L210.113 320.214L209.945 320.083L209.81 319.933L209.648 319.821L209.256 319.738L209.139 319.918L209.206 320.79L209.175 321.302L209.088 321.713L208.958 322.053L207.878 323.889L207.301 324.576L206.638 324.908L206.203 324.971L205.885 325.12L205.69 325.445L205.62 326.039L205.453 326.277L205.063 326.415L204.63 326.419L204.332 326.249L203.892 326.739L203.595 326.884L203.343 326.712L202.82 325.872L202.719 325.562L202.708 325.223L202.83 322.751L203.307 320.226L203.255 318.58L203.314 318.312L203.389 318.194L203.649 317.9L203.744 317.727L204.048 315.995L203.948 314.659L204.048 314.426L204.793 314.653L205.265 314.634L205.48 314.201L205.641 313.55L205.582 313.237L205.193 313.066V312.93L205.705 312.663L205.914 312.293L205.921 311.189L205.965 310.854L206.153 310.236L206.197 309.985L206.284 309.665L206.679 309.218L206.767 308.944L206.725 308.015L206.638 307.664L206.365 307.107L206.269 306.78L206.341 306.466L206.515 306.348L206.725 306.396L206.961 306.478L207.199 306.466L207.453 306.271L208.07 305.404H207.643L207.844 305.062L207.926 304.674L207.903 303.187L207.927 302.991L208.013 302.769L208.358 302.255L208.479 301.978L208.577 301.571L208.512 301.202L207.926 300.922L207.818 300.648L207.854 300.343L208.071 300.141L209.042 300.586L209.208 300.509L209.284 300.393L209.452 300.302L209.607 300.183L209.65 299.978L209.547 299.793L209.371 299.699L209.187 299.63L209.063 299.528L208.993 299.244L209.063 298.253L209.208 297.968L209.509 297.92L209.765 297.794L209.781 297.275L210.058 297.349L210.335 297.464L210.586 297.635L210.797 297.877L210.426 296.424L210.234 294.124L210.21 293.822L210.284 293.44L210.289 293.193L210.211 292.891L210.059 292.583L209.977 292.462L209.944 292.347L209.935 292.065L210.079 291.499L210.427 291.627L210.849 292.034L211.227 292.303L211.106 291.995L210.717 291.253L210.725 291.011L210.812 290.763L210.693 290.522L210.366 290.183L210.136 289.744L210.008 289.287L209.936 288.297L209.736 287.842L208.849 286.991L208.649 286.326L208.592 285.015L208.464 284.44L207.709 282.873L207.644 282.547L207.781 282.231L208.43 281.949L208.649 281.711L208.706 281.206L208.615 280.683L208.413 280.204L208.013 279.595L207.986 279.352V279.1L207.928 278.846L207.812 278.638L207.576 278.388L207.485 278.257L207.347 277.378L207.193 276.928L206.85 276.734L205.886 276.849L205.486 276.817L205.194 276.569L205.157 276.37L205.164 276.062L205.201 275.764L205.267 275.587L205.437 275.524L205.669 275.813L205.998 275.688L206.264 275.941L206.486 275.965L206.65 275.845L206.903 275.461L207.071 275.348L206.825 274.986L206.705 274.591L206.496 274.27L205.989 274.14L205.676 273.993L205.538 273.638L205.437 273.219L205.267 272.87L204.187 271.67L203.753 271.032L203.459 270.363L203.753 270.441L203.821 270.233L203.626 268.397L203.539 268.157L201.443 266.114V265.948H201.6L201.981 266.247L202.759 266.236L204.18 265.948L203.852 265.793L203.616 265.646L203.103 266.014L202.775 265.875L202.157 264.904L201.53 264.119L201.409 263.702L201.443 263.072L201.217 263.253L201.12 263.555L201.115 263.88L201.152 264.133L200.828 264.217L200.381 264.105L199.962 263.853L199.72 263.515L199.515 263.617L199.432 263.68L199.114 263.276L198.988 262.623L199.083 261.969L199.432 261.56L199.162 260.79L199.135 260.484L199.179 260.203L199.385 259.825L199.432 259.657L199.647 259.257L199.701 259.197L199.667 259.053L199.609 258.882L199.574 258.735L200.139 258.361L200.292 258.209H199.995L199.503 258.351L199.291 258.347L198.954 258.195L198.923 258.03L199.036 257.798L199.134 257.438L199.108 257.211L198.983 256.728L199 256.389L199.098 256.109L199.375 255.521L199.432 255.23L199.278 253.378L199.363 253.021L199.572 252.817L199.777 252.349L199.866 251.839L199.72 251.502L199.511 252.072L198.958 253.128L198.845 253.78L199.013 254.925L199.016 255.604L198.781 255.905L198.534 256.15L198.197 256.615L197.758 256.899L197.205 256.602L197.111 256.374L197.08 255.817L196.998 255.602L196.75 255.477L196.552 255.618L196.434 255.906L196.424 256.224L196.528 256.382L197.205 257.059L197.379 257.331L197.382 257.522L197.316 257.71L197.27 257.968L197.318 259.438L197.429 259.878L197.571 260.126L197.921 260.578L197.988 260.863L197.968 261.11L197.868 261.446L197.844 261.627L197.767 261.863L197.27 262.469L197.222 262.497L197.041 262.579L196.998 262.606L196.997 262.729L197.038 262.897L197.096 263.038L197.142 263.073L196.855 263.287L196.641 263.093L196.371 262.773L195.497 262.469L194.405 261.393L193.99 261.172L193.073 260.807L192.745 260.567L192.579 260.332L192.462 260.121L192.329 259.923L192.098 259.74L191.881 259.694L191.724 259.746L191.573 259.715L191.38 259.424L191.339 259.174L191.406 258.665L191.308 258.432L191.184 258.246L191.072 257.994L190.985 257.734L190.949 257.515L190.806 257.169L190.073 256.546L189.792 256.224L189.228 255.015L189.002 254.857L187.772 253.173L187.546 252.733L187.465 252.356L187.484 251.42L187.626 251.089L187.981 250.755L188.449 250.544L188.93 250.577L189.085 250.728L189.156 250.929L189.245 251.108L189.437 251.185H190.155L190.57 251.874L190.693 252.391L190.365 252.717L191.288 253.357L191.754 253.555L192.384 253.629L192.496 254.184L193.163 254.658L194.05 254.924L194.834 254.857L195.491 254.503L196.844 253.488L197.269 253.021L197.285 252.92L197.245 252.645L197.269 252.552L197.33 252.515L197.505 252.455L197.556 252.412L197.915 251.874L198.048 251.553L198.064 251.147L197.987 250.423L198.11 250.151L198.127 249.984L197.987 249.831L197.86 249.837L197.205 249.967L196.716 249.867L196.521 249.635L196.618 249.38L196.998 249.208L196.777 249.096L196.551 249.053L196.056 249.055L195.839 248.987L195.275 248.432L194.425 247.847L193.999 247.442L193.815 246.995L193.637 246.732L192.848 246.411L192.672 246.075L192.824 245.656L193.195 245.44L193.668 245.408L194.117 245.542L193.999 245.161L194.169 244.82L194.456 244.497L194.692 244.158L194.393 243.692L194.259 243.55L194.099 244.177L193.778 244.771L193.299 245.133L192.672 245.071L192.457 244.901L192.293 244.624L192.216 244.271L192.254 243.867L192.411 243.6L192.896 243.367L193.101 243.107L192.477 243.033L192.202 243.371L192.069 243.805L191.881 244.018L190.935 244.011L190.678 243.791L190.663 243.245L190.407 243.823L190.245 244.04L189.948 244.158V242.711L190.054 242.428L191.191 240.76L191.596 240.48L192.101 240.439L192.817 240.5L192.622 240.247L192.555 239.984L192.658 239.79L192.971 239.738L192.858 239.547L192.725 239.391L192.569 239.291L192.386 239.267L192.263 239.353L192.261 239.669L192.176 239.738L191.104 239.746L190.874 239.807L190.72 239.877L190.531 239.895L190.157 239.876L190.096 239.959L189.937 240.362L189.793 240.499L189.515 240.524L189.221 240.422L188.968 240.245L188.8 240.043L188.902 239.98L189.07 239.82L189.203 239.738L188.43 239.436L188.204 239.224L188.49 238.962L188.178 238.801L188.071 238.536L188.173 238.296L188.489 238.214L188.439 238.051L188.357 237.894L188.106 238.031L187.891 238.183L187.732 238.382L187.655 238.658L187.552 238.542L187.302 238.333L187.198 238.215L187.046 238.73L186.917 238.899L186.696 238.963L186.461 238.873L186.206 238.651L186.004 238.379L185.922 238.131L185.813 237.587L185.382 236.438L185.348 235.898H185.19L185.183 236.746L185.132 237.188L184.917 237.286L184.794 237.019L184.473 235.593H184.329L184.175 236.06L183.887 236.416L183.492 236.666L183.041 236.815L182.457 236.762L181.838 236.551L181.315 236.436L181.021 236.676L180.709 236.521L180.417 236.311L180.178 236.053L180.017 235.759L180.048 236.197L180.192 236.552L180.591 237.285L181.022 238.824L182.273 241.286L182.324 241.872L181.89 241.513L181.551 240.939L181.023 239.738L180.695 238.629L180.432 238.002L180.083 237.728L179.614 238.013L179.465 238.677L179.55 239.424L179.933 240.245L180.049 240.948L180.146 241.262L180.415 241.603L180.494 241.667L180.592 241.719L180.659 241.812L180.869 242.131L180.866 242.177L180.454 241.695L180.249 241.633L180.147 241.58L179.947 241.299L179.687 240.681L178.569 238.966L178.429 238.58L178.344 237.99L178.129 237.586L177.568 236.978L177.145 236.365L176.917 236.133L176.817 235.911L176.779 235.253L176.696 234.98L177.076 235.08L178.213 234.98L178.465 234.862L178.68 234.585L179.002 234.063L179.057 234.185L179.105 234.273L179.141 234.369L179.146 234.522H179.3L179.746 233.344L179.86 233.134V232.995L179.193 233.17L178.315 234.118L177.71 234.52L177.12 234.409L177.057 233.699L177.346 232.521L177.714 232.137L178.186 230.447L178.499 230.063L179.016 229.854L179.237 229.351L179.428 228.229L179.039 228.546L178.843 229.45L178.571 229.772L178.227 229.711L178.038 229.279L177.971 228.709L177.997 228.229L178.801 226.771L179.117 225.946L178.857 225.46L178.762 225.884L178.586 226.385L178.35 226.869L178.068 227.241L177.795 227.747L177.741 228.387L177.843 229.63L177.662 230.607L177.212 231.463L175.978 233.133L175.189 234.839L175.117 234.893L174.999 235.011L174.813 235.118L174.543 235.144L174.39 235.078L174.282 234.952L174.102 234.672L172.765 233.627L172.537 233.367L172.568 233.026L172.664 232.693L172.842 232.373L173.112 232.076L174.466 231.145L175.247 230.982L176.121 230.687L175.934 230.582L175.753 230.54L175.332 230.534L175.081 230.502L175.004 230.409L174.963 230.261L174.816 230.062L174.31 229.649L174.107 229.431L173.972 229.145L173.784 227.154L173.687 226.794L173.442 226.577L172.967 226.542L173.049 227.045L172.814 227.513L172.477 227.69L172.251 227.308L172.564 227.192L172.68 227.171L172.093 226.717L171.898 226.027L171.79 225.268L171.457 224.616L171.013 224.003L170.242 222.665L169.658 222.243L170.17 223.256L171.115 224.686L171.195 224.919L171.378 226.683L171.809 227.921L171.829 228.288L171.677 229.311L171.846 231.617L171.677 232.077L171.523 231.803L171.154 231.322L170.961 230.978L170.038 228.515L169.606 227.88L167.66 226.066L167.434 225.71L167.242 224.673L166.969 224.233L166.204 223.468L166.051 223.233L165.975 223.037L165.849 222.904L165.546 222.854L165.331 222.783L164.901 222.467L164.686 222.396L164.327 222.194L164.112 221.718L163.899 220.696L162.739 217.308L162.375 216.726L162.226 216.37L162.006 214.355L161.893 214.083L161.035 213.362L160.912 213.014L160.773 212.679L160.28 212.216L160.122 211.905L160 211.506L160.071 211.154L160.189 210.488L160.215 210.048L160.065 209.152L160.07 208.711L160.182 208.317L160.768 207.468L161.052 206.509L161.286 206.066L161.636 206.01L162.3 206.021L163.101 205.055L163.773 205.283L164.051 205.652L164.14 206.021L164.184 206.399L164.329 206.794L164.507 206.98L164.73 207.105L165.21 207.271L166.097 207.357L166.796 207.204L167.338 207.327L167.746 208.233L167.907 209.144L168.056 209.61L168.306 209.893L168.731 209.857L169.224 209.535L169.632 209.106L169.823 208.74L169.785 208.511L169.747 208.283L168.992 205.997L168.771 204.867L168.719 204.295L168.411 198.911L168.778 195.452L168.719 194.767L168.42 193.416ZM283.496 459.869L283.079 460L282.674 459.911L282.459 459.644L282.612 459.24L282.925 459.091L283.256 459.207L283.484 459.496L283.496 459.869ZM287.09 444.447L286.947 444.913L286.643 445.226L286.335 445.248L286.18 444.848L286.272 444.54L286.531 444.353L286.865 444.263L287.195 444.246L287.169 444.298L287.115 444.395L287.09 444.447ZM291.307 434.665L291.376 434.326L291.58 434.125L291.766 434.148L291.797 434.483L291.695 434.739L291.532 434.926L291.379 434.937L291.307 434.665ZM271.048 417.433L270.937 417.352L270.624 417.051L271.014 417.06L271.308 417.308L271.366 417.527L271.048 417.433ZM278.866 396.162L278.832 395.724L278.969 395.444L279.199 395.428L279.447 395.78L279.518 396.112L279.424 396.283L279.194 396.296L278.866 396.162ZM288.496 454.498L288.168 454.453L288.04 454.517L288.035 454.641L288.066 454.776L288.188 454.936L288.364 455.022L288.464 455.133L288.34 455.371L287.941 455.486L287.709 455.839L287.564 456.216L287.41 456.391L287.072 456.522L286.352 457.002L286.047 456.973L285.973 457.215L285.877 457.412L285.826 457.574L285.891 457.713L285.35 458.592L285.092 458.831L285.044 458.43L284.822 458.497L284.751 458.056L284.771 457.491L284.818 457.192L284.9 457.004L284.967 456.392L285.244 456.324L285.403 456.173L285.479 456.023L285.534 455.955L285.653 455.881L285.74 455.707L285.814 455.511L285.892 455.372L286.047 455.24L286.609 454.923L287.216 454.386L287.631 454.205L288.067 454.354L288.161 454.29L288.221 454.274L288.498 454.354V454.498H288.496ZM286.19 452.957L286.144 452.832L285.94 452.553L285.891 452.382L285.97 452.141L286.108 451.945L286.178 451.77L286.047 451.586V451.428L286.405 451.421L286.954 451.746L287.338 451.865L287.346 451.962L287.318 451.99L287.261 451.992L287.194 452.011L287.133 452.138L287.072 452.229L287.07 452.324L287.195 452.459L286.875 452.636L286.652 452.796L286.518 453.022L286.39 454.036L286.19 454.643V452.957V452.957ZM280.431 444.99L280.245 445.315L280.373 445.44L280.599 445.448L280.717 445.427L280.835 445.552L280.932 445.702L281.104 446.073L280.998 446.201L280.89 446.288L280.752 446.324L280.562 446.303L280.756 446.642L280.86 446.752L280.403 446.968L280.06 446.881L279.967 446.582L280.274 446.17L280.143 445.896L280.051 445.497L280.111 445.14L280.431 444.99ZM292.653 436.517L293.18 436.774L293.672 437.182L293.903 437.764L293.657 438.546L293.354 438.744L292.985 438.751L292.751 438.602L292.872 438.335L293.056 438.261L293.218 438.267L293.338 438.233L293.382 438.037L293.321 437.892L293.169 437.835L292.976 437.861L292.795 437.964V437.671L292.677 437.369L292.605 437.04L292.594 436.738L292.653 436.517ZM279.988 436.649L280.113 436.043L280.441 435.808L280.862 435.813L281.279 435.919L281.057 436.508L280.773 436.926L280.383 437.241L279.845 437.513L279.994 437.296L280.076 437.092V436.884L279.988 436.649ZM287.91 437.671L287.972 438.066L287.973 438.489L288.091 438.797L288.496 438.852L288.312 439.129L288.229 439.395L288.279 439.64L288.496 439.862L288.388 439.849L288.361 439.885L288.363 439.949L288.34 440.02L288.096 440.493L287.911 440.678L287.553 440.751L287.26 440.661L287.163 440.427L287.194 439.729L287.281 439.788L287.338 439.862L287.654 439.612L287.571 439.406L287.193 439.145L287.199 438.833L287.368 438.159L287.337 437.805L287.255 437.747L286.968 437.659L286.906 437.593L286.896 437.401L286.876 437.278L286.83 437.187L286.461 436.721L286.046 436.359L285.999 436.457L285.928 436.558L285.891 436.651L285.76 435.921L285.559 435.816L285.37 435.804L285.232 435.903L285.175 436.133L285.04 436.267L284.395 436.713L284.171 436.797L283.915 436.583L284.1 436.244L284.602 435.701L284.662 435.601L284.942 435.426L285.044 435.338L285.088 435.197L285.16 434.818L285.247 434.673L285.511 434.594L285.898 434.647L286.303 434.807L286.608 435.045L286.815 435.376L286.95 435.758L287.025 436.169L287.051 436.582L287.155 436.963L287.404 437.198L287.692 437.398L287.91 437.671ZM293.385 434.738L293.181 434.807L293.039 434.932L292.964 435.111L292.954 435.336L292.489 435.132L292.304 434.751L292.332 434.331L292.509 434.008L292.853 433.737L292.986 433.595L293.084 433.423L293.12 433.218L293.069 432.84L293.084 432.693L293.305 432.334L293.457 432.396L293.566 432.715L293.724 433.522L293.735 433.848L293.658 434.447L293.693 435.042L293.658 435.177L293.499 435.241L293.417 435.105L293.385 434.897V434.738V434.738ZM288.066 428.882L288.189 428.93L288.378 428.881L288.553 428.871L288.63 429.029L288.485 429.244L288.158 429.414L287.481 429.6V429.321L287.394 428.99L287.164 428.758L286.947 428.585L286.907 428.431L287.153 428.328L287.588 428.282L288.197 428.284L288.055 428.705L288.066 428.882ZM288.132 417.06L288.416 417.08L288.727 417.541L288.97 418.129L289.071 418.53L289.01 418.731L288.872 418.8L288.723 418.826L288.63 418.897L288.595 419.099L288.63 419.775L288.379 420.666L288.333 421.111L288.497 421.532L288.222 422.066L288.242 423.286L288.066 423.899L287.91 423.74L287.871 423.85L287.821 423.941L287.78 424.041L287.766 424.178L287.573 423.99L287.277 423.62L287.193 423.446L287.048 423.609L286.98 423.726L286.984 423.852L287.051 424.045L286.701 424.072L286.53 424.21L286.584 424.377L286.907 424.484L286.704 424.582L286.465 424.634L286.215 424.635L285.995 424.577L285.759 424.484L285.75 424.377L285.759 424.046L285.964 424.111L286.153 424.074L286.324 423.945L286.476 423.74L286.412 423.551L286.332 423.102L286.255 422.934L286.224 422.738L286.412 422.579L286.644 422.45L286.762 422.343L286.716 422.171L286.619 422.1L286.521 422.008L286.476 421.763L286.542 421.577L286.84 421.368L286.968 420.968L287.111 420.895L287.255 420.868L287.337 420.813L287.345 420.569L287.214 420.153L287.194 419.921L287.295 419.478L287.91 418.313L288.01 417.355L288.132 417.06ZM293.528 416.979L293.704 417.078L293.815 417.237L293.887 417.45L293.945 417.711L293.97 417.941L293.952 418.598L293.754 419.217L293.815 420.878L293.747 421.15L293.45 421.487L293.385 421.762L293.407 422.056L293.504 422.573L293.528 422.86L293.294 422.694L292.966 422.289L292.796 422.129L292.571 422.046L292.299 421.981L292.055 421.882L291.925 421.691L291.567 422.113L291.366 422.057L291.3 421.705L291.351 421.239L291.187 421.364L291.088 421.354L291.016 421.249L290.931 421.092L291.078 420.653L290.905 420.357L290.639 420.156L290.503 419.994L290.254 419.391L290.31 419.111L290.802 419.03L290.671 418.855L290.296 418.528L290.217 418.386L290.265 418.109L290.385 418.01L290.528 417.972L290.648 417.873L290.742 417.831L290.905 417.73L290.962 417.628L290.723 417.58L290.496 417.585L290.311 417.567L290.169 417.483L290.074 417.287L290.555 417.185L291.49 417.333L291.795 417.286L291.726 417.2L291.686 417.14L291.638 416.978L291.911 416.984L292.509 417.14L292.762 417.098L293.251 416.953L293.528 416.979ZM283.453 419.176L283.623 419.259L283.712 419.392L283.709 419.567L283.585 419.775L283.951 420.191L284.08 420.381L284.171 420.653L283.657 420.35L283.495 420.206L283.453 420.068L283.325 419.958L283.011 419.484L282.639 419.255L282.536 419.1L282.803 419.03L282.885 418.833L282.891 418.407L282.763 418.004L282.44 417.872L282.541 417.329L282.286 416.16L282.584 415.662L282.543 416.468L282.584 416.7L282.696 416.831L283.235 417.286L283.388 417.569L283.391 418.14L283.508 418.576L284.018 418.455L283.986 418.714L283.859 418.912L283.67 419.062L283.453 419.176ZM275.244 414.784L275.456 414.966L275.54 415.171L275.494 415.387L275.325 415.595L275.292 415.696L275.402 416.247L275.315 416.235L274.961 416.101L274.792 415.605L274.807 415.332L275.244 414.784ZM287.625 415.809L287.619 415.257L287.674 414.857L287.86 414.729L288.268 414.996L288.357 415.289L288.255 415.652L288.035 415.912L287.778 415.9L287.625 415.809ZM287.91 414.184L287.781 414.35L287.617 414.416L287.456 414.366L287.057 413.754L287.242 413.445L287.585 413.307L287.768 413.385L287.806 413.588L287.932 414.004L287.91 414.184ZM294.96 413.464L295.774 413.677L296.128 413.867L296.108 414.184V414.051L295.544 414.223L294.31 414.233L293.878 414.411L293.534 414.721L293.119 415L292.697 415.159L292.325 415.106L292.017 414.465L291.941 414.189L291.925 413.89L291.982 413.72L292.182 413.403L292.223 413.237L292.177 413.02L292.069 412.922L291.93 412.847L291.701 412.599L291.605 412.535L291.534 412.434L291.51 412.211V411.545L291.342 410.883L291.337 410.604L291.509 410.36L291.644 410.588L292.223 411.106L292.654 411.707L292.986 412.405L293.204 412.614L293.658 412.866L294.038 412.748L294.356 412.915L294.96 413.464ZM284.314 408.747L284.51 408.638L284.797 408.523L285.057 408.502L285.175 408.673L285.232 409.58L285.175 409.787L285.011 409.466L284.74 409.213L284.396 409.137L284.017 409.348L283.899 409.289L283.858 409.258L283.824 409.224L283.535 408.73L283.116 408.314L283.01 408.015L283.069 407.626L283.258 407.14L283.53 406.724L283.811 406.55L284.216 406.569L284.561 406.654L284.797 406.849L284.888 407.195L284.878 407.406L284.807 407.825L284.745 408.016L284.631 408.174L284.479 408.315L284.351 408.488L284.314 408.747ZM283.66 404.919L283.643 405.037L283.297 405.667L283.12 405.839L282.908 405.979L282.686 406.071L282.51 406.106L282.464 406.228L282.295 406.987L282.1 406.612L282.008 406.547L281.921 406.186L281.649 406.15L281.347 406.205L281.147 406.107L281.206 405.812L281.469 405.584L281.681 405.359L281.577 405.067L281.303 405.272L281.219 405.372L281.147 405.508H280.992L281.029 404.9L281.337 404.653L281.781 404.522L282.436 404.141L282.664 404.119L282.781 404.202L282.658 404.409L282.453 404.603L282.365 404.74L282.402 404.878L282.581 405.068L282.858 405.013L282.971 405.023L283.166 405.068L283.157 404.839L283.176 404.599L283.245 404.41L283.625 404.223L283.744 403.974L283.811 403.72L283.883 403.587L284.19 403.697L284.413 404.074L284.482 404.541L284.312 404.922L284.129 405.034L284 405.023L283.856 404.96L283.66 404.919ZM293.083 402.119L293.14 402.467L293.083 403.666L292.966 403.953L292.694 404.05L292.41 403.947L292.246 403.638L292.545 402.169L292.782 401.744L293.083 402.119ZM287.625 400.57L287.681 400.428L287.799 400.544L287.902 400.728L287.91 400.796L288.375 401.458L288.228 401.941L287.759 402.126L287.262 401.893L287.124 401.659L287.113 401.435L287.196 400.871L287.262 400.802L287.411 400.781L287.557 400.729L287.625 400.57ZM278.569 400.143L278.658 400.073L278.853 399.972L279.051 399.917L279.14 399.988L279.225 400.342L279.362 400.518L279.389 400.738L279.139 401.223L279.132 401.125L279.095 401.069L279.041 401.019L278.984 400.944L278.948 400.802L278.911 400.777L278.836 400.776L278.709 400.797V400.637L278.805 400.503L278.744 400.428L278.631 400.334L278.569 400.143ZM292.079 400.224L292.172 400.82L292.162 401.647L292.059 402.44L291.859 402.933L290.504 405.002L289.637 405.767L288.63 405.508L288.825 405.04L288.916 404.921L288.987 404.468L289.281 403.586L289.347 403.081L289.307 402.884L289.123 402.582L289.031 402.302L288.935 402.229L288.915 402.118L288.997 401.993L289.163 401.879L289.298 401.758L289.281 401.609L288.885 400.877L288.646 399.903L288.63 398.877L288.916 397.991L289.281 398.34L290.424 398.632L290.804 399.034V399.226L290.649 400.142L290.714 400.482L291.223 401.384L291.301 400.83L291.489 400.144L291.757 399.787L292.079 400.224ZM288.496 389.437L288.66 389.473L288.805 389.365L288.976 389.292L289.213 389.437L289.351 389.669L289.305 389.815L289.069 390.026L288.934 390.209L288.817 390.296L288.718 390.397L288.627 390.627L288.596 390.831L288.627 391.51L288.865 392.426L288.885 392.866L288.627 393.129L288.612 392.694L288.33 392.181L288.339 391.805L288.188 391.388L287.908 390.026L287.433 388.703L287.335 388.259L287.304 387.84L287.367 386.866L287.478 386.626L287.775 386.641L287.929 386.974L288.351 389.134L288.496 389.437ZM280.86 372.715L280.991 372.878L280.87 373.124L280.787 373.54L280.716 374.351H280.562L280.506 373.994L280.49 373.382L280.583 372.845L280.86 372.715ZM185.637 366.632L185.723 367.602L185.611 368.02L185.193 368.273L185.37 366.677L185.427 366.406L185.518 366.344L185.637 366.632ZM191.51 351.047L191.739 350.768L191.884 350.403L192.099 350.065L192.53 349.861V349.996L192.358 350.377L192.112 350.791L191.818 351.071L191.51 351.047ZM275.244 335.679L275.396 336.019L275.412 336.381L275.343 336.729L275.244 337.019L275.099 336.588L274.961 335.099L275.073 335.227L275.156 335.357L275.212 335.504L275.244 335.679ZM215.698 327.685L215.738 328.026L215.938 328.602L215.984 328.878L215.897 329.162L215.513 329.81L215.19 330.642L214.647 330.751L214.018 330.579L213.535 330.307V330.158L213.953 329.854L214.257 329.428L214.693 328.518L215.254 327.707L215.6 327.387L215.699 327.685V327.685H215.698ZM212.217 321.353L212.329 322.445L212.059 323.537L211.535 324.56L210.484 325.913L210.274 326.089L209.935 326.257L208.792 326.636L208.48 326.83L208.352 326.942V327.116L208.377 327.315L208.359 327.462L208.147 327.727L207.689 328.104L207.486 328.37L207.573 328.703L207.409 329.048L206.927 329.711H206.77V329.547L207.075 329.001L206.906 328.222L206.342 326.865L206.496 326.181L207.075 325.798L207.825 325.461L208.505 324.912L208.727 324.55L209.042 323.849L209.206 323.57L209.847 322.945L211.154 321.355L211.81 320.835L212.217 321.353ZM273.669 317.123L273.652 317.46L273.71 318.307L273.669 318.766L273.553 319.009L273.418 319.186L273.3 319.38L273.238 319.676L273.266 319.863L273.186 320.656L273.291 321.335L272.789 321.832L272.147 321.615L272.013 320.645L271.777 320.31L270.937 319.614L271.147 318.928L271.43 318.724L271.475 318.245L271.375 317.694L271.218 317.271L270.962 316.887L270.842 316.647L270.788 316.374L270.865 316.225L271.008 316.12L271.082 315.988L270.946 315.762L271.163 315.475L271.5 315.245L271.879 315.091L272.224 315.028L273.092 315.433L273.582 315.572L274.024 315.626L274.098 316.051L274.115 316.442L273.669 317.123ZM192.971 264.594L193.027 264.862L193.217 265.366L193.258 265.58L193.195 266.113L193.002 266.616L192.689 267.04L192.255 267.333L191.874 267.393L191.341 267.369L190.869 267.27L190.665 267.108L190.557 266.83L190.307 266.557L189.792 266.124L187.773 263.688L187.676 263.501L187.486 262.931L189.439 262.778L189.916 262.589L190.152 262.26L190.376 262.146L190.796 262.612L191.249 262.97L191.452 263.03L191.674 263.064L192.176 263.08L192.909 262.99L193.057 263.149L193.102 263.687L192.981 264.351L192.971 264.594ZM197.701 250.888L197.763 251.203L197.736 251.669L197.599 252.087L197.35 252.268L197.061 252.408L196.578 253.082L196.236 253.369L196.195 253.416L196.124 253.464L195.996 253.498L195.873 253.456L195.82 253.336L195.78 253.218L195.696 253.18L195.436 253.316V253.495L195.512 253.688L195.481 253.871L195.313 253.959L195.074 253.978L194.612 253.954L194.175 254.008L194.051 253.968L193.816 253.789L193.566 253.517L193.064 252.749L192.971 252.491L192.925 252.257L192.72 251.981L192.674 251.732L192.649 251.672L192.603 251.628L192.552 251.558L192.531 251.428L192.581 251.34L192.69 251.345L192.79 251.334L192.819 251.193L192.66 250.837L192.363 250.656L191.671 250.433L191.372 250.232L191.159 249.987L190.798 249.219L191.017 249.19L191.109 249.099L191.087 248.949L190.953 248.748L191.772 247.716L191.956 247.698L192.124 247.742L192.517 247.785L192.676 247.836L192.87 248.001L192.973 248.168L193.055 248.344L193.183 248.529L194.184 249.323L194.539 249.676L194.888 249.499L195.339 249.43L195.803 249.504L196.203 249.759L196.591 250.065L197.399 250.543L197.701 250.888ZM187.929 242.187L188.174 242.86L188.205 243.2L188.071 243.559L186.913 242.601L186.575 242.106L185.862 239.662L185.78 238.934L186.184 238.972L186.616 239.267L186.842 239.484L187.005 239.684L187.067 239.818L187.202 240.003L187.499 240.183L187.794 240.409L187.929 240.74L187.844 241.785L187.929 242.187ZM176.568 237.065L176.642 237.389L177.631 239.994L177.785 240.784L177.846 241.729H177.713L177.6 241.313L177.503 240.344L177.349 239.97L177.06 239.556L175.765 237.131L175.694 236.755L175.64 236.64L175.525 236.553L175.423 236.431L175.408 236.213L175.476 235.993L175.578 235.898L175.702 235.928L175.838 236.075L176.201 236.311L176.336 236.478L176.453 236.66L176.539 236.857L176.568 237.065Z" fill="white"/>
</g>
<defs>
<filter id="filter0_d_4_10" x="0" y="0" width="508" height="508" filterUnits="userSpaceOnUse" color-interpolation-filters="sRGB">
<feFlood flood-opacity="0" result="BackgroundImageFix"/>
<feColorMatrix in="SourceAlpha" type="matrix" values="0 0 0 0 0 0 0 0 0 0 0 0 0 0 0 0 0 0 127 0" result="hardAlpha"/>
<feOffset dy="4"/>
<feGaussianBlur stdDeviation="2"/>
<feComposite in2="hardAlpha" operator="out"/>
<feColorMatrix type="matrix" values="0 0 0 0 0 0 0 0 0 0 0 0 0 0 0 0 0 0 0.25 0"/>
<feBlend mode="normal" in2="BackgroundImageFix" result="effect1_dropShadow_4_10"/>
<feBlend mode="normal" in="SourceGraphic" in2="effect1_dropShadow_4_10" result="shape"/>
</filter>
<filter id="filter1_d_4_10" x="147" y="28" width="214.93" height="445" filterUnits="userSpaceOnUse" color-interpolation-filters="sRGB">
<feFlood flood-opacity="0" result="BackgroundImageFix"/>
<feColorMatrix in="SourceAlpha" type="matrix" values="0 0 0 0 0 0 0 0 0 0 0 0 0 0 0 0 0 0 127 0" result="hardAlpha"/>
<feOffset/>
<feGaussianBlur stdDeviation="6.5"/>
<feComposite in2="hardAlpha" operator="out"/>
<feColorMatrix type="matrix" values="0 0 0 0 0 0 0 0 0 0 0 0 0 0 0 0 0 0 0.25 0"/>
<feBlend mode="normal" in2="BackgroundImageFix" result="effect1_dropShadow_4_10"/>
<feBlend mode="normal" in="SourceGraphic" in2="effect1_dropShadow_4_10" result="shape"/>
</filter>
</defs>
</svg>
